<svg xmlns="http://www.w3.org/2000/svg" xmlns:xlink="http://www.w3.org/1999/xlink" width="92.265" height="104.116" viewBox="0 0 92.265 104.116"><defs><style>.a{fill:#4b4b4b;}.b{fill:url(#a);}</style><linearGradient id="a" x1="0.5" x2="0.5" y2="1" gradientUnits="objectBoundingBox"><stop offset="0" stop-color="#31c426"/><stop offset="1" stop-color="#1ea114"/></linearGradient></defs><path class="a" d="M207.03,23.467h-1.439a10.294,10.294,0,0,0-1.821.162,1.08,1.08,0,0,0-.149.028,10.2,10.2,0,0,0-4.361,1.988.993.993,0,0,0-.153,1.423,1.06,1.06,0,0,0,1.462.149,8.026,8.026,0,0,1,2.283-1.255v2.481a1.04,1.04,0,0,0,2.08,0V25.516q.328-.026.659-.026h3.042q.333,0,.66.026v2.926a1.04,1.04,0,0,0,2.08,0V25.96A7.823,7.823,0,0,1,216.6,32.63H212.62a1.012,1.012,0,1,0,0,2.023h4v5.109h-4a1.012,1.012,0,1,0,0,2.023h4V46.9h-4a1.012,1.012,0,1,0,0,2.023H216.6a7.913,7.913,0,0,1-7.962,7.14h-3.043a7.912,7.912,0,0,1-7.962-7.14H201.6a1.012,1.012,0,1,0,0-2.023h-4V41.785h4a1.012,1.012,0,1,0,0-2.023h-4V34.653h4a1.012,1.012,0,1,0,0-2.023h-3.976a7.537,7.537,0,0,1,.7-2.605,1,1,0,0,0-.514-1.34,1.052,1.052,0,0,0-1.378.5,9.51,9.51,0,0,0-.909,4.073v.368a.144.144,0,0,0,0,.016s0,.01,0,.015v4.464h-3.633a2.653,2.653,0,1,0-.068,5.3v4.865a13.6,13.6,0,0,0,13.769,13.391h.482V67.8a10.139,10.139,0,0,0-6.926,3.717,2.019,2.019,0,0,0-.237,2.194,2.166,2.166,0,0,0,1.955,1.193h12.5a2.166,2.166,0,0,0,1.955-1.193,2.019,2.019,0,0,0-.237-2.194,10.138,10.138,0,0,0-6.925-3.717V61.682h.481A13.6,13.6,0,0,0,222.4,48.291V43.427a2.693,2.693,0,0,0,2.659-2.653,2.59,2.59,0,0,0-.8-1.873,2.745,2.745,0,0,0-1.931-.779H218.7V33.258a9.517,9.517,0,0,0-.514-3.091l-.971-2.023a10.1,10.1,0,0,0-6.644-4.5c-.028-.007-.057-.012-.086-.016a10.458,10.458,0,0,0-1.376-.155m4.332,49.287c.011.014.021.025,0,.061a.087.087,0,0,1-.085.054h-12.5a.086.086,0,0,1-.084-.054c-.018-.036-.009-.048,0-.061a8.187,8.187,0,0,1,12.66,0Zm-22.2-31.991a.639.639,0,0,1,.647-.629h3.633V41.4h-3.633A.64.64,0,0,1,191.242,40.774ZM208.633,59.66h-3.042A11.545,11.545,0,0,1,193.9,48.291V43.427h1.621v4.864a9.943,9.943,0,0,0,10.068,9.791h3.042A9.944,9.944,0,0,0,218.7,48.291v-.349c0-.012,0-.023,0-.035s0-.023,0-.035V43.427h1.622v4.864A11.546,11.546,0,0,1,208.633,59.66Zm13.7-19.516a.651.651,0,0,1,.46.187.611.611,0,0,1,.189.443.641.641,0,0,1-.649.631H218.7V40.144Z" transform="translate(-160.673 -23.467)"/><path class="b" d="M76.861,216.1H68.626A11.481,11.481,0,0,0,57,227.41a10.989,10.989,0,0,0,.348,2.742l1.043,4.064h.3a4.272,4.272,0,0,1,4.036-2.8h1.431v-.2a4.165,4.165,0,0,1,2.373-3.734l1.042-.507-.016-.074a6.3,6.3,0,0,0,5.16,3.68l8.616.836h1.431a4.274,4.274,0,0,1,4.036,2.8h.3l1.043-4.063a10.99,10.99,0,0,0,.348-2.742A11.481,11.481,0,0,0,76.861,216.1Z" transform="translate(-54.138 -162.1)"/><path class="b" d="M272.694,245.068a15.2,15.2,0,0,1,6.177-3.12l1.189-3.471h.053a6.931,6.931,0,0,1-4.1-6.271v-8.022a5.023,5.023,0,0,1,2.863-4.5l7.156,4.175h7.156v8.351a6.931,6.931,0,0,1-4.1,6.271h.053l1.189,3.471a15.2,15.2,0,0,1,6.177,3.12,10.6,10.6,0,0,0,3.841-8.138V225.246a15.75,15.75,0,0,0-31.487,0V236.93A10.6,10.6,0,0,0,272.694,245.068Z" transform="translate(-210.938 -157.005)"/><path class="a" d="M66.448,286.619l-.412-1.2a.012.012,0,0,1,.006-.015,6.97,6.97,0,0,0,3.437-4.592.013.013,0,0,1,.013-.01h0a5.572,5.572,0,1,0,.133-11.134H68.268l-8.547-.831a4.8,4.8,0,0,1-4.408-4.723.012.012,0,0,0-.013-.012H52.463a.013.013,0,0,0-.013.013,7.451,7.451,0,0,0,.221,1.793.012.012,0,0,1-.006.014,5.545,5.545,0,0,0-2.932,3.738.013.013,0,0,1-.013.01h0a5.572,5.572,0,1,0-.133,11.134h.145a6.974,6.974,0,0,0,3.437,4.6.012.012,0,0,1,.006.015l-.408,1.191a.013.013,0,0,1-.008.008A16.133,16.133,0,0,0,41,302.025v3.819a.013.013,0,0,0,.013.013l30.4.008h3.893c1.875,0,2.905,0,2.905-1.4v-2.441a16.133,16.133,0,0,0-11.765-15.406Zm6.04-11.381a2.826,2.826,0,0,1-2.849,2.784.013.013,0,0,1-.014-.013v-5.541a.014.014,0,0,1,.014-.013A2.826,2.826,0,0,1,72.487,275.239Zm-25.762,0a2.826,2.826,0,0,1,2.849-2.784.013.013,0,0,1,.013.013v5.541a.013.013,0,0,1-.013.013A2.827,2.827,0,0,1,46.725,275.239Zm20.586,14.667-1.216,2.787a.013.013,0,0,1-.019.006L62.6,290.67a.013.013,0,0,1,0-.022l2.865-1.393a.014.014,0,0,1,.01,0,14.2,14.2,0,0,1,1.836.651Zm-8.1,7.6H60a.013.013,0,0,1,.012.009l1.9,5.549a.013.013,0,0,1-.012.017H57.313a.013.013,0,0,1-.013-.017l1.9-5.547A.013.013,0,0,1,59.215,297.508Zm.89-2.784H59.11a.013.013,0,0,1-.012-.007l-.815-1.758a.012.012,0,0,1,.005-.016l1.312-.767a.013.013,0,0,1,.013,0l1.313.766a.012.012,0,0,1,.005.016l-.815,1.76A.013.013,0,0,1,60.1,294.724ZM52.45,270.86a2.756,2.756,0,0,1,1.4-2.4.013.013,0,0,1,.018,0,7.788,7.788,0,0,0,5.566,3.143l7.315.711a.013.013,0,0,1,.012.013V279.4a4.249,4.249,0,0,1-4.307,4.188h-5.7A4.249,4.249,0,0,1,52.45,279.4Zm4.294,15.513h5.725a6.888,6.888,0,0,0,.837-.082.013.013,0,0,1,.014.009l.256.749a.012.012,0,0,1-.006.015l-3.957,1.926a.014.014,0,0,1-.012,0l-3.959-1.926a.013.013,0,0,1-.007-.015l.256-.749a.013.013,0,0,1,.014-.009A7.24,7.24,0,0,0,56.744,286.373Zm-3,2.881,2.87,1.4a.013.013,0,0,1,0,.022L53.137,292.7a.013.013,0,0,1-.019-.006l-1.211-2.775a.013.013,0,0,1,.007-.017,13.823,13.823,0,0,1,1.829-.647Zm-9.88,12.771A13.167,13.167,0,0,1,49.4,291.34a.014.014,0,0,1,.02.005l2.35,5.381a.013.013,0,0,0,.019.006l4-2.336a.013.013,0,0,1,.019.006l.828,1.785a.013.013,0,0,1,0,.009l-2.355,6.873a.013.013,0,0,1-.013.009l-10.4,0a.013.013,0,0,1-.013-.013Zm31.475,1.055c-1.97,0-5.834,0-10.394,0a.013.013,0,0,1-.012-.009L62.573,296.2a.014.014,0,0,1,0-.009L63.4,294.4a.013.013,0,0,1,.019-.006l4,2.336a.013.013,0,0,0,.019-.006l2.351-5.381a.013.013,0,0,1,.02-.005,13.162,13.162,0,0,1,5.537,10.683v1.042A.013.013,0,0,1,75.337,303.08Z" transform="translate(-41 -201.749)"/><path class="a" d="M272.89,303.417h16.165a1,1,0,0,0,1.01-.982v-2.851a16.112,16.112,0,0,0-11.3-15.261.985.985,0,0,1-.628-.617l-.189-.551a.961.961,0,0,1,.321-1.072,8.251,8.251,0,0,0,3.208-6.5v-7.369a1,1,0,0,0-1.01-.982h-.842a1,1,0,0,0-1.01.982V274.6a6.644,6.644,0,0,1-6.735,6.549h-.842A6.644,6.644,0,0,1,264.3,274.6v-7.04a3.563,3.563,0,0,1,.789-2.241,1.034,1.034,0,0,1,1.322-.243l4.875,2.845a1.026,1.026,0,0,0,1.386-.337l.434-.7a.967.967,0,0,0-.346-1.348l-6.489-3.787a1.035,1.035,0,0,0-.971-.037l-.207.1a6.384,6.384,0,0,0-3.654,5.75v8.022a8.253,8.253,0,0,0,3.207,6.5.962.962,0,0,1,.321,1.071l-.189.552a.986.986,0,0,1-.628.617,16.113,16.113,0,0,0-11.3,15.261v2.851a1,1,0,0,0,1.01.982h16.165m0-19.485h2.863a8.486,8.486,0,0,0,1.361-.111,1.016,1.016,0,0,1,1.134.656l.3.875a.961.961,0,0,1,.052.34,12.133,12.133,0,0,1-.51,3.109,1,1,0,0,1-.968.7h-5.6a1,1,0,0,1-.967-.7,12.125,12.125,0,0,1-.51-3.109.96.96,0,0,1,.053-.34l.3-.875a1.016,1.016,0,0,1,1.133-.656A8.479,8.479,0,0,0,270.028,283.931Zm2.2,9.991-.04.041a1.024,1.024,0,0,1-1.46,0l-.04-.041a.978.978,0,0,1,.75-1.64h.04A.978.978,0,0,1,272.229,293.922Zm-16.513,5.661a13.241,13.241,0,0,1,7.467-11.845,1.02,1.02,0,0,1,1.454.682,15.342,15.342,0,0,0,5.962,9.15l.255.186a1.033,1.033,0,0,0,1.211,0l.255-.186a15.342,15.342,0,0,0,5.962-9.151,1.02,1.02,0,0,1,1.454-.682,13.24,13.24,0,0,1,7.467,11.845v.067a1,1,0,0,1-1.01.982H256.725a1,1,0,0,1-1.01-.982Z" transform="translate(-197.801 -199.684)"/><path class="a" d="M352.968,245.27l1.474-2.388,7.161,4.18-1.474,2.388Z" transform="translate(-280.005 -184.219)"/><path class="a" d="M333.244,115.5l-6.941.97a1.552,1.552,0,0,0-.706.285l0,0-.02.015-.007.006-.019.015-.024.019-.007.006-.021.019-.005.005-.024.021,0,0c-.019.017-.036.034-.053.052l0,0-.021.023-.005.006-.019.021-.006.007-.02.024-.015.018-.006.006-.016.02s0,0,0,0a1.461,1.461,0,0,0-.293.687l-1,6.75a1.494,1.494,0,0,0,1.3,1.683,1.522,1.522,0,0,0,1.73-1.26l.563-3.815L338.812,132a1.459,1.459,0,0,1,0,2.1l-3.411,3.317a1.457,1.457,0,0,0,0,2.1,1.559,1.559,0,0,0,2.161,0l3.411-3.317a4.377,4.377,0,0,0,0-6.306l-11.217-10.908,3.923-.548a1.541,1.541,0,0,0,.863-.42,1.457,1.457,0,0,0,.433-1.263A1.521,1.521,0,0,0,333.244,115.5Z" transform="translate(-256.986 -89.92)"/><path class="a" d="M126.791,116.757a1.456,1.456,0,0,0,.433,1.263,1.541,1.541,0,0,0,.863.42l3.923.548L120.792,129.9a4.377,4.377,0,0,0,0,6.306l3.411,3.317a1.559,1.559,0,0,0,2.161,0,1.457,1.457,0,0,0,0-2.1l-3.411-3.317a1.459,1.459,0,0,1,0-2.1l11.217-10.908.564,3.815a1.522,1.522,0,0,0,1.73,1.26,1.494,1.494,0,0,0,1.3-1.683l-1-6.75a1.458,1.458,0,0,0-.293-.687s0,0,0,0l-.016-.02-.005-.006-.015-.018c-.006-.008-.013-.016-.02-.024l-.005-.007-.019-.021-.006-.006-.021-.023,0,0c-.017-.018-.035-.035-.053-.052l0,0-.023-.021-.006-.005-.021-.019-.007-.006-.024-.019-.019-.015-.007-.006-.02-.015,0,0a1.552,1.552,0,0,0-.706-.285l-6.941-.97A1.521,1.521,0,0,0,126.791,116.757Z" transform="translate(-110.876 -89.92)"/><ellipse class="a" cx="2.423" cy="2.357" rx="2.423" ry="2.357" transform="translate(43.798 16.877)"/></svg>