<svg xmlns="http://www.w3.org/2000/svg" xmlns:xlink="http://www.w3.org/1999/xlink" width="94.403" height="65.547" viewBox="0 0 94.403 65.547"><defs><style>.a{fill:url(#a);}.b{fill:#fff;}.c{fill:#4b4b4b;}</style><linearGradient id="a" x1="0.5" x2="0.5" y2="1" gradientUnits="objectBoundingBox"><stop offset="0" stop-color="#48d63f"/><stop offset="1" stop-color="#22ab1a"/></linearGradient></defs><g transform="translate(-0.001 -68.713)"><g transform="translate(2.231 74.39)"><path class="a" d="M52.912,160.917a22.788,22.788,0,0,1-27.706-16.463c0-.018-.009-.038-.013-.058L17.68,114.754l44.311-11.2,7.513,29.66A22.841,22.841,0,0,1,52.912,160.917Z" transform="translate(-17.68 -103.556)"/></g><g transform="translate(10.549 96.432)"><path class="b" d="M64.228,201.255c-7.324-2.184-12.968,3.091-13.2,3.36A1.68,1.68,0,1,0,53.292,207a11.053,11.053,0,0,1,9.927-2.536,1.68,1.68,0,0,0,2.118-1.076c.005-.016.01-.033.015-.05A1.68,1.68,0,0,0,64.228,201.255Z" transform="translate(-50.234 -200.727)"/></g><g transform="translate(31.546 91.18)"><path class="b" d="M163.957,176.271v-.034c-7.324-2.167-12.968,3.091-13.2,3.36a1.681,1.681,0,0,0,2.318,2.436A10.935,10.935,0,0,1,163,179.5a1.682,1.682,0,0,0,.957-3.225Z" transform="translate(-150.232 -175.715)"/></g><g transform="translate(20.703 109.288)"><path class="b" d="M122.639,263.165a1.715,1.715,0,0,0-2.049-1.159l-20.695,5.241a1.68,1.68,0,0,0-1.26,2.014v0c1.159,4.569,5.61,7.643,11.053,7.643a14.4,14.4,0,0,0,3.544-.454C119.851,274.772,124.067,268.826,122.639,263.165Zm-10.23,10.079h0a11.071,11.071,0,0,1-2.7.336,8.248,8.248,0,0,1-7.139-3.544l16.983-4.3C119.4,269.027,116.525,272.2,112.409,273.243Z" transform="translate(-98.591 -261.953)"/></g><g transform="translate(0.001 68.713)"><g transform="translate(0 0)"><path class="c" d="M93.189,81.124l-.01,0L48.429,68.773a1.682,1.682,0,0,0-2.066,1.174v0l-.739,2.637L1.261,83.824A1.68,1.68,0,0,0,.051,85.857l7.492,29.615a24.843,24.843,0,0,0,41.524,11.641,24.879,24.879,0,0,0,37.14-14.48l8.13-29.43A1.677,1.677,0,0,0,93.189,81.124Zm-56.233,49.1a21.5,21.5,0,0,1-26.142-15.534c0-.017-.008-.036-.013-.055L3.713,86.663,45.523,76.1l7.089,27.985A21.552,21.552,0,0,1,36.956,130.22Zm19.149-15.874a24.749,24.749,0,0,0,.5-4.586c.976-.16-.976-.113,0,0l-.218-3.376c-1.05-.1,1.05-.143,0,0a24.9,24.9,0,0,0-.554-3.141l-2.822-11-1.159-4.6L48.547,74.6l.6-2.2L90.659,83.875l-7.677,27.868a21.536,21.536,0,0,1-31.647,12.834,25.027,25.027,0,0,0,3.813-6.988" transform="translate(-0.001 -68.713)"/></g></g><g transform="translate(51.438 87.251)"><g transform="translate(0 0)"><path class="c" d="M245.025,159.247a1.5,1.5,0,0,0,1.841,1.048,9.745,9.745,0,0,1,8.8,2.455,1.5,1.5,0,1,0,2.111-2.126A13.473,13.473,0,0,0,249.067,157a11.21,11.21,0,0,0-2.994.4A1.5,1.5,0,0,0,245.025,159.247Z" transform="translate(-244.971 -157.001)"/></g></g><g transform="translate(68.877 92.172)"><path class="c" d="M328.075,182.683a1.5,1.5,0,0,0,1.841,1.048,9.745,9.745,0,0,1,8.8,2.455,1.5,1.5,0,1,0,2.111-2.126,13.473,13.473,0,0,0-8.712-3.623,11.208,11.208,0,0,0-2.994.4A1.5,1.5,0,0,0,328.075,182.683Z" transform="translate(-328.021 -180.437)"/></g><g transform="translate(54.744 103.758)"><path class="c" d="M282.438,261.028a1.528,1.528,0,0,0-1.153-1.753L262.746,255a1.5,1.5,0,0,0-1.819,1.083v0c-.942,4.094,1.335,8.343,5.65,10.559a12.829,12.829,0,0,0,2.994,1.083C275.5,269.094,281.265,266.1,282.438,261.028Zm-12.213,3.824h0a9.861,9.861,0,0,1-2.281-.835,7.351,7.351,0,0,1-4.216-5.716l15.213,3.506C277.481,264.355,273.911,265.7,270.225,264.852Z" transform="translate(-260.717 -254.957)"/></g></g></svg>