<svg xmlns="http://www.w3.org/2000/svg" xmlns:xlink="http://www.w3.org/1999/xlink" width="83.179" height="83.179" viewBox="0 0 83.179 83.179"><defs><style>.a{fill:url(#a);}.b{fill:#4b4b4b;}</style><linearGradient id="a" x1="0.5" x2="0.5" y2="1" gradientUnits="objectBoundingBox"><stop offset="0" stop-color="#e23748"/><stop offset="1" stop-color="#950e1c"/></linearGradient></defs><path class="a" d="M200.968,188.841a2.223,2.223,0,0,1-2.089-1.469,8.968,8.968,0,0,0-.346-.837,2.222,2.222,0,0,1,.437-2.516l1.524-1.522-2.2-2.2-1.522,1.524a2.223,2.223,0,0,1-2.516.437,8.959,8.959,0,0,0-.837-.346,2.223,2.223,0,0,1-1.469-2.089V177.67h-3.109v2.153a2.221,2.221,0,0,1-1.469,2.089,8.782,8.782,0,0,0-.837.346,2.222,2.222,0,0,1-2.516-.437L182.5,180.3l-2.2,2.2,1.524,1.522a2.222,2.222,0,0,1,.437,2.516,8.959,8.959,0,0,0-.346.837,2.223,2.223,0,0,1-2.089,1.469H177.67v3.109h2.153a2.221,2.221,0,0,1,2.089,1.469,8.959,8.959,0,0,0,.346.837,2.223,2.223,0,0,1-.437,2.516l-1.524,1.522,2.2,2.2,1.522-1.522a2.219,2.219,0,0,1,2.516-.437,8.968,8.968,0,0,0,.837.346,2.221,2.221,0,0,1,1.469,2.089v2.153h3.109v-2.153a2.219,2.219,0,0,1,1.469-2.089,8.967,8.967,0,0,0,.837-.346,2.222,2.222,0,0,1,2.516.437l1.522,1.522,2.2-2.2-1.524-1.522a2.223,2.223,0,0,1-.437-2.516c.128-.271.245-.552.348-.837a2.217,2.217,0,0,1,2.088-1.469h2.153v-3.109ZM190.4,194.462a4.066,4.066,0,1,1,4.066-4.066A4.071,4.071,0,0,1,190.4,194.462Z" transform="translate(-148.806 -148.806)"/><path class="b" d="M165.854,187.3l2.506,2.506a2.219,2.219,0,0,0,3.139,0l1.568-1.568c.252.115.509.222.77.319v2.218a2.222,2.222,0,0,0,2.22,2.22H179.6a2.222,2.222,0,0,0,2.22-2.22v-2.218c.26-.1.518-.2.77-.319l1.568,1.569a2.223,2.223,0,0,0,3.139,0L189.8,187.3a2.223,2.223,0,0,0,0-3.139l-1.568-1.568c.115-.252.222-.509.319-.77h2.218a2.222,2.222,0,0,0,2.22-2.22v-3.544a2.222,2.222,0,0,0-2.22-2.22h-2.218c-.1-.26-.2-.518-.319-.77L189.8,171.5a2.222,2.222,0,0,0,0-3.139l-2.506-2.506a2.222,2.222,0,0,0-3.139,0l-1.568,1.568c-.252-.115-.509-.222-.77-.319v-2.218a2.222,2.222,0,0,0-2.22-2.22h-3.544a2.222,2.222,0,0,0-2.22,2.22v2.218c-.261.1-.519.2-.77.319l-1.568-1.568a2.218,2.218,0,0,0-3.139,0l-2.506,2.506a2.223,2.223,0,0,0,0,3.139l1.568,1.568c-.115.252-.222.509-.319.77h-2.218a2.222,2.222,0,0,0-2.22,2.22V179.6a2.222,2.222,0,0,0,2.22,2.22H167.1c.1.261.2.518.319.77l-1.569,1.568A2.222,2.222,0,0,0,165.854,187.3Zm1.4-7.914H165.1v-3.109h2.154a2.219,2.219,0,0,0,2.088-1.469,8.954,8.954,0,0,1,.347-.837,2.22,2.22,0,0,0-.437-2.516l-1.523-1.523,2.2-2.2,1.523,1.523a2.22,2.22,0,0,0,2.517.437,9.011,9.011,0,0,1,.836-.346,2.219,2.219,0,0,0,1.469-2.088V165.1h3.109v2.154a2.219,2.219,0,0,0,1.469,2.088,8.954,8.954,0,0,1,.837.347,2.22,2.22,0,0,0,2.516-.437l1.523-1.523,2.2,2.2-1.523,1.523a2.22,2.22,0,0,0-.437,2.516,9,9,0,0,1,.347.836,2.219,2.219,0,0,0,2.088,1.469h2.154v3.109H188.4a2.219,2.219,0,0,0-2.088,1.469,9,9,0,0,1-.347.837,2.22,2.22,0,0,0,.437,2.516l1.523,1.523-2.2,2.2-1.523-1.523a2.22,2.22,0,0,0-2.516-.437,8.918,8.918,0,0,1-.836.346,2.219,2.219,0,0,0-1.469,2.088v2.154h-3.109V188.4a2.219,2.219,0,0,0-1.469-2.088,8.995,8.995,0,0,1-.837-.347,2.22,2.22,0,0,0-2.516.437l-1.523,1.523-2.2-2.2,1.523-1.523a2.22,2.22,0,0,0,.437-2.516,8.95,8.95,0,0,1-.346-.836,2.219,2.219,0,0,0-2.088-1.469Z" transform="translate(-136.24 -136.241)"/><path class="b" d="M222.473,215.97a6.5,6.5,0,1,0,6.5,6.5A6.511,6.511,0,0,0,222.473,215.97Zm0,10.57a4.066,4.066,0,1,1,4.066-4.066A4.071,4.071,0,0,1,222.473,226.54Z" transform="translate(-180.884 -180.884)"/><path class="b" d="M15.307,30.613A15.307,15.307,0,1,0,0,15.307,15.316,15.316,0,0,0,15.307,30.613Zm8.156-5.359a12.842,12.842,0,0,1-16.312,0,4.2,4.2,0,0,1,4.2-4.275h7.91a4.2,4.2,0,0,1,4.2,4.275ZM15.307,2.437a12.861,12.861,0,0,1,10.25,20.641,6.648,6.648,0,0,0-6.295-4.536h-7.91a6.648,6.648,0,0,0-6.295,4.536A12.861,12.861,0,0,1,15.307,2.437Z"/><path class="b" d="M338.869,323.562a15.307,15.307,0,1,0,15.307,15.307A15.324,15.324,0,0,0,338.869,323.562Zm8.156,25.254a12.84,12.84,0,0,1-16.312,0,4.2,4.2,0,0,1,4.2-4.275h7.91A4.2,4.2,0,0,1,347.024,348.816Zm2.094-2.176a6.648,6.648,0,0,0-6.295-4.536h-7.91a6.648,6.648,0,0,0-6.295,4.536,12.87,12.87,0,1,1,20.5,0Z" transform="translate(-270.997 -270.997)"/><path class="b" d="M67.713,38.547a5.953,5.953,0,0,0,0-8.424h0a5.957,5.957,0,1,0,0,8.424Zm-6.7-6.7a3.524,3.524,0,0,1,4.978,0h0a3.52,3.52,0,1,1-4.978,0Z" transform="translate(-48.194 -23.767)"/><path class="b" d="M59.31,362.131a5.957,5.957,0,0,0,8.424-8.424h0a5.957,5.957,0,1,0-8.424,8.424Zm1.723-6.7a3.52,3.52,0,1,1,0,4.978A3.524,3.524,0,0,1,61.033,355.43Z" transform="translate(-48.216 -294.785)"/><path class="b" d="M382.874,30.143a5.957,5.957,0,1,0,8.424,0h0a5.964,5.964,0,0,0-8.424,0Zm6.7,6.7a3.52,3.52,0,1,1,0-4.978h0A3.518,3.518,0,0,1,389.575,36.844Z" transform="translate(-319.214 -23.787)"/><path class="b" d="M391.3,353.706a5.957,5.957,0,1,0,0,8.424,5.964,5.964,0,0,0,0-8.424Zm-1.723,6.7a3.52,3.52,0,1,1,0-4.978A3.524,3.524,0,0,1,389.575,360.408Z" transform="translate(-319.214 -294.785)"/><path class="b" d="M217.86,89.155a1.218,1.218,0,1,0,0-2.437H202.526a1.218,1.218,0,1,0,0,2.437Z" transform="translate(-168.604 -72.63)"/><path class="b" d="M202.527,410.281a1.218,1.218,0,0,0,0,2.437h15.333a1.218,1.218,0,1,0,0-2.437Z" transform="translate(-168.605 -343.627)"/><path class="b" d="M89.155,217.86V202.526a1.218,1.218,0,1,0-2.437,0V217.86a1.218,1.218,0,1,0,2.437,0Z" transform="translate(-72.63 -168.604)"/><path class="b" d="M412.717,217.86V202.526a1.218,1.218,0,1,0-2.437,0V217.86a1.218,1.218,0,0,0,2.437,0Z" transform="translate(-343.626 -168.604)"/><path class="b" d="M351.5,12.823a1.218,1.218,0,0,0,2.392-.467,15.306,15.306,0,1,0-.056,6.175,1.218,1.218,0,0,0-2.383-.511,12.719,12.719,0,0,1-2.334,5.054,6.648,6.648,0,0,0-6.293-4.531h-7.91a6.648,6.648,0,0,0-6.295,4.536A12.867,12.867,0,1,1,351.5,12.823Zm-16.584,8.156h7.91a4.206,4.206,0,0,1,4.2,4.2v.06a12.818,12.818,0,0,1-16.312.014A4.2,4.2,0,0,1,334.914,20.979Z" transform="translate(-270.997)"/><path class="b" d="M15.307,355.654a15.308,15.308,0,0,0,3.088-30.3,1.219,1.219,0,0,0-.489,2.388,12.862,12.862,0,0,1,7.651,20.379,6.648,6.648,0,0,0-6.295-4.536h-7.91a6.648,6.648,0,0,0-6.295,4.536,12.862,12.862,0,0,1,7.651-20.379,1.219,1.219,0,0,0-.489-2.388,15.308,15.308,0,0,0,3.088,30.3Zm-3.955-9.634h7.91a4.2,4.2,0,0,1,4.2,4.275,12.842,12.842,0,0,1-16.312,0A4.2,4.2,0,0,1,11.352,346.02Z" transform="translate(0 -272.476)"/><path class="b" d="M166.355,187.8l2.506,2.506a2.219,2.219,0,0,0,3.139,0l1.568-1.568c.252.115.509.222.77.319v2.218a2.222,2.222,0,0,0,2.22,2.22H180.1a2.222,2.222,0,0,0,2.22-2.22v-2.218c.26-.1.518-.2.77-.319l1.568,1.569a2.222,2.222,0,0,0,3.139,0L190.3,187.8a2.223,2.223,0,0,0,0-3.139l-1.568-1.568c.115-.252.222-.509.319-.77h2.218a2.222,2.222,0,0,0,2.22-2.22v-3.544a2.222,2.222,0,0,0-2.22-2.22h-2.218c-.1-.26-.2-.518-.319-.77L190.3,172a2.222,2.222,0,0,0,0-3.139l-2.506-2.506a2.222,2.222,0,0,0-3.139,0l-1.568,1.568c-.252-.115-.509-.222-.77-.319v-2.218a2.222,2.222,0,0,0-2.22-2.22h-3.544a2.222,2.222,0,0,0-2.22,2.22V167.6c-.261.1-.519.2-.77.319L172,166.355a2.218,2.218,0,0,0-3.139,0l-2.506,2.506a2.223,2.223,0,0,0,0,3.139l1.568,1.568c-.115.252-.222.509-.319.77h-2.218a2.222,2.222,0,0,0-2.22,2.22V180.1a2.222,2.222,0,0,0,2.22,2.22H167.6c.1.261.2.518.319.77l-1.569,1.568A2.222,2.222,0,0,0,166.355,187.8Zm1.4-7.914H165.6v-3.109h2.154a2.219,2.219,0,0,0,2.088-1.469,8.954,8.954,0,0,1,.347-.837,2.22,2.22,0,0,0-.437-2.516l-1.523-1.523,2.2-2.2,1.523,1.523a2.219,2.219,0,0,0,2.516.437,8.97,8.97,0,0,1,.836-.346,2.219,2.219,0,0,0,1.469-2.088V165.6h3.109v2.154a2.22,2.22,0,0,0,1.469,2.088,8.954,8.954,0,0,1,.837.347,2.22,2.22,0,0,0,2.516-.437l1.523-1.523,2.2,2.2-1.523,1.523a2.22,2.22,0,0,0-.437,2.516,9.007,9.007,0,0,1,.347.836,2.219,2.219,0,0,0,2.088,1.469h2.154v3.109H188.9a2.219,2.219,0,0,0-2.088,1.469,9,9,0,0,1-.347.837,2.22,2.22,0,0,0,.437,2.516l1.523,1.523-2.2,2.2-1.523-1.523a2.22,2.22,0,0,0-2.516-.437,8.917,8.917,0,0,1-.836.346,2.219,2.219,0,0,0-1.469,2.088v2.154h-3.109V188.9a2.219,2.219,0,0,0-1.469-2.088,8.955,8.955,0,0,1-.837-.347,2.22,2.22,0,0,0-2.516.437l-1.523,1.523-2.2-2.2,1.523-1.523a2.22,2.22,0,0,0,.437-2.516,8.931,8.931,0,0,1-.346-.836,2.219,2.219,0,0,0-2.088-1.469Z" transform="translate(-136.659 -136.659)"/></svg>