<svg xmlns="http://www.w3.org/2000/svg" xmlns:xlink="http://www.w3.org/1999/xlink" width="78.663" height="78.663" viewBox="0 0 78.663 78.663"><defs><style>.a{fill:url(#a);}.b{fill:#4b4b4b;}</style><linearGradient id="a" x1="0.5" x2="0.5" y2="1" gradientUnits="objectBoundingBox"><stop offset="0" stop-color="#e23748"/><stop offset="1" stop-color="#950e1c"/></linearGradient></defs><g transform="translate(-16 -16.004)"><path class="a" d="M285.9,47.76a1.314,1.314,0,0,1,.862-.873l3.44-1.08c.016-.241.023-.47.023-.692s-.007-.451-.023-.692l-3.44-1.08a1.314,1.314,0,0,1-.862-.873,9.316,9.316,0,0,0-.7-1.7,1.3,1.3,0,0,1-.008-1.226l1.663-3.189a13.573,13.573,0,0,0-.983-.983l-3.189,1.663a1.307,1.307,0,0,1-1.227-.008,9.158,9.158,0,0,0-1.7-.7,1.314,1.314,0,0,1-.874-.862l-1.08-3.44a10.819,10.819,0,0,0-1.383,0l-1.08,3.44a1.314,1.314,0,0,1-.874.862,9.316,9.316,0,0,0-1.7.7,1.309,1.309,0,0,1-1.226.008l-3.189-1.663a13.575,13.575,0,0,0-.983.983l1.663,3.189a1.307,1.307,0,0,1-.008,1.227,9.159,9.159,0,0,0-.7,1.7,1.314,1.314,0,0,1-.862.873l-3.44,1.08c-.016.241-.023.47-.023.692s.007.451.023.692l3.44,1.08a1.314,1.314,0,0,1,.862.873,9.316,9.316,0,0,0,.7,1.7,1.3,1.3,0,0,1,.008,1.226l-1.663,3.189a13.574,13.574,0,0,0,.983.983l3.189-1.663a1.307,1.307,0,0,1,1.227.008,9.158,9.158,0,0,0,1.7.7,1.314,1.314,0,0,1,.874.862l1.08,3.44a10.82,10.82,0,0,0,1.383,0l1.08-3.44a1.314,1.314,0,0,1,.874-.862,9.315,9.315,0,0,0,1.7-.7,1.309,1.309,0,0,1,1.226-.008l3.189,1.663a13.576,13.576,0,0,0,.983-.983l-1.663-3.189a1.3,1.3,0,0,1,.008-1.226A9.316,9.316,0,0,0,285.9,47.76Zm-8.786,1.288a3.933,3.933,0,1,1,3.933-3.933A3.938,3.938,0,0,1,277.111,49.048Z" transform="translate(-207.357 -13.379)"/><path class="a" d="M73.693,218.586a1.313,1.313,0,0,1,1.018-1.072l4.459-.964c.018-.306.028-.618.028-.929s-.011-.623-.029-.931l-4.459-.962a1.313,1.313,0,0,1-1.018-1.072,18.284,18.284,0,0,0-.942-3.527,1.311,1.311,0,0,1,.346-1.437l3.369-3.051c-.292-.562-.6-1.1-.918-1.609l-4.322,1.391a1.306,1.306,0,0,1-1.418-.416,18.3,18.3,0,0,0-2.593-2.594A1.31,1.31,0,0,1,66.8,200l1.391-4.322c-.51-.318-1.049-.624-1.611-.918l-3.051,3.368a1.308,1.308,0,0,1-1.436.346,18.4,18.4,0,0,0-3.528-.942,1.313,1.313,0,0,1-1.072-1.018l-.964-4.459a17.174,17.174,0,0,0-1.86,0l-.962,4.459a1.313,1.313,0,0,1-1.072,1.018,18.284,18.284,0,0,0-3.527.942,1.313,1.313,0,0,1-1.437-.346l-3.051-3.369c-.564.292-1.1.6-1.611.918l1.391,4.322a1.31,1.31,0,0,1-.416,1.418A18.287,18.287,0,0,0,41.39,204a1.318,1.318,0,0,1-1.418.416l-4.322-1.391c-.318.51-.624,1.049-.918,1.611l3.368,3.051a1.309,1.309,0,0,1,.346,1.436,18.4,18.4,0,0,0-.942,3.528,1.313,1.313,0,0,1-1.018,1.072l-4.459.964c-.018.306-.028.618-.028.929s.011.623.028.931l4.463.96a1.309,1.309,0,0,1,1.018,1.07,18.1,18.1,0,0,0,.942,3.527,1.311,1.311,0,0,1-.346,1.437L34.735,226.6q.438.846.918,1.613l4.322-1.393a1.306,1.306,0,0,1,1.416.416,18.4,18.4,0,0,0,2.594,2.594,1.313,1.313,0,0,1,.416,1.418l-1.391,4.32c.51.318,1.049.624,1.611.918l3.051-3.368a1.307,1.307,0,0,1,1.436-.346,18.214,18.214,0,0,0,3.528.942,1.313,1.313,0,0,1,1.072,1.018l.964,4.461a17.606,17.606,0,0,0,1.86,0l.962-4.461a1.313,1.313,0,0,1,1.072-1.018,18.167,18.167,0,0,0,3.527-.942,1.314,1.314,0,0,1,1.436.346l3.053,3.369q.843-.438,1.609-.918L66.8,231.245a1.311,1.311,0,0,1,.416-1.416,18.459,18.459,0,0,0,2.593-2.593,1.3,1.3,0,0,1,1.418-.416l4.322,1.391c.318-.51.624-1.049.918-1.611L73.1,223.55a1.309,1.309,0,0,1-.346-1.436A18.4,18.4,0,0,0,73.693,218.586ZM55.6,227.42a11.8,11.8,0,1,1,11.8-11.8A11.813,11.813,0,0,1,55.6,227.42Z" transform="translate(-13.378 -147.175)"/><g transform="translate(16 16.004)"><path class="b" d="M16.1,204.431a1.31,1.31,0,0,0,1.03,1.177l4.569.986a20.711,20.711,0,0,0,.614,2.3l-3.459,3.133a1.311,1.311,0,0,0-.3,1.535,26.216,26.216,0,0,0,2.092,3.651,1.311,1.311,0,0,0,1.48.5l4.441-1.43a21,21,0,0,0,1.691,1.691l-1.43,4.441a1.311,1.311,0,0,0,.5,1.48,26.215,26.215,0,0,0,3.651,2.092,1.312,1.312,0,0,0,1.535-.3l3.133-3.459a21.106,21.106,0,0,0,2.3.614l.986,4.569a1.313,1.313,0,0,0,1.176,1.03c.7.055,1.4.1,2.108.1s1.411-.05,2.108-.1a1.31,1.31,0,0,0,1.177-1.03l.986-4.569a20.734,20.734,0,0,0,2.3-.614l3.133,3.459a1.309,1.309,0,0,0,1.535.3,26.346,26.346,0,0,0,3.651-2.092,1.311,1.311,0,0,0,.5-1.48l-1.43-4.441a21.2,21.2,0,0,0,1.691-1.69l4.441,1.43a1.309,1.309,0,0,0,1.48-.5,26.217,26.217,0,0,0,2.092-3.651,1.311,1.311,0,0,0-.3-1.535l-3.459-3.133a21.107,21.107,0,0,0,.614-2.3l4.569-.986a1.313,1.313,0,0,0,1.03-1.176c.054-.7.1-1.4.1-2.109s-.05-1.411-.1-2.108a1.31,1.31,0,0,0-1.03-1.177l-4.569-.986a20.734,20.734,0,0,0-.614-2.3l3.459-3.133a1.311,1.311,0,0,0,.3-1.535,26.348,26.348,0,0,0-2.092-3.651,1.309,1.309,0,0,0-1.48-.5l-4.441,1.43a21.006,21.006,0,0,0-1.691-1.691l1.43-4.441a1.311,1.311,0,0,0-.5-1.48,26.215,26.215,0,0,0-3.651-2.092,1.308,1.308,0,0,0-1.535.3l-3.133,3.459a21.106,21.106,0,0,0-2.3-.614l-.986-4.569a1.313,1.313,0,0,0-1.176-1.03,26.644,26.644,0,0,0-4.218,0,1.31,1.31,0,0,0-1.177,1.03l-.986,4.569a20.712,20.712,0,0,0-2.3.614l-3.133-3.459a1.31,1.31,0,0,0-1.535-.3,26.216,26.216,0,0,0-3.651,2.092,1.311,1.311,0,0,0-.5,1.48l1.43,4.441a21.007,21.007,0,0,0-1.691,1.691l-4.439-1.43a1.308,1.308,0,0,0-1.48.5,26.216,26.216,0,0,0-2.092,3.651,1.311,1.311,0,0,0,.3,1.535l3.459,3.133a21.107,21.107,0,0,0-.614,2.3l-4.569.986a1.313,1.313,0,0,0-1.03,1.176c-.055.7-.1,1.4-.1,2.109s.05,1.411.1,2.108Zm2.545-3.038,4.46-.964a1.311,1.311,0,0,0,1.017-1.071,18.277,18.277,0,0,1,.943-3.528,1.31,1.31,0,0,0-.346-1.436l-3.368-3.052c.294-.562.6-1.1.918-1.611l4.321,1.392a1.316,1.316,0,0,0,1.417-.417,18.434,18.434,0,0,1,2.593-2.593,1.31,1.31,0,0,0,.417-1.417l-1.392-4.321q.765-.478,1.611-.918l3.052,3.369a1.313,1.313,0,0,0,1.437.346,18.188,18.188,0,0,1,3.527-.943,1.311,1.311,0,0,0,1.071-1.017l.962-4.46a17.267,17.267,0,0,1,1.86,0l.964,4.46a1.311,1.311,0,0,0,1.071,1.017,18.276,18.276,0,0,1,3.528.943,1.309,1.309,0,0,0,1.436-.346l3.052-3.368c.562.294,1.1.6,1.611.918L53.42,186.7a1.312,1.312,0,0,0,.417,1.417,18.434,18.434,0,0,1,2.593,2.593,1.306,1.306,0,0,0,1.417.417l4.321-1.392q.478.765.918,1.61L59.717,194.4a1.311,1.311,0,0,0-.346,1.437,18.189,18.189,0,0,1,.943,3.527,1.311,1.311,0,0,0,1.017,1.071l4.46.962c.017.308.029.619.029.931s-.01.623-.028.93l-4.46.964a1.312,1.312,0,0,0-1.017,1.071,18.277,18.277,0,0,1-.943,3.528,1.31,1.31,0,0,0,.346,1.436l3.368,3.052c-.294.562-.6,1.1-.918,1.611l-4.321-1.392a1.305,1.305,0,0,0-1.417.417,18.5,18.5,0,0,1-2.593,2.593,1.31,1.31,0,0,0-.417,1.416l1.392,4.321q-.765.478-1.61.918l-3.052-3.369a1.316,1.316,0,0,0-1.437-.346,18.19,18.19,0,0,1-3.527.943,1.311,1.311,0,0,0-1.071,1.017l-.962,4.46a17.271,17.271,0,0,1-1.86,0l-.964-4.46a1.311,1.311,0,0,0-1.071-1.017,18.278,18.278,0,0,1-3.528-.943,1.308,1.308,0,0,0-1.436.346l-3.052,3.368c-.562-.294-1.1-.6-1.611-.918l1.392-4.321a1.312,1.312,0,0,0-.417-1.417,18.433,18.433,0,0,1-2.593-2.593,1.309,1.309,0,0,0-1.417-.417l-4.321,1.392q-.478-.765-.918-1.611l3.369-3.052a1.311,1.311,0,0,0,.346-1.437,18.189,18.189,0,0,1-.943-3.527,1.311,1.311,0,0,0-1.017-1.071l-4.463-.96c-.016-.308-.028-.619-.028-.931S18.633,201.7,18.65,201.394Z" transform="translate(-16 -149.882)"/><path class="b" d="M278.441,34.666a1.31,1.31,0,0,0,.909-1.1,15.423,15.423,0,0,0,.115-1.83,15.683,15.683,0,0,0-.114-1.83,1.31,1.31,0,0,0-.909-1.1l-3.636-1.142q-.163-.446-.362-.876l1.762-3.376a1.314,1.314,0,0,0-.134-1.42,15.873,15.873,0,0,0-2.595-2.595,1.314,1.314,0,0,0-1.42-.135l-3.379,1.762q-.429-.2-.876-.361l-1.142-3.636a1.31,1.31,0,0,0-1.1-.909,14.5,14.5,0,0,0-3.662,0,1.31,1.31,0,0,0-1.1.909l-1.142,3.636q-.446.163-.876.362l-3.376-1.762a1.317,1.317,0,0,0-1.42.134,15.873,15.873,0,0,0-2.595,2.595,1.311,1.311,0,0,0-.135,1.42l1.761,3.376q-.2.429-.361.876l-3.636,1.142a1.31,1.31,0,0,0-.909,1.1,14.741,14.741,0,0,0,0,3.66,1.31,1.31,0,0,0,.909,1.1l3.636,1.142q.163.446.362.876l-1.762,3.376a1.314,1.314,0,0,0,.134,1.42,15.873,15.873,0,0,0,2.595,2.595,1.314,1.314,0,0,0,1.42.135l3.376-1.761q.429.2.876.361l1.142,3.636a1.31,1.31,0,0,0,1.1.909,15.5,15.5,0,0,0,1.833.115,15.685,15.685,0,0,0,1.83-.114,1.31,1.31,0,0,0,1.1-.909l1.142-3.636q.446-.163.876-.362l3.376,1.762a1.311,1.311,0,0,0,1.42-.134,15.874,15.874,0,0,0,2.595-2.595,1.311,1.311,0,0,0,.135-1.42l-1.762-3.376q.2-.429.362-.876Zm-5.061-1.159a1.315,1.315,0,0,0-.863.874,9.234,9.234,0,0,1-.7,1.7,1.308,1.308,0,0,0-.008,1.227l1.664,3.188a13.386,13.386,0,0,1-.983.983L269.3,39.813a1.311,1.311,0,0,0-1.227.008,9.234,9.234,0,0,1-1.7.7,1.315,1.315,0,0,0-.874.863l-1.08,3.44a11.045,11.045,0,0,1-1.382,0l-1.08-3.44a1.315,1.315,0,0,0-.874-.863,9.11,9.11,0,0,1-1.7-.7,1.31,1.31,0,0,0-1.228-.008l-3.188,1.664a13.38,13.38,0,0,1-.983-.983l1.664-3.188a1.311,1.311,0,0,0-.008-1.227,9.234,9.234,0,0,1-.7-1.7,1.315,1.315,0,0,0-.863-.874l-3.44-1.08c-.016-.24-.022-.469-.022-.691s.007-.451.022-.691l3.44-1.08a1.315,1.315,0,0,0,.863-.874,9.11,9.11,0,0,1,.7-1.7,1.31,1.31,0,0,0,.008-1.228l-1.664-3.188a13.381,13.381,0,0,1,.983-.983l3.188,1.664a1.315,1.315,0,0,0,1.227-.008,9.235,9.235,0,0,1,1.7-.7,1.315,1.315,0,0,0,.874-.863l1.08-3.44a11.045,11.045,0,0,1,1.382,0l1.08,3.44a1.315,1.315,0,0,0,.874.863,9.11,9.11,0,0,1,1.7.7,1.31,1.31,0,0,0,1.228.008l3.189-1.664a13.385,13.385,0,0,1,.983.983l-1.664,3.188a1.311,1.311,0,0,0,.008,1.227,9.234,9.234,0,0,1,.7,1.7,1.315,1.315,0,0,0,.863.874l3.44,1.08c.016.24.022.469.022.691s-.007.451-.022.691Z" transform="translate(-209.979 -16.004)"/><path class="b" d="M361.254,226.446l-2.252-.8a10.625,10.625,0,0,0-.442-1.071l1.024-2.157a1.305,1.305,0,0,0-.152-1.369,13.2,13.2,0,0,0-2.254-2.255,1.311,1.311,0,0,0-1.37-.152l-2.158,1.024a10.472,10.472,0,0,0-1.07-.441l-.8-2.252a1.314,1.314,0,0,0-1.078-.863,12.082,12.082,0,0,0-3.182,0,1.31,1.31,0,0,0-1.078.863l-.8,2.252a10.626,10.626,0,0,0-1.071.442l-2.157-1.024a1.312,1.312,0,0,0-1.369.152,13.194,13.194,0,0,0-2.255,2.254,1.313,1.313,0,0,0-.152,1.37l1.024,2.158a10.463,10.463,0,0,0-.441,1.07l-2.252.8a1.314,1.314,0,0,0-.863,1.078,12.844,12.844,0,0,0-.106,1.589,13.141,13.141,0,0,0,.1,1.59,1.31,1.31,0,0,0,.863,1.078l2.252.8a10.625,10.625,0,0,0,.442,1.071l-1.024,2.157a1.305,1.305,0,0,0,.152,1.369,13.194,13.194,0,0,0,2.254,2.255,1.314,1.314,0,0,0,1.37.152l2.158-1.024a10.471,10.471,0,0,0,1.07.441l.8,2.252a1.314,1.314,0,0,0,1.078.863,12.664,12.664,0,0,0,1.59.107,13.144,13.144,0,0,0,1.59-.1,1.31,1.31,0,0,0,1.078-.863l.8-2.252a10.63,10.63,0,0,0,1.071-.442l2.157,1.024a1.3,1.3,0,0,0,1.369-.152,13.2,13.2,0,0,0,2.255-2.254,1.313,1.313,0,0,0,.152-1.37l-1.024-2.158a10.47,10.47,0,0,0,.44-1.07l2.252-.8a1.314,1.314,0,0,0,.863-1.078,12.662,12.662,0,0,0,.108-1.59,13.141,13.141,0,0,0-.1-1.59,1.311,1.311,0,0,0-.863-1.079Zm-1.668,3.148-2.078.738a1.311,1.311,0,0,0-.825.885,7.8,7.8,0,0,1-.728,1.766,1.314,1.314,0,0,0-.043,1.207l.941,1.984q-.326.358-.683.683l-1.984-.941a1.315,1.315,0,0,0-1.207.043,7.805,7.805,0,0,1-1.765.728,1.316,1.316,0,0,0-.886.825l-.738,2.078a8.955,8.955,0,0,1-.957,0l-.738-2.078a1.311,1.311,0,0,0-.885-.825,7.8,7.8,0,0,1-1.766-.728,1.322,1.322,0,0,0-1.207-.043l-1.984.941q-.358-.326-.683-.683l.941-1.984a1.31,1.31,0,0,0-.043-1.207,7.807,7.807,0,0,1-.728-1.765,1.316,1.316,0,0,0-.825-.886l-2.078-.738c-.01-.159-.016-.317-.016-.479s.005-.321.013-.479l2.078-.739a1.306,1.306,0,0,0,.823-.885,7.841,7.841,0,0,1,.729-1.766,1.314,1.314,0,0,0,.043-1.207l-.941-1.984q.326-.358.683-.683l1.984.941a1.306,1.306,0,0,0,1.207-.043,7.806,7.806,0,0,1,1.765-.728,1.316,1.316,0,0,0,.886-.825l.738-2.078a8.955,8.955,0,0,1,.957,0l.738,2.078a1.311,1.311,0,0,0,.885.825,7.8,7.8,0,0,1,1.766.728,1.307,1.307,0,0,0,1.207.043l1.984-.941q.358.326.683.683l-.941,1.984a1.31,1.31,0,0,0,.043,1.207,7.805,7.805,0,0,1,.728,1.765,1.316,1.316,0,0,0,.825.886l2.078.738c.01.16.016.319.016.48s-.005.32-.013.479Z" transform="translate(-283.558 -183.229)"/><path class="b" d="M102.422,248a14.422,14.422,0,1,0,14.422,14.422A14.439,14.439,0,0,0,102.422,248Zm0,26.221a11.8,11.8,0,1,1,11.8-11.8A11.813,11.813,0,0,1,102.422,274.221Z" transform="translate(-76.201 -209.98)"/><path class="b" d="M16.176,122.163l2.014,1.679a31.4,31.4,0,0,1,24.178-11.328c.667,0,1.333.038,2,.08l-1.615,1.615,1.854,1.854,3.933-3.933a1.31,1.31,0,0,0,0-1.854l-3.933-3.933L42.752,108.2l1.782,1.782c-.721-.046-1.443-.087-2.166-.087a34.018,34.018,0,0,0-26.192,12.27Z" transform="translate(-16.147 -91.539)"/><path class="b" d="M310.555,72a6.555,6.555,0,1,0,6.555,6.555A6.562,6.562,0,0,0,310.555,72Zm0,10.488a3.933,3.933,0,1,1,3.933-3.933A3.938,3.938,0,0,1,310.555,82.488Z" transform="translate(-256.802 -62.823)"/><path class="b" d="M389.244,264a5.244,5.244,0,1,0,5.244,5.244A5.25,5.25,0,0,0,389.244,264Zm0,7.866a2.622,2.622,0,1,1,2.622-2.622A2.625,2.625,0,0,1,389.244,271.866Z" transform="translate(-323.691 -223.358)"/><path class="b" d="M441.561,33.337l-6.555-1.311a1.308,1.308,0,0,0-1.543,1.028l-1.311,6.555,2.571.515.707-3.529a19.672,19.672,0,0,1,1.942,8.515A19.455,19.455,0,0,1,433.058,57.4l2.047,1.64a22.306,22.306,0,0,0,2.587-23.8l3.356.671Z" transform="translate(-363.952 -29.378)"/></g></g></svg>