<svg xmlns="http://www.w3.org/2000/svg" width="73.333" height="66.208" viewBox="0 0 73.333 66.208"><defs><style>.a{fill:#d84444;}.b{fill:#4b4b4b;}.c{fill:#fff;}</style></defs><g transform="translate(0 -24)"><path class="a" d="M179,98.476l8.09-3.992,8.09,4v7.73a6.843,6.843,0,0,1-2.652,5.073l-5.453,3.729-5.431-3.729A6.84,6.84,0,0,1,179,106.217Z" transform="translate(-152.428 -60.021)"/><path class="b" d="M65.6,24H18.18a7.435,7.435,0,0,0-7.464,7.381l-.306,41.755H1.157A1.2,1.2,0,0,0,0,74.372v5.747a10.069,10.069,0,0,0,9.5,10.02v.069H49.433V90.13c.3.012.477.078.681.078h.028a10.038,10.038,0,0,0,9.979-10.09V43.6H72.176a1.216,1.216,0,0,0,1.157-1.249V31.8A7.789,7.789,0,0,0,65.6,24ZM10.02,87.832h-.008a7.7,7.7,0,0,1-7.637-7.715V75.511H40.081V80.1a10.051,10.051,0,0,0,2.934,7.132,4.278,4.278,0,0,1,.625.6Zm47.726-7.716a7.668,7.668,0,0,1-7.606,7.716h-.024a7.716,7.716,0,0,1-7.66-7.734V74.372a1.23,1.23,0,0,0-1.188-1.236H12.786l.306-41.747a5.059,5.059,0,0,1,5.088-5.014H59.993a8.1,8.1,0,0,0-2.247,5.459ZM70.958,31.823v9.4H60.121V31.832a5.5,5.5,0,0,1,5.444-5.457H65.6a5.413,5.413,0,0,1,5.36,5.439Z"/><path class="b" d="M166.687,98.853l6.123,4.186a1.169,1.169,0,0,0,1.327,0l6.1-4.185a9.224,9.224,0,0,0,3.687-7.036v-8.47a1.161,1.161,0,0,0-.633-1.066L173.972,77.7a1.167,1.167,0,0,0-1.038,0l-9.305,4.573A1.159,1.159,0,0,0,163,83.336v8.482A9.224,9.224,0,0,0,166.687,98.853Zm-1.315-14.776,8.09-3.992,8.09,4v7.73a6.843,6.843,0,0,1-2.652,5.073l-5.453,3.729-5.431-3.729a6.84,6.84,0,0,1-2.645-5.073Z" transform="translate(-138.8 -45.621)"/><path class="c" d="M204.277,146.88a1.186,1.186,0,0,0,.841.356h0a1.189,1.189,0,0,0,.84-.351l4.724-4.726A1.188,1.188,0,1,0,209,140.478l-3.88,3.88-1.551-1.566a1.188,1.188,0,1,0-1.688,1.673Z" transform="translate(-171.623 -98.891)"/><path class="b" d="M162.69,272h-28.5a1.188,1.188,0,1,0,0,2.375h28.5a1.188,1.188,0,0,0,0-2.375Z" transform="translate(-113.256 -211.185)"/><path class="b" d="M162.69,309h-28.5a1.188,1.188,0,1,0,0,2.375h28.5a1.188,1.188,0,1,0,0-2.375Z" transform="translate(-113.256 -242.692)"/></g></svg>