<svg xmlns="http://www.w3.org/2000/svg" xmlns:xlink="http://www.w3.org/1999/xlink" width="49.333" height="66.47" viewBox="0 0 49.333 66.47"><defs><style>.a{fill:#4b4b4b;}.b{fill:url(#a);}</style><linearGradient id="a" x1="0.5" x2="0.5" y2="1" gradientUnits="objectBoundingBox"><stop offset="0" stop-color="#e23748"/><stop offset="1" stop-color="#950e1c"/></linearGradient></defs><g transform="translate(-66 -0.001)"><path class="a" d="M152.35,76.64a1.3,1.3,0,0,0-1.078-1.279A36.339,36.339,0,0,1,134.978,68.1a1.3,1.3,0,0,0-1.608,0,36.339,36.339,0,0,1-16.293,7.261A1.3,1.3,0,0,0,116,76.64v7.055c0,13.473,6.717,26.562,17.44,33.936a1.3,1.3,0,0,0,1.471,0c10.711-7.366,17.44-20.448,17.44-33.936Zm-2.6,7.054a38.994,38.994,0,0,1-15.579,31.276A38.994,38.994,0,0,1,118.6,83.695V77.718a38.969,38.969,0,0,0,15.579-6.963,38.969,38.969,0,0,0,15.579,6.963Z" transform="translate(-43.508 -59.016)"/><ellipse class="a" cx="1" cy="1.5" rx="1" ry="1.5" transform="translate(106.667 46.236)"/><path class="a" d="M114.035,10.387a29.847,29.847,0,0,1-21.244-8.8L91.585.381a1.3,1.3,0,0,0-1.836,0L88.542,1.587a29.847,29.847,0,0,1-21.244,8.8,1.3,1.3,0,0,0-1.3,1.3V24.679c0,16.94,9.171,33.37,24.036,41.628a1.3,1.3,0,0,0,1.261,0,45.369,45.369,0,0,0,14.411-12.7,1.3,1.3,0,0,0-2.083-1.55A42.86,42.86,0,0,1,90.667,63.68c-13.431-7.777-22.07-23-22.07-39V12.958A32.623,32.623,0,0,0,90.378,3.423l.288-.288.288.288a32.633,32.633,0,0,0,21.782,9.535V24.679a45.517,45.517,0,0,1-3.514,17.508,1.3,1.3,0,0,0,2.4.994,48.1,48.1,0,0,0,3.712-18.5V11.685A1.3,1.3,0,0,0,114.035,10.387Z"/><path class="b" d="M167.158,103.362a38.994,38.994,0,0,1-15.579,31.276A38.994,38.994,0,0,1,136,103.362V97.386a38.969,38.969,0,0,0,15.579-6.963,38.969,38.969,0,0,0,15.579,6.963Z" transform="translate(-60.912 -78.683)"/></g></svg>