<svg xmlns="http://www.w3.org/2000/svg" xmlns:xlink="http://www.w3.org/1999/xlink" width="1413.958" height="401.184" viewBox="0 0 1413.958 401.184"><defs><style>.a,.c{fill:#2b2c3a;}.a{font-size:17px;}.a,.f,.g{font-family:Poppins-Regular, Poppins;}.b{fill:none;stroke:#2b2c3a;stroke-width:3px;stroke-dasharray:10;}.d{fill:#7647bf;}.e{fill:url(#a);}.f,.g,.h{fill:#fff;}.f{font-size:22px;}.g{font-size:20px;}.i{fill:#543e36;}.j{fill:#ecc19c;}.k{fill:#ff5317;}.l{fill:#7a6d79;}.m{fill:#685e68;}.n{fill:#ffc400;}.o{fill:#141720;}.p{fill:#2d75bb;}.q{fill:#fcec97;}.r{fill:#d3843d;}.s{fill:#f9bb4b;}.t{fill:#e4544f;}.u{fill:#7fc99d;}.v{clip-path:url(#c);}.w{fill:#c7d4e2;}.x{fill:#1a1a1a;}.y{fill:#435363;}.z{fill:#e7ecf2;}.aa{fill:#aab2bd;}.ab{fill:#f0efeb;}.ac{fill:#838f9b;}.ad{fill:#fcd770;}.ae{fill:#ef7385;}.af{fill:#69d6f4;}.ag{fill:#e6e9ed;}.ah{fill:#3d3d3d;}.ai{fill:#ccd1d9;}.aj{fill:#0089ef;}.ak{fill:#6dc9f7;}.al{fill:#3a2c60;}.am{fill:#63559b;}.an{fill:#483c78;}.ao{fill:#fbf4cd;}.ap{fill:#333;}.aq{fill:#e24242;}.ar{fill:#ffc94e;}.as{fill:#f2ae40;}.at{fill:#c13636;}.au{fill:#2b2b2b;}.av{fill:#cad6dd;}.aw{fill:#a6b3bd;}</style><linearGradient id="a" x1="0.5" x2="0.5" y2="1" gradientUnits="objectBoundingBox"><stop offset="0" stop-color="#8455ce"/><stop offset="1" stop-color="#44168d"/></linearGradient><clipPath id="c"><circle cx="35.765" cy="35.765" r="35.765"/></clipPath></defs><g transform="translate(-290.542 -4125.816)"><text class="a" transform="translate(1008 4310)"><tspan x="0" y="0">&lt;Placeholder Images&gt;</tspan></text><text class="a" transform="translate(1194 4333)"><tspan x="-339.575" y="0">&lt;Artwork will contain LOB representative </tspan><tspan x="-169.133" y="16">refer Concept Note&gt;</tspan></text><path class="b" d="M252.788,0H0" transform="translate(476.124 4398.584) rotate(-90)"/><path class="b" d="M252.907,0H0" transform="translate(1676.252 4450.809) rotate(-90)"/><path class="b" d="M162.743,0H0" transform="translate(661.006 4454.711)"/><path class="b" d="M74.045,0H0" transform="translate(717.913 4191.386)"/><path class="b" d="M74.045,0H0" transform="translate(1602.511 4191.386)"/><path class="b" d="M74.045,0H0" transform="translate(1602.511 4454.461)"/><path class="b" d="M236.719,0H0" transform="translate(468.607 4138.136)"/><path class="b" d="M60.412,0H0" transform="translate(712.812 4132.231) rotate(90)"/><path class="b" d="M162.743,0H0" transform="translate(1098.139 4454.461)"/><path class="b" d="M162.743,0H0" transform="translate(1066.348 4191.386)"/><path class="c" d="M16,134.354l14.711-11.177L16,112H38.546l14.711,11.177L38.546,134.354Z" transform="translate(691.456 4331.382)"/><path class="d" d="M23.787,120.838H1.242A1.242,1.242,0,0,1,.5,118.6L13.909,108.42.5,98.236A1.242,1.242,0,0,1,1.242,96H23.787a1.242,1.242,0,0,1,.745.248l14.711,11.177a1.242,1.242,0,0,1,0,1.987L24.537,120.59A1.242,1.242,0,0,1,23.787,120.838ZM4.928,118.354H23.369l13.074-9.935L23.369,98.485H4.928L16.7,107.426a1.242,1.242,0,0,1,0,1.987Z" transform="translate(706.215 4346.141)"/><path class="d" d="M16,134.354l14.711-11.177L16,112H38.546l14.711,11.177L38.546,134.354Z" transform="translate(1144.484 4331.382)"/><path class="c" d="M23.787,120.838H1.242A1.242,1.242,0,0,1,.5,118.6L13.909,108.42.5,98.236A1.242,1.242,0,0,1,1.242,96H23.787a1.242,1.242,0,0,1,.745.248l14.711,11.177a1.242,1.242,0,0,1,0,1.987L24.537,120.59A1.242,1.242,0,0,1,23.787,120.838ZM4.928,118.354H23.369l13.074-9.935L23.369,98.485H4.928L16.7,107.426a1.242,1.242,0,0,1,0,1.987Z" transform="translate(1159.243 4346.141)"/><path class="c" d="M16,134.354l14.711-11.177L16,112H38.546l14.711,11.177L38.546,134.354Z" transform="translate(1615.793 4331.382)"/><path class="d" d="M23.787,120.838H1.242A1.242,1.242,0,0,1,.5,118.6L13.909,108.42.5,98.236A1.242,1.242,0,0,1,1.242,96H23.787a1.242,1.242,0,0,1,.745.248l14.711,11.177a1.242,1.242,0,0,1,0,1.987L24.537,120.59A1.242,1.242,0,0,1,23.787,120.838ZM4.928,118.354H23.369l13.074-9.935L23.369,98.485H4.928L16.7,107.426a1.242,1.242,0,0,1,0,1.987Z" transform="translate(1630.552 4346.141)"/><path class="d" d="M53.256,134.354,38.546,123.178,53.256,112H30.712L16,123.178l14.711,11.177Z" transform="translate(1604.666 4068.308)"/><path class="c" d="M15.953,120.838H38.5a1.242,1.242,0,0,0,.745-2.235L25.831,108.42,39.243,98.236A1.242,1.242,0,0,0,38.5,96H15.953a1.242,1.242,0,0,0-.745.248L.5,107.426a1.242,1.242,0,0,0,0,1.987L15.2,120.59A1.242,1.242,0,0,0,15.953,120.838Zm18.859-2.484H16.37L3.3,108.42,16.37,98.485H34.812l-11.775,8.941a1.242,1.242,0,0,0,0,1.987Z" transform="translate(1619.425 4083.066)"/><path class="c" d="M53.256,134.354,38.546,123.178,53.256,112H30.712L16,123.178l14.711,11.177Z" transform="translate(1139.716 4068.308)"/><path class="d" d="M15.953,120.838H38.5a1.242,1.242,0,0,0,.745-2.235L25.831,108.42,39.243,98.236A1.242,1.242,0,0,0,38.5,96H15.953a1.242,1.242,0,0,0-.745.248L.5,107.426a1.242,1.242,0,0,0,0,1.987L15.2,120.59A1.242,1.242,0,0,0,15.953,120.838Zm18.859-2.484H16.37L3.3,108.42,16.37,98.485H34.812l-11.775,8.941a1.242,1.242,0,0,0,0,1.987Z" transform="translate(1154.475 4083.066)"/><path class="d" d="M53.256,134.354,38.546,123.178,53.256,112H30.712L16,123.178l14.711,11.177Z" transform="translate(702.583 4068.308)"/><path class="c" d="M15.953,120.838H38.5a1.242,1.242,0,0,0,.745-2.235L25.831,108.42,39.243,98.236A1.242,1.242,0,0,0,38.5,96H15.953a1.242,1.242,0,0,0-.745.248L.5,107.426a1.242,1.242,0,0,0,0,1.987L15.2,120.59A1.242,1.242,0,0,0,15.953,120.838Zm18.859-2.484H16.37L3.3,108.42,16.37,98.485H34.812l-11.775,8.941a1.242,1.242,0,0,0,0,1.987Z" transform="translate(717.342 4083.066)"/><path class="c" d="M53.256,134.354,38.546,123.178,53.256,112H30.712L16,123.178l14.711,11.177Z" transform="translate(569.059 4015.057)"/><path class="d" d="M15.953,120.838H38.5a1.242,1.242,0,0,0,.745-2.235L25.831,108.42,39.243,98.236A1.242,1.242,0,0,0,38.5,96H15.953a1.242,1.242,0,0,0-.745.248L.5,107.426a1.242,1.242,0,0,0,0,1.987L15.2,120.59A1.242,1.242,0,0,0,15.953,120.838Zm18.859-2.484H16.37L3.3,108.42,16.37,98.485H34.812l-11.775,8.941a1.242,1.242,0,0,0,0,1.987Z" transform="translate(583.818 4029.815)"/><path class="d" d="M37.255,0,22.545,11.177,37.255,22.353H14.711L0,11.177,14.711,0Z" transform="translate(465.345 4298.335) rotate(-90)"/><path class="c" d="M15.953,0H38.5a1.242,1.242,0,0,1,.745,2.235L25.831,12.419,39.243,22.6a1.242,1.242,0,0,1-.745,2.235H15.953a1.242,1.242,0,0,1-.745-.248L.5,13.412a1.242,1.242,0,0,1,0-1.987L15.2.248A1.242,1.242,0,0,1,15.953,0ZM34.812,2.484H16.37L3.3,12.419,16.37,22.353H34.812L23.036,13.412a1.242,1.242,0,0,1,0-1.987Z" transform="translate(464.103 4299.577) rotate(-90)"/><rect class="e" width="317" height="71" transform="translate(298 4172)"/><text class="f" transform="translate(334 4204)"><tspan x="0" y="0">The Customer ticket </tspan><tspan x="0" y="24">arrives in German</tspan></text><rect class="c" width="377" height="144" transform="translate(298 4383)"/><g transform="translate(320.743 4403.197)"><text class="g" transform="translate(0.257 20.803)"><tspan x="0" y="0">The Machine translates</tspan><tspan x="0" y="25">The ticket into English</tspan><tspan x="0" y="50">and sends it to an </tspan><tspan x="0" y="75">English speaking agent</tspan></text><g transform="translate(259.663 19.87)"><g transform="translate(0 0)"><path class="h" d="M3.806,11.924a11.923,11.923,0,1,1,19.76,8.986.518.518,0,0,0,.076.836l2.247,1.329a.415.415,0,0,1-.211.772l-10.174,0a11.923,11.923,0,0,1-11.7-11.921Z" transform="translate(-3.806 0)"/></g><g transform="translate(16.83 0)"><g transform="translate(0 0)"><path class="i" d="M194.806,43.279H167.757a7.977,7.977,0,0,1-6.138-13.072l.24-.289A12.759,12.759,0,0,0,164.8,21.77V16.554a16.554,16.554,0,0,1,33.107,0v5.392a12.759,12.759,0,0,0,3,8.219A7.977,7.977,0,0,1,194.806,43.279Z" transform="translate(-153.539 0)"/><path class="h" d="M173.135,261.349v17.882H117.65V261.483a9.985,9.985,0,0,1,6.11-9.2l8.957-3.894,3.016-1.311a6.267,6.267,0,0,0,3.768-5.748V240.17h11.781v1.1a6.268,6.268,0,0,0,3.8,5.76l12.115,5.193A9.983,9.983,0,0,1,173.135,261.349Z" transform="translate(-117.65 -204.664)"/><path class="j" d="M216.193,252.652a42.906,42.906,0,0,0,25.352-.238l1.461-3.478-4.448-1.906a6.267,6.267,0,0,1-3.8-5.76v-1.1H222.979v1.157a6.267,6.267,0,0,1-3.768,5.747l-3.6,1.566Z" transform="translate(-201.126 -204.666)"/><g transform="translate(0 43.645)"><path class="k" d="M400.181,299.138l-9.126-3.912h0v30.921H406.12V308.266A9.984,9.984,0,0,0,400.181,299.138Z" transform="translate(-350.635 -295.226)"/><path class="k" d="M132.717,295.75v30.844H117.65V308.847a9.985,9.985,0,0,1,6.11-9.2Z" transform="translate(-117.65 -295.673)"/></g></g><g transform="translate(11.262)"><path class="j" d="M272.275,246.639a9.908,9.908,0,0,0,3.824-.763,6.266,6.266,0,0,1-2.017-4.605v-1.1H262.3v1.157a6.256,6.256,0,0,1-.549,2.562,9.9,9.9,0,0,0,6.856,2.747h3.667Z" transform="translate(-251.71 -204.667)"/><path class="j" d="M249.211,83.012v9.746a9.941,9.941,0,0,1-9.941,9.941H235.6a9.941,9.941,0,0,1-9.941-9.941V83.012a6.467,6.467,0,0,1,6.467-6.467h10.615a6.467,6.467,0,0,1,6.467,6.467Z" transform="translate(-220.956 -65.229)"/><path class="l" d="M338.648,154.593c0,.013-.01.026-.014.04a10.49,10.49,0,0,1-3.582,5.343,10.017,10.017,0,0,1-3.6,1.758,1.125,1.125,0,1,0,.571,2.177,12.261,12.261,0,0,0,4.4-2.152,12.052,12.052,0,0,0,2.215-2.228c0-.087.007-.174.007-.262v-4.676Z" transform="translate(-310.392 -131.739)"/><path class="m" d="M300.221,198.884h-2.637a2.173,2.173,0,0,1,0-4.347h2.637a2.173,2.173,0,0,1,0,4.347Z" transform="translate(-280.393 -165.778)"/><path class="i" d="M321.1,22.25c.253-3.184,3.3-5.3,6.219-6.392a16.544,16.544,0,0,1,8.058,14.209v1.138c-.267.056-.532.105-.795.144a13.4,13.4,0,0,1-3.911,0C324.648,30.547,320.8,26.1,321.1,22.25Z" transform="translate(-300.684 -13.514)"/><path class="i" d="M210.382,0a16.479,16.479,0,0,1,9.958,3.33,29.527,29.527,0,0,1-10.509,10.682,29.294,29.294,0,0,1-11.151,3.824h-4.852V16.554A16.553,16.553,0,0,1,210.382,0Z" transform="translate(-193.828)"/></g></g><path class="n" d="M211.812,382.015H175.791L173.8,363.273a2.251,2.251,0,0,1,2.238-2.488h35.518a2.251,2.251,0,0,1,2.238,2.488Z" transform="translate(-148.662 -307.448)"/><circle class="h" cx="3.151" cy="3.151" r="3.151" transform="translate(41.989 60.801)"/><g transform="translate(6.297 10.798)"><circle class="o" cx="1.125" cy="1.125" r="1.125"/><circle class="o" cx="1.125" cy="1.125" r="1.125" transform="translate(4.501)"/><circle class="o" cx="1.125" cy="1.125" r="1.125" transform="translate(9.002)"/></g></g></g><rect class="e" width="335" height="121" transform="translate(792 4394)"/><text class="f" transform="translate(806 4438)"><tspan x="0" y="0">After future research, </tspan><tspan x="0" y="24">the customer&apos;s query </tspan><tspan x="0" y="48">is answered in English</tspan></text><g transform="translate(1071.022 4431.81)"><path class="p" d="M3,45.918a3.179,3.179,0,0,1,3.179-3.179h38.15V3H7.769A4.769,4.769,0,0,0,3,7.769Z" transform="translate(-2.204 -3)"/><path class="q" d="M15,9H42.023V23.306H15Z" transform="translate(-4.666 -4.231)"/><path class="q" d="M6.179,53h38.15v6.358H6.179a3.179,3.179,0,1,1,0-6.358Z" transform="translate(-2.204 -13.261)"/><path class="r" d="M6,56h4.769v1.59H6Z" transform="translate(-2.82 -13.876)"/><path class="r" d="M20,56H47.818v1.59H20Z" transform="translate(-5.692 -13.876)"/><path class="r" d="M3,45.918a3.179,3.179,0,0,1,3.179-3.179h1.59V3A4.769,4.769,0,0,0,3,7.769Z" transform="translate(-2.204 -3)"/><path class="q" d="M3.589,46.179H2A3.089,3.089,0,0,1,5.179,43v1.59a1.5,1.5,0,0,0-1.59,1.59Z" transform="translate(-1.998 -11.208)"/><path class="q" d="M3.589,41.179H2A3.089,3.089,0,0,1,5.179,38v1.59a1.5,1.5,0,0,0-1.59,1.59Z" transform="translate(-1.998 -10.182)"/><path class="q" d="M3.589,15.179H2A3.089,3.089,0,0,1,5.179,12v1.59a1.5,1.5,0,0,0-1.59,1.59Z" transform="translate(-1.998 -4.847)"/><path class="r" d="M25.983,21.746,23.758,13.59H21.793l-2.225,8.157-1.534-.418,2.384-8.743A.8.8,0,0,1,21.186,12h3.179a.8.8,0,0,1,.767.586l2.384,8.742Z" transform="translate(-5.289 -4.847)"/><path class="r" d="M21,18h5.564v1.59H21Z" transform="translate(-5.898 -6.078)"/><path class="p" d="M31,17h3.974v1.59H31Z" transform="translate(-7.95 -5.873)"/><path class="r" d="M44.153,21.537H37.795a.795.795,0,0,1-.651-1.25l4.688-6.7H37V12h6.358a.795.795,0,0,1,.651,1.25l-4.688,6.7h4.832Z" transform="translate(-9.181 -4.847)"/><path class="r" d="M20,31H39.075v3.179H20Z" transform="translate(-5.692 -8.746)"/><g transform="translate(10.334 28.612)"><path class="s" d="M17,39h3.179v1.59H17Z" transform="translate(-15.41 -39)"/><path class="s" d="M23,39H37.306v1.59H23Z" transform="translate(-16.642 -39)"/><path class="s" d="M43,39h3.179v1.59H43Z" transform="translate(-20.746 -39)"/><path class="s" d="M15,43H42.023v1.59H15Z" transform="translate(-15 -39.821)"/><path class="s" d="M15,47H42.023v1.59H15Z" transform="translate(-15 -40.642)"/></g><path class="t" d="M55,8h4.769v3.179H55Z" transform="translate(-12.875 -4.026)"/><path class="u" d="M55,16h3.179v3.179H55Z" transform="translate(-12.875 -5.668)"/><path class="t" d="M55,24h4.769v3.179H55Z" transform="translate(-12.875 -7.309)"/><path class="u" d="M55,32h3.179v3.179H55Z" transform="translate(-12.875 -8.951)"/><path class="t" d="M18.358,57.769l-3.179-1.59L12,57.769V53h6.358Z" transform="translate(-4.051 -13.261)"/><path d="M24.365,12H21.186a.8.8,0,0,0-.767.586l-2.384,8.742,1.534.418.924-3.388h4.567l.924,3.388,1.534-.418-2.384-8.743A.8.8,0,0,0,24.365,12Zm-3.439,4.769.867-3.179h1.965l.867,3.179Z" transform="translate(-5.289 -4.847)"/><path d="M31,17h3.974v1.59H31Z" transform="translate(-7.95 -5.873)"/><path d="M44.009,13.25A.795.795,0,0,0,43.358,12H37v1.59h4.832l-4.689,6.7a.795.795,0,0,0,.652,1.25h6.358v-1.59H39.321Z" transform="translate(-9.181 -4.847)"/><path class="h" d="M17,39h3.179v1.59H17Z" transform="translate(-5.077 -10.388)"/><path class="h" d="M23,39H37.306v1.59H23Z" transform="translate(-6.308 -10.388)"/><path class="h" d="M43,39h3.179v1.59H43Z" transform="translate(-10.412 -10.388)"/><path class="h" d="M15,43H42.023v1.59H15Z" transform="translate(-4.666 -11.209)"/><path class="h" d="M15,47H42.023v1.59H15Z" transform="translate(-4.666 -12.029)"/></g><rect class="c" width="377" height="121" transform="translate(768 4131)"/><g transform="translate(776.812 4156.018)"><circle class="c" cx="35.765" cy="35.765" r="35.765" transform="translate(0 0)"/><g class="v" transform="translate(0 0)"><path class="j" d="M84.045,26.842V38.728c0,.172,0,.344-.008.516-.008.356-.027.711-.059,1.063-.008.121-.02.242-.035.363-.051.5-.121,1-.211,1.493-.032.164-.063.324-.1.485a.683.683,0,0,1-.019.1c-.032.164-.071.325-.109.485-.016.086-.039.172-.059.258s-.039.149-.062.223c-.082.32-.176.633-.274.946-.047.149-.094.293-.144.442,0,.016-.012.031-.016.047l-.141.4c-.016.039-.031.078-.047.121-.047.125-.094.25-.144.375-.059.152-.121.3-.184.45-.055.133-.113.266-.172.4-.008.024-.02.043-.027.066-.067.141-.129.282-.2.418s-.137.289-.211.434c-.141.285-.293.571-.446.848l-.211.375a22.976,22.976,0,0,1-2,2.908c-.1.129-.2.254-.3.375-.145.176-.294.348-.442.516-.133.149-.266.3-.4.442-.375.4-.758.786-1.149,1.145-.078.078-.16.149-.243.223-.133.121-.265.238-.4.352-.105.094-.215.184-.325.274-.281.23-.563.453-.848.66-.117.09-.239.176-.36.258-.2.141-.395.274-.594.4-.109.074-.223.144-.336.211-.4.246-.8.473-1.2.668-.1.051-.2.1-.293.144s-.2.094-.3.141q-.194.088-.387.164a1.215,1.215,0,0,1-.152.059c-.152.063-.309.121-.461.172-.192.07-.387.129-.578.184-.133.039-.27.074-.4.105a.054.054,0,0,1-.027.008c-.133.031-.266.063-.4.086a.927.927,0,0,1-.105.019c-.109.019-.219.039-.328.051-.156.024-.313.043-.469.051a1.13,1.13,0,0,1-.16.012c-.125.008-.25.012-.371.012h-.011q-.182,0-.363-.012a.84.84,0,0,1-.141-.012c-.109,0-.223-.016-.34-.032a.485.485,0,0,1-.074-.008c-.145-.019-.289-.043-.438-.07-.125-.019-.25-.047-.379-.078a11.208,11.208,0,0,1-2.052-.692,14.959,14.959,0,0,1-1.794-.946c-.3-.184-.6-.379-.9-.586-.149-.106-.3-.211-.446-.321q-.7-.51-1.38-1.11c-.125-.113-.25-.227-.375-.344s-.25-.23-.371-.344q-.458-.44-.892-.915-.17-.181-.34-.375c-.313-.352-.617-.715-.907-1.095-.114-.137-.219-.278-.325-.418q-.592-.785-1.122-1.638c-.094-.152-.187-.309-.277-.461-.109-.184-.215-.371-.32-.559a21.313,21.313,0,0,1-1.063-2.189c-.047-.109-.094-.219-.133-.328-.063-.141-.117-.286-.168-.426q-.117-.311-.223-.622c-.07-.207-.136-.418-.2-.629s-.121-.406-.176-.614-.121-.442-.172-.668c0-.024-.012-.047-.016-.07q-.111-.469-.2-.95c-.078-.422-.141-.852-.188-1.286-.019-.137-.031-.274-.043-.411s-.027-.286-.035-.43c-.02-.262-.032-.528-.04-.793,0-.172-.008-.344-.008-.516V26.842a15.915,15.915,0,0,1,15.9-15.913h.016a16.087,16.087,0,0,1,3.525.391A15.93,15.93,0,0,1,84.045,26.842Z" transform="translate(-32.363 -6.774)"/></g><g class="v" transform="translate(0 0)"><path class="j" d="M81.007,152.239v0H39.538v0a20.63,20.63,0,0,1,1.106-6.7q.193-.569.422-1.126v0c.152-.371.313-.735.484-1.095a20.524,20.524,0,0,1,2.525-4.026c.25-.309.5-.61.766-.9.129-.149.266-.293.4-.438s.274-.281.414-.422A20.634,20.634,0,0,1,47.9,135.6c.395-.293.793-.567,1.208-.833s.836-.512,1.266-.747a.025.025,0,0,1,.016-.008c.168-.09.332-.187.5-.289.325-.2.645-.406.95-.633.156-.109.3-.223.453-.344.352-.281.692-.582,1.016-.9.105-.105.211-.211.317-.32.219-.227.426-.465.625-.708.1-.117.2-.238.286-.36s.184-.246.274-.371a13.007,13.007,0,0,0,2.431-7.6l3.022.016,3.107.016a13.084,13.084,0,0,0,4.913,10.233c.145.117.289.231.434.336s.285.207.434.3c.032.024.059.043.09.063.141.094.281.188.43.274s.325.2.489.286a.191.191,0,0,1,.07.035c.344.192.684.391,1.017.6.16.1.32.2.477.313q.487.316.95.668a0,0,0,0,0,0,0h0a20.929,20.929,0,0,1,2.236,1.931A20.631,20.631,0,0,1,81.007,152.239Z" transform="translate(-24.506 -75.921)"/></g><g class="v" transform="translate(0 0)"><path class="w" d="M81.008,168.957H39.539a20.638,20.638,0,0,1,1.106-6.7q.193-.569.422-1.126s0,0,0,0c.149-.371.313-.735.484-1.094a20.524,20.524,0,0,1,2.525-4.026c.25-.309.5-.61.766-.9.129-.149.266-.293.4-.438s.274-.281.414-.422a20.592,20.592,0,0,1,2.24-1.931c.395-.293.793-.567,1.208-.833s.836-.516,1.266-.75a.014.014,0,0,1,.016,0v0c.168-.094.332-.188.5-.286a12.081,12.081,0,0,0,1.4-.985l.008.008a11.141,11.141,0,0,0,7.97,3.365h.031a11.165,11.165,0,0,0,7.99-3.362l0,0a10.46,10.46,0,0,0,.864.645c.031.023.059.043.09.062.141.094.285.184.43.274.16.1.325.192.489.281a.377.377,0,0,1,.07.035c.344.192.684.391,1.017.6.16.1.32.2.477.313.325.207.641.434.95.668h.008a20.762,20.762,0,0,1,8.329,16.609Z" transform="translate(-24.507 -92.638)"/></g><g class="v" transform="translate(0 0)"><path class="i" d="M84.044,84.049c0,.172,0,.344-.008.516-.008.356-.027.711-.059,1.063-.008.121-.02.242-.035.363-.051.5-.121,1-.211,1.493-.032.164-.063.324-.1.485a.683.683,0,0,1-.019.1c-.032.164-.071.325-.109.485-.02.094-.043.184-.071.274a1.752,1.752,0,0,1-.051.207c-.083.32-.176.633-.274.946-.047.149-.094.293-.144.442,0,.016-.012.031-.016.047l-.141.4c-.016.039-.031.078-.047.121-.047.125-.094.25-.144.375-.059.152-.121.3-.184.45-.055.133-.113.266-.172.4-.008.024-.02.043-.027.066-.067.141-.129.282-.2.418s-.137.289-.211.434c-.141.285-.293.571-.446.848l-.211.375a22.977,22.977,0,0,1-2,2.908c-.1.129-.2.254-.3.375-.145.176-.294.348-.442.516-.133.149-.266.3-.4.442-.375.4-.758.786-1.149,1.145-.078.078-.16.149-.243.223-.133.121-.265.238-.4.352-.105.094-.215.184-.325.274-.281.23-.563.453-.848.66-.117.09-.239.176-.36.258-.2.141-.395.274-.594.4-.109.074-.223.144-.336.211-.4.246-.8.473-1.2.668-.1.051-.2.1-.293.144s-.2.094-.3.141q-.194.088-.387.164a1.215,1.215,0,0,1-.152.059c-.152.063-.309.121-.461.172-.192.07-.387.129-.578.184-.133.039-.27.074-.4.105a.054.054,0,0,1-.027.008c-.133.031-.266.063-.4.086a.932.932,0,0,1-.105.019c-.109.019-.219.039-.328.051-.156.024-.313.043-.469.051a1.131,1.131,0,0,1-.16.012c-.125.008-.25.012-.371.012h-.011q-.182,0-.363-.012a.84.84,0,0,1-.141-.012c-.109,0-.223-.016-.34-.032a.486.486,0,0,1-.074-.008c-.145-.019-.289-.043-.438-.07-.125-.019-.25-.047-.379-.078a11.209,11.209,0,0,1-2.052-.692,14.959,14.959,0,0,1-1.794-.946c-.3-.18-.6-.375-.9-.586-.149-.106-.3-.211-.446-.32q-.7-.51-1.38-1.11c-.125-.113-.25-.227-.375-.344s-.25-.23-.371-.344q-.458-.44-.892-.915-.17-.181-.34-.375c-.312-.352-.617-.715-.907-1.095-.114-.137-.219-.278-.325-.418q-.592-.785-1.122-1.638c-.094-.152-.187-.309-.277-.461-.109-.184-.215-.371-.32-.559a21.315,21.315,0,0,1-1.063-2.189c-.047-.109-.094-.219-.133-.328-.063-.141-.117-.286-.168-.426q-.117-.311-.223-.622c-.07-.207-.136-.418-.2-.629s-.121-.406-.176-.614-.121-.442-.172-.668c0-.024-.012-.047-.016-.07q-.111-.469-.2-.95c-.078-.422-.141-.852-.188-1.286-.019-.137-.031-.274-.043-.411s-.027-.286-.035-.43c-.02-.262-.032-.528-.04-.793,0-.172-.008-.344-.008-.516l2.541,5,4.366,1.9,5.163.465,3.831.348h.024l3.584.325,7.986.719Z" transform="translate(-32.362 -52.095)"/></g><g class="v" transform="translate(0 0)"><path class="i" d="M80.657,17.029a21.887,21.887,0,0,1-2.986,4.886c-.07.086-.141.172-.215.258a21.911,21.911,0,0,1-9.338,6.586,21.294,21.294,0,0,1-2.986.86q-1.026.217-2.087.34a22.628,22.628,0,0,1-2.482.137,21.825,21.825,0,0,1-2.83-.184,20.647,20.647,0,0,1-2.662-.508c-.5-.125-.981-.27-1.462-.43s-.934-.328-1.391-.516V26.845a15.915,15.915,0,0,1,15.9-15.913h.016a16.087,16.087,0,0,1,3.525.391,15.961,15.961,0,0,1,9,5.706Z" transform="translate(-32.365 -6.776)"/></g><g class="v" transform="translate(0 0)"><path class="i" d="M120.6,29.1v3.131a24.4,24.4,0,0,1-6.583-7.786s0-.012-.008-.016a24.245,24.245,0,0,1-2.818-9.854A15.927,15.927,0,0,1,120.6,29.1Z" transform="translate(-68.918 -9.036)"/></g><g class="v" transform="translate(0 0)"><path class="i" d="M54.08,55.274c-.168.293-.32.594-.473.9-.058.121-.117.25-.176.375a13.249,13.249,0,0,0-1.212,4.91c0,.043,0,.09,0,.133V55.465c0-.219.008-.434.008-.645C52.841,54.98,53.458,55.137,54.08,55.274Z" transform="translate(-32.364 -33.978)"/></g><g class="v" transform="translate(0 0)"><path class="i" d="M131.054,55.276c.236.416.447.841.65,1.278A13.1,13.1,0,0,1,132.92,61.6V55.466c0-.216-.008-.431-.008-.642C132.295,54.983,131.679,55.137,131.054,55.276Z" transform="translate(-81.229 -33.981)"/></g><g class="v" transform="translate(0 0)"><path class="x" d="M85.191,59.242a.135.135,0,0,0-.117-.133,42.6,42.6,0,0,0-5.82-.434c-3.092,0-7.083.969-7.779.969h-.617c-.325,0-1.364-.211-2.693-.434a32.394,32.394,0,0,0-5.085-.536A42.767,42.767,0,0,0,58.1,59c-.4.047-.692.09-.844.113a.135.135,0,0,0-.117.133L57.11,60.9a.145.145,0,0,0,.09.133l.187.067c.278.106.254,5.113,1.747,6.364.887.739,1.677,1.161,5,1.161a4.681,4.681,0,0,0,4.288-2.072,15.415,15.415,0,0,0,1.563-3.749,1.3,1.3,0,0,1,1.161-1.18h.016a1.291,1.291,0,0,1,1.177,1.18,15.432,15.432,0,0,0,1.563,3.749,4.68,4.68,0,0,0,4.288,2.072c3.327,0,4.116-.422,5-1.161,1.493-1.251,1.47-6.258,1.747-6.364l.188-.067a.145.145,0,0,0,.09-.133ZM68.426,65.168a4.366,4.366,0,0,1-3.53,2.74c-5.336.27-5.582-1.22-5.926-2.4a8.125,8.125,0,0,1-.3-3.4c.141-1.18.438-1.872.974-2.22a2.429,2.429,0,0,1,1.122-.387,21.418,21.418,0,0,1,2.939-.137,14.79,14.79,0,0,1,2.372.184c1.9.3,3.182.95,3.182,1.587A11.845,11.845,0,0,1,68.426,65.168Zm14.935.34c-.344,1.18-.59,2.67-5.926,2.4a4.366,4.366,0,0,1-3.53-2.74,11.833,11.833,0,0,1-.832-4.03c0-.876,2.431-1.771,5.554-1.771s3.623.235,4.062.524c.535.348.832,1.04.973,2.22A8.11,8.11,0,0,1,83.361,65.508Z" transform="translate(-35.398 -36.368)"/></g><g class="v" transform="translate(0 0)"><path class="i" d="M68.148,78.944l0,3.854,0,1.349v1.059l0,3.518v0l0,0h0l-.011-.008L52.743,80.891c0-.024-.012-.047-.016-.07q-.111-.469-.2-.95c-.078-.422-.141-.852-.188-1.286-.019-.137-.031-.274-.043-.411s-.027-.286-.035-.43c-.02-.262-.032-.528-.04-.793,0-.172-.008-.344-.008-.516V71.764c0,.067,0,.133,0,.2a15.554,15.554,0,0,0,.559,3.643,15.812,15.812,0,0,0,1,2.685v0c1.024,2.131,2.4,3.576,3.659,3.811.078.012.16.019.239.027a13.747,13.747,0,0,0,1.528.086c1.993,0,3.764-1.6,4.878-2.251l.024-.012c.059-.035.117-.07.168-.106a.3.3,0,0,1,.047-.027,7.906,7.906,0,0,1,3.8-.879h.031Z" transform="translate(-32.364 -44.48)"/><path class="i" d="M109.973,71.764l0,4.671a19.163,19.163,0,0,1-.313,3.436c-.082.446-.176.887-.286,1.325l-3.608,5.21-11.7,2.318h0l0,0v0l-.011-9.781h.031a7.926,7.926,0,0,1,3.8.879.289.289,0,0,1,.043.027c.055.035.113.07.172.106a.079.079,0,0,0,.019.012c1.118.649,2.885,2.253,4.879,2.253a13.736,13.736,0,0,0,1.528-.086c.082-.008.16-.016.243-.027,1.259-.235,2.635-1.681,3.655-3.811v0a15.811,15.811,0,0,0,1-2.685,15.382,15.382,0,0,0,.559-3.694C109.973,71.862,109.973,71.815,109.973,71.764Z" transform="translate(-58.288 -44.48)"/></g><g class="v"><ellipse class="j" cx="3.899" cy="1.205" rx="3.899" ry="1.205" transform="translate(31.867 38.317)"/></g><g class="v" transform="translate(0 0)"><path class="y" d="M61.423,155.174v21.5H59.762v-20.29c.223-.18.446-.356.673-.524C60.759,155.62,61.087,155.393,61.423,155.174Z" transform="translate(-37.041 -96.179)"/><path class="y" d="M124.021,155.185v21.5h1.661V156.4Z" transform="translate(-76.87 -96.186)"/></g><g class="v" transform="translate(0 0)"><g transform="translate(31.218 57.679)"><path class="o" d="M82.113,151.713l4.547,5.45,4.548-5.45Z" transform="translate(-82.113 -151.713)"/><path class="o" d="M89.69,184.653H87l1.943-25.016c.082.318,1.411.318,1.493,0l1.943,25.016Z" transform="translate(-85.143 -156.624)"/></g><g transform="translate(27.325 54.156)"><path class="z" d="M80.311,145.967l-.011.019,0,.008-1.888,3.17-1.763,2.955-4.773-6.633c.152-.109.3-.227.45-.348l.008.008a13,13,0,0,0,2.517-2.658l5.453,3.471Z" transform="translate(-71.872 -142.472)"/><path class="z" d="M102.512,145.46l-4.773,6.633-1.763-2.955-1.892-3.17-.016-.027,5.488-3.494a13.11,13.11,0,0,0,2.521,2.677C102.224,145.241,102.368,145.355,102.512,145.46Z" transform="translate(-85.63 -142.447)"/></g></g></g><text class="f" transform="translate(852 4176)"><tspan x="0" y="0">The transcribed ticket is</tspan><tspan x="0" y="24">sent back to the German</tspan><tspan x="0" y="48">player.</tspan></text><rect class="c" width="401" height="121" transform="translate(1222 4394)"/><text class="f" transform="translate(1251 4438)"><tspan x="0" y="0">The ticket is sent to the</tspan><tspan x="0" y="24">machine and transcribed</tspan><tspan x="0" y="48">back into German</tspan></text><g transform="translate(1552.331 4427.041)"><g transform="translate(0 0)"><path class="c" d="M32.126,2V7.438H14V2Z" transform="translate(-3.125 -2)"/><path class="aa" d="M37.625,3.813V7.438H34V2h1.813A1.818,1.818,0,0,1,37.625,3.813Z" transform="translate(-4.999 -2)"/><path class="aa" d="M13.625,2V7.438H10V3.813A1.818,1.818,0,0,1,11.813,2Z" transform="translate(-2.75 -2)"/><path class="ab" d="M40.064,8H3.813A1.818,1.818,0,0,0,2,9.813V51.5a1.818,1.818,0,0,0,1.813,1.813H40.064A1.818,1.818,0,0,0,41.876,51.5V49.653a13.588,13.588,0,0,1,0-27.116V9.813A1.818,1.818,0,0,0,40.064,8Z" transform="translate(-2 -2.562)"/><path class="ac" d="M41.25,58l-.906,3.625H34.906L34,58Z" transform="translate(-4.999 -7.248)"/><path class="ac" d="M13.25,58l-.906,3.625H6.906L6,58Z" transform="translate(-2.375 -7.248)"/><path class="ad" d="M21.625,28.813V34.25a1.818,1.818,0,0,1-1.813,1.813H18V27h1.813A1.818,1.818,0,0,1,21.625,28.813Z" transform="translate(-3.499 -4.343)"/><circle class="ae" cx="3.577" cy="3.577" r="3.577" transform="translate(3.511 28.944)"/><ellipse class="ae" cx="3.577" cy="3.974" rx="3.577" ry="3.974" transform="translate(3.511 17.817)"/><rect class="af" width="18.28" height="7.948" transform="translate(17.817 9.074)"/><path class="af" d="M45.594,24a13.594,13.594,0,1,1,0,27.188c-.308,0-.607-.009-.906-.036a13.588,13.588,0,0,1,0-27.116C44.987,24.009,45.286,24,45.594,24Z" transform="translate(-4.812 -4.062)"/><ellipse class="ag" cx="1.59" cy="1.987" rx="1.59" ry="1.987" transform="translate(39.276 31.328)"/></g><g transform="translate(2.719 8.157)"><path d="M9.531,30.063A4.531,4.531,0,1,0,5,25.531,4.537,4.537,0,0,0,9.531,30.063Zm-.906-7.084v3.458h1.813V22.979a2.719,2.719,0,1,1-1.813,0Z" transform="translate(-5 -11.937)"/><path d="M9.531,33a4.531,4.531,0,1,0,4.531,4.531A4.537,4.537,0,0,0,9.531,33Zm0,7.25a2.712,2.712,0,0,1-.906-5.271v3.458h1.813V34.979a2.712,2.712,0,0,1-.906,5.271Z" transform="translate(-5 -13.062)"/><path d="M40.938,11H21v9.969H40.938Zm-1.813,8.157H22.813V12.813H39.126Z" transform="translate(-6.499 -11)"/></g></g><rect class="e" width="420" height="121" transform="translate(1199 4131)"/><text class="f" transform="translate(1220 4163)"><tspan x="0" y="0">To ensure accuracy &amp;</tspan><tspan x="0" y="24">account for Linguistic and</tspan><tspan x="0" y="48">cultural nuances, the ticket</tspan><tspan x="0" y="72">is sent to a German Proofreader.</tspan></text><g transform="translate(1546.149 4147.912)"><g transform="translate(1.625 1.625)"><path class="ah" d="M69.243,65.888l-7.323-7.323V7.465a2.1,2.1,0,0,0-2.1-2.1H18.62a2.1,2.1,0,0,0-2.1,2.1V56.876a.539.539,0,0,0,.159.383l5.981,5.981a.541.541,0,0,0,.383.159h35.14l6.776,6.776a3.031,3.031,0,1,0,4.286-4.286Z" transform="translate(-16.518 -5.363)"/></g><g transform="translate(0 0)"><g transform="translate(0 0)"><path class="ai" d="M56.277,2.363h-41.2a1.561,1.561,0,0,0-1.56,1.56V53.334L19.5,59.315H56.277a1.562,1.562,0,0,0,1.56-1.566V3.923a1.561,1.561,0,0,0-1.56-1.56Z" transform="translate(-13.518 -2.363)"/><g transform="translate(3.478 6.042)"><path class="aj" d="M23.392,20.191a1.084,1.084,0,0,1-.691-.249L20.33,17.977a1.083,1.083,0,0,1,1.382-1.669l1.455,1.205,2.4-3.523a1.083,1.083,0,1,1,1.791,1.219l-3.067,4.508a1.083,1.083,0,0,1-.744.463,1.113,1.113,0,0,1-.152.011Z" transform="translate(-19.938 -13.516)"/></g><g transform="translate(3.478 22.011)"><path class="aj" d="M23.392,49.67a1.084,1.084,0,0,1-.691-.249L20.33,47.455a1.083,1.083,0,0,1,1.382-1.669l1.455,1.205,2.4-3.523a1.083,1.083,0,0,1,1.791,1.219L24.289,49.2a1.083,1.083,0,0,1-.744.463A1.033,1.033,0,0,1,23.392,49.67Z" transform="translate(-19.938 -42.995)"/></g><g transform="translate(3.478 38.204)"><path class="aj" d="M25.985,80.016a1.078,1.078,0,0,1-.766-.317l-4.964-4.964A1.083,1.083,0,1,1,21.787,73.2l4.964,4.964a1.083,1.083,0,0,1-.766,1.849Z" transform="translate(-19.937 -72.885)"/><path class="aj" d="M21.021,80.016a1.083,1.083,0,0,1-.766-1.849L25.219,73.2a1.083,1.083,0,0,1,1.532,1.532L21.787,79.7A1.08,1.08,0,0,1,21.021,80.016Z" transform="translate(-19.937 -72.885)"/></g><g transform="translate(0 50.972)"><path class="aj" d="M13.518,96.453h4.421a1.562,1.562,0,0,1,1.56,1.566v4.415Z" transform="translate(-13.518 -96.453)"/></g><path class="h" d="M56.277,2.363h-41.2a1.561,1.561,0,0,0-1.56,1.56V5.548a1.561,1.561,0,0,1,1.56-1.56h41.2a1.561,1.561,0,0,1,1.56,1.56V3.923A1.561,1.561,0,0,0,56.277,2.363Z" transform="translate(-13.518 -2.363)"/></g><g transform="translate(12.822 11.818)"><g transform="translate(24.96 38.05)"><path class="ak" d="M84.884,94.417l2.17,2.17A2.475,2.475,0,0,0,85.43,98.21l-2.17-2.17a9.792,9.792,0,0,0,.856-.768A9.952,9.952,0,0,0,84.884,94.417Z" transform="translate(-83.26 -94.417)"/></g><path class="aj" d="M69.295,65.22a10.77,10.77,0,1,0,0,15.231A10.783,10.783,0,0,0,69.295,65.22Z" transform="translate(-43.477 -41.543)"/><path class="ak" d="M69.639,69.112a8.261,8.261,0,1,0,0,11.682A8.261,8.261,0,0,0,69.639,69.112Z" transform="translate(-45.596 -43.662)"/><g transform="translate(12.694 28.346)"><path class="h" d="M71.027,78.718a8.013,8.013,0,0,0-4.98-2.2,8.013,8.013,0,0,0-4.98,2.2,1.307,1.307,0,0,0,0,1.971,8.013,8.013,0,0,0,4.98,2.2,8.013,8.013,0,0,0,4.98-2.2A1.307,1.307,0,0,0,71.027,78.718Z" transform="translate(-60.618 -76.51)"/><circle class="aj" cx="2.451" cy="2.451" r="2.451" transform="translate(2.243 4.529) rotate(-67.486)"/><path class="h" d="M72.055,79.971a.8.8,0,1,0,.8.8A.8.8,0,0,0,72.055,79.971Z" transform="translate(-65.492 -78.093)"/></g><path class="aj" d="M99.017,106.652,91.3,98.934a2.489,2.489,0,0,0-3.52,3.52l7.719,7.719a2.489,2.489,0,0,0,3.52-3.52Z" transform="translate(-60.038 -58.104)"/><path class="al" d="M37.728,25.262H61.821a.542.542,0,0,0,0-1.083H37.728a.542.542,0,1,0,0,1.083Z" transform="translate(-37.186 -24.179)"/><path class="al" d="M37.728,40.262H61.821a.542.542,0,0,0,0-1.083H37.728a.542.542,0,1,0,0,1.083Z" transform="translate(-37.186 -31.053)"/><path class="al" d="M37.728,55.262H61.821a.542.542,0,0,0,0-1.083H37.728a.542.542,0,1,0,0,1.083Z" transform="translate(-37.186 -37.927)"/><path class="al" d="M69.567,68.274a8.8,8.8,0,1,0,0,12.448,8.812,8.812,0,0,0,0-12.448ZM68.8,79.957a7.715,7.715,0,1,1,0-10.916,7.728,7.728,0,0,1,0,10.916Z" transform="translate(-45.141 -43.207)"/><path class="al" d="M70.924,77.851a8.477,8.477,0,0,0-5.337-2.335,8.478,8.478,0,0,0-5.337,2.335,1.848,1.848,0,0,0,0,2.786,8.479,8.479,0,0,0,5.337,2.335,8.477,8.477,0,0,0,5.337-2.335,1.848,1.848,0,0,0,0-2.786Zm-.713,1.971a7.432,7.432,0,0,1-4.624,2.067,7.434,7.434,0,0,1-4.624-2.067.764.764,0,0,1,0-1.154A7.433,7.433,0,0,1,65.588,76.6a7.432,7.432,0,0,1,4.624,2.067.764.764,0,0,1,0,1.154Z" transform="translate(-47.465 -47.705)"/></g></g></g><path class="c" d="M63.616,112.775V104H0v8.775a8.775,8.775,0,0,1,8.775,8.775A8.775,8.775,0,0,1,0,130.324V139.1H63.616v-8.775a8.775,8.775,0,1,1,0-17.549Zm-24.13,23.033H37.292v-2.194h2.194Zm0-4.387H37.292v-2.194h2.194Zm0-4.387H37.292V124.84h2.194Zm0-4.387H37.292v-2.194h2.194Zm0-4.387H37.292v-2.194h2.194Zm0-4.387H37.292v-2.194h2.194Zm0-4.387H37.292V107.29h2.194Z" transform="translate(442.346 4210.976)"/><g transform="translate(447.83 4319.363)"><path class="ab" d="M40,136H68.517v2.194H40Z" transform="translate(-40 -136)"/><path class="ab" d="M40,312H68.517v2.194H40Z" transform="translate(-40 -287.87)"/><path class="ab" d="M312,136h14.259v2.194H312Z" transform="translate(-274.708 -136)"/><path class="ab" d="M312,312h14.259v2.194H312Z" transform="translate(-274.708 -287.87)"/></g><g transform="translate(581.294 4171.914)"><circle class="d" cx="35.765" cy="35.765" r="35.765" transform="translate(0 0)"/><g class="v" transform="translate(0 0)"><path class="j" d="M84.045,26.842V38.728c0,.172,0,.344-.008.516-.008.356-.027.711-.059,1.063-.008.121-.02.242-.035.363-.051.5-.121,1-.211,1.493-.032.164-.063.324-.1.485a.683.683,0,0,1-.019.1c-.032.164-.071.325-.109.485-.016.086-.039.172-.059.258s-.039.149-.062.223c-.082.32-.176.633-.274.946-.047.149-.094.293-.144.442,0,.016-.012.031-.016.047l-.141.4c-.016.039-.031.078-.047.121-.047.125-.094.25-.144.375-.059.152-.121.3-.184.45-.055.133-.113.266-.172.4-.008.024-.02.043-.027.066-.067.141-.129.282-.2.418s-.137.289-.211.434c-.141.285-.293.571-.446.848l-.211.375a22.976,22.976,0,0,1-2,2.908c-.1.129-.2.254-.3.375-.145.176-.294.348-.442.516-.133.149-.266.3-.4.442-.375.4-.758.786-1.149,1.145-.078.078-.16.149-.243.223-.133.121-.265.238-.4.352-.105.094-.215.184-.325.274-.281.23-.563.453-.848.66-.117.09-.239.176-.36.258-.2.141-.395.274-.594.4-.109.074-.223.144-.336.211-.4.246-.8.473-1.2.668-.1.051-.2.1-.293.144s-.2.094-.3.141q-.194.088-.387.164a1.215,1.215,0,0,1-.152.059c-.152.063-.309.121-.461.172-.192.07-.387.129-.578.184-.133.039-.27.074-.4.105a.054.054,0,0,1-.027.008c-.133.031-.266.063-.4.086a.927.927,0,0,1-.105.019c-.109.019-.219.039-.328.051-.156.024-.313.043-.469.051a1.13,1.13,0,0,1-.16.012c-.125.008-.25.012-.371.012h-.011q-.182,0-.363-.012a.84.84,0,0,1-.141-.012c-.109,0-.223-.016-.34-.032a.485.485,0,0,1-.074-.008c-.145-.019-.289-.043-.438-.07-.125-.019-.25-.047-.379-.078a11.208,11.208,0,0,1-2.052-.692,14.959,14.959,0,0,1-1.794-.946c-.3-.184-.6-.379-.9-.586-.149-.106-.3-.211-.446-.321q-.7-.51-1.38-1.11c-.125-.113-.25-.227-.375-.344s-.25-.23-.371-.344q-.458-.44-.892-.915-.17-.181-.34-.375c-.313-.352-.617-.715-.907-1.095-.114-.137-.219-.278-.325-.418q-.592-.785-1.122-1.638c-.094-.152-.187-.309-.277-.461-.109-.184-.215-.371-.32-.559a21.313,21.313,0,0,1-1.063-2.189c-.047-.109-.094-.219-.133-.328-.063-.141-.117-.286-.168-.426q-.117-.311-.223-.622c-.07-.207-.136-.418-.2-.629s-.121-.406-.176-.614-.121-.442-.172-.668c0-.024-.012-.047-.016-.07q-.111-.469-.2-.95c-.078-.422-.141-.852-.188-1.286-.019-.137-.031-.274-.043-.411s-.027-.286-.035-.43c-.02-.262-.032-.528-.04-.793,0-.172-.008-.344-.008-.516V26.842a15.915,15.915,0,0,1,15.9-15.913h.016a16.087,16.087,0,0,1,3.525.391A15.93,15.93,0,0,1,84.045,26.842Z" transform="translate(-32.363 -6.774)"/></g><g class="v" transform="translate(0 0)"><path class="j" d="M81.007,152.239v0H39.538v0a20.63,20.63,0,0,1,1.106-6.7q.193-.569.422-1.126v0c.152-.371.313-.735.484-1.095a20.524,20.524,0,0,1,2.525-4.026c.25-.309.5-.61.766-.9.129-.149.266-.293.4-.438s.274-.281.414-.422A20.634,20.634,0,0,1,47.9,135.6c.395-.293.793-.567,1.208-.833s.836-.512,1.266-.747a.025.025,0,0,1,.016-.008c.168-.09.332-.187.5-.289.325-.2.645-.406.95-.633.156-.109.3-.223.453-.344.352-.281.692-.582,1.016-.9.105-.105.211-.211.317-.32.219-.227.426-.465.625-.708.1-.117.2-.238.286-.36s.184-.246.274-.371a13.007,13.007,0,0,0,2.431-7.6l3.022.016,3.107.016a13.084,13.084,0,0,0,4.913,10.233c.145.117.289.231.434.336s.285.207.434.3c.032.024.059.043.09.063.141.094.281.188.43.274s.325.2.489.286a.191.191,0,0,1,.07.035c.344.192.684.391,1.017.6.16.1.32.2.477.313q.487.316.95.668a0,0,0,0,0,0,0h0a20.929,20.929,0,0,1,2.236,1.931A20.631,20.631,0,0,1,81.007,152.239Z" transform="translate(-24.506 -75.921)"/></g><g class="v" transform="translate(0 0)"><path class="w" d="M81.008,168.957H39.539a20.638,20.638,0,0,1,1.106-6.7q.193-.569.422-1.126s0,0,0,0c.149-.371.313-.735.484-1.094a20.524,20.524,0,0,1,2.525-4.026c.25-.309.5-.61.766-.9.129-.149.266-.293.4-.438s.274-.281.414-.422a20.592,20.592,0,0,1,2.24-1.931c.395-.293.793-.567,1.208-.833s.836-.516,1.266-.75a.014.014,0,0,1,.016,0v0c.168-.094.332-.188.5-.286a12.081,12.081,0,0,0,1.4-.985l.008.008a11.141,11.141,0,0,0,7.97,3.365h.031a11.165,11.165,0,0,0,7.99-3.362l0,0a10.46,10.46,0,0,0,.864.645c.031.023.059.043.09.062.141.094.285.184.43.274.16.1.325.192.489.281a.377.377,0,0,1,.07.035c.344.192.684.391,1.017.6.16.1.32.2.477.313.325.207.641.434.95.668h.008a20.762,20.762,0,0,1,8.329,16.609Z" transform="translate(-24.507 -92.638)"/></g><g class="v" transform="translate(0 0)"><path class="i" d="M84.044,84.049c0,.172,0,.344-.008.516-.008.356-.027.711-.059,1.063-.008.121-.02.242-.035.363-.051.5-.121,1-.211,1.493-.032.164-.063.324-.1.485a.683.683,0,0,1-.019.1c-.032.164-.071.325-.109.485-.02.094-.043.184-.071.274a1.752,1.752,0,0,1-.051.207c-.083.32-.176.633-.274.946-.047.149-.094.293-.144.442,0,.016-.012.031-.016.047l-.141.4c-.016.039-.031.078-.047.121-.047.125-.094.25-.144.375-.059.152-.121.3-.184.45-.055.133-.113.266-.172.4-.008.024-.02.043-.027.066-.067.141-.129.282-.2.418s-.137.289-.211.434c-.141.285-.293.571-.446.848l-.211.375a22.977,22.977,0,0,1-2,2.908c-.1.129-.2.254-.3.375-.145.176-.294.348-.442.516-.133.149-.266.3-.4.442-.375.4-.758.786-1.149,1.145-.078.078-.16.149-.243.223-.133.121-.265.238-.4.352-.105.094-.215.184-.325.274-.281.23-.563.453-.848.66-.117.09-.239.176-.36.258-.2.141-.395.274-.594.4-.109.074-.223.144-.336.211-.4.246-.8.473-1.2.668-.1.051-.2.1-.293.144s-.2.094-.3.141q-.194.088-.387.164a1.215,1.215,0,0,1-.152.059c-.152.063-.309.121-.461.172-.192.07-.387.129-.578.184-.133.039-.27.074-.4.105a.054.054,0,0,1-.027.008c-.133.031-.266.063-.4.086a.932.932,0,0,1-.105.019c-.109.019-.219.039-.328.051-.156.024-.313.043-.469.051a1.131,1.131,0,0,1-.16.012c-.125.008-.25.012-.371.012h-.011q-.182,0-.363-.012a.84.84,0,0,1-.141-.012c-.109,0-.223-.016-.34-.032a.486.486,0,0,1-.074-.008c-.145-.019-.289-.043-.438-.07-.125-.019-.25-.047-.379-.078a11.209,11.209,0,0,1-2.052-.692,14.959,14.959,0,0,1-1.794-.946c-.3-.18-.6-.375-.9-.586-.149-.106-.3-.211-.446-.32q-.7-.51-1.38-1.11c-.125-.113-.25-.227-.375-.344s-.25-.23-.371-.344q-.458-.44-.892-.915-.17-.181-.34-.375c-.312-.352-.617-.715-.907-1.095-.114-.137-.219-.278-.325-.418q-.592-.785-1.122-1.638c-.094-.152-.187-.309-.277-.461-.109-.184-.215-.371-.32-.559a21.315,21.315,0,0,1-1.063-2.189c-.047-.109-.094-.219-.133-.328-.063-.141-.117-.286-.168-.426q-.117-.311-.223-.622c-.07-.207-.136-.418-.2-.629s-.121-.406-.176-.614-.121-.442-.172-.668c0-.024-.012-.047-.016-.07q-.111-.469-.2-.95c-.078-.422-.141-.852-.188-1.286-.019-.137-.031-.274-.043-.411s-.027-.286-.035-.43c-.02-.262-.032-.528-.04-.793,0-.172-.008-.344-.008-.516l2.541,5,4.366,1.9,5.163.465,3.831.348h.024l3.584.325,7.986.719Z" transform="translate(-32.362 -52.095)"/></g><g class="v" transform="translate(0 0)"><path class="i" d="M80.657,17.029a21.887,21.887,0,0,1-2.986,4.886c-.07.086-.141.172-.215.258a21.911,21.911,0,0,1-9.338,6.586,21.294,21.294,0,0,1-2.986.86q-1.026.217-2.087.34a22.628,22.628,0,0,1-2.482.137,21.825,21.825,0,0,1-2.83-.184,20.647,20.647,0,0,1-2.662-.508c-.5-.125-.981-.27-1.462-.43s-.934-.328-1.391-.516V26.845a15.915,15.915,0,0,1,15.9-15.913h.016a16.087,16.087,0,0,1,3.525.391,15.961,15.961,0,0,1,9,5.706Z" transform="translate(-32.365 -6.776)"/></g><g class="v" transform="translate(0 0)"><path class="i" d="M120.6,29.1v3.131a24.4,24.4,0,0,1-6.583-7.786s0-.012-.008-.016a24.245,24.245,0,0,1-2.818-9.854A15.927,15.927,0,0,1,120.6,29.1Z" transform="translate(-68.918 -9.036)"/></g><g class="v" transform="translate(0 0)"><path class="i" d="M54.08,55.274c-.168.293-.32.594-.473.9-.058.121-.117.25-.176.375a13.249,13.249,0,0,0-1.212,4.91c0,.043,0,.09,0,.133V55.465c0-.219.008-.434.008-.645C52.841,54.98,53.458,55.137,54.08,55.274Z" transform="translate(-32.364 -33.978)"/></g><g class="v" transform="translate(0 0)"><path class="i" d="M131.054,55.276c.236.416.447.841.65,1.278A13.1,13.1,0,0,1,132.92,61.6V55.466c0-.216-.008-.431-.008-.642C132.295,54.983,131.679,55.137,131.054,55.276Z" transform="translate(-81.229 -33.981)"/></g><g class="v" transform="translate(0 0)"><path class="x" d="M85.191,59.242a.135.135,0,0,0-.117-.133,42.6,42.6,0,0,0-5.82-.434c-3.092,0-7.083.969-7.779.969h-.617c-.325,0-1.364-.211-2.693-.434a32.394,32.394,0,0,0-5.085-.536A42.767,42.767,0,0,0,58.1,59c-.4.047-.692.09-.844.113a.135.135,0,0,0-.117.133L57.11,60.9a.145.145,0,0,0,.09.133l.187.067c.278.106.254,5.113,1.747,6.364.887.739,1.677,1.161,5,1.161a4.681,4.681,0,0,0,4.288-2.072,15.415,15.415,0,0,0,1.563-3.749,1.3,1.3,0,0,1,1.161-1.18h.016a1.291,1.291,0,0,1,1.177,1.18,15.432,15.432,0,0,0,1.563,3.749,4.68,4.68,0,0,0,4.288,2.072c3.327,0,4.116-.422,5-1.161,1.493-1.251,1.47-6.258,1.747-6.364l.188-.067a.145.145,0,0,0,.09-.133ZM68.426,65.168a4.366,4.366,0,0,1-3.53,2.74c-5.336.27-5.582-1.22-5.926-2.4a8.125,8.125,0,0,1-.3-3.4c.141-1.18.438-1.872.974-2.22a2.429,2.429,0,0,1,1.122-.387,21.418,21.418,0,0,1,2.939-.137,14.79,14.79,0,0,1,2.372.184c1.9.3,3.182.95,3.182,1.587A11.845,11.845,0,0,1,68.426,65.168Zm14.935.34c-.344,1.18-.59,2.67-5.926,2.4a4.366,4.366,0,0,1-3.53-2.74,11.833,11.833,0,0,1-.832-4.03c0-.876,2.431-1.771,5.554-1.771s3.623.235,4.062.524c.535.348.832,1.04.973,2.22A8.11,8.11,0,0,1,83.361,65.508Z" transform="translate(-35.398 -36.368)"/></g><g class="v" transform="translate(0 0)"><path class="i" d="M68.148,78.944l0,3.854,0,1.349v1.059l0,3.518v0l0,0h0l-.011-.008L52.743,80.891c0-.024-.012-.047-.016-.07q-.111-.469-.2-.95c-.078-.422-.141-.852-.188-1.286-.019-.137-.031-.274-.043-.411s-.027-.286-.035-.43c-.02-.262-.032-.528-.04-.793,0-.172-.008-.344-.008-.516V71.764c0,.067,0,.133,0,.2a15.554,15.554,0,0,0,.559,3.643,15.812,15.812,0,0,0,1,2.685v0c1.024,2.131,2.4,3.576,3.659,3.811.078.012.16.019.239.027a13.747,13.747,0,0,0,1.528.086c1.993,0,3.764-1.6,4.878-2.251l.024-.012c.059-.035.117-.07.168-.106a.3.3,0,0,1,.047-.027,7.906,7.906,0,0,1,3.8-.879h.031Z" transform="translate(-32.364 -44.48)"/><path class="i" d="M109.973,71.764l0,4.671a19.163,19.163,0,0,1-.313,3.436c-.082.446-.176.887-.286,1.325l-3.608,5.21-11.7,2.318h0l0,0v0l-.011-9.781h.031a7.926,7.926,0,0,1,3.8.879.289.289,0,0,1,.043.027c.055.035.113.07.172.106a.079.079,0,0,0,.019.012c1.118.649,2.885,2.253,4.879,2.253a13.736,13.736,0,0,0,1.528-.086c.082-.008.16-.016.243-.027,1.259-.235,2.635-1.681,3.655-3.811v0a15.811,15.811,0,0,0,1-2.685,15.382,15.382,0,0,0,.559-3.694C109.973,71.862,109.973,71.815,109.973,71.764Z" transform="translate(-58.288 -44.48)"/></g><g class="v"><ellipse class="j" cx="3.899" cy="1.205" rx="3.899" ry="1.205" transform="translate(31.867 38.317)"/></g><g class="v" transform="translate(0 0)"><path class="y" d="M61.423,155.174v21.5H59.762v-20.29c.223-.18.446-.356.673-.524C60.759,155.62,61.087,155.393,61.423,155.174Z" transform="translate(-37.041 -96.179)"/><path class="y" d="M124.021,155.185v21.5h1.661V156.4Z" transform="translate(-76.87 -96.186)"/></g><g class="v" transform="translate(0 0)"><g transform="translate(31.218 57.679)"><path class="o" d="M82.113,151.713l4.547,5.45,4.548-5.45Z" transform="translate(-82.113 -151.713)"/><path class="o" d="M89.69,184.653H87l1.943-25.016c.082.318,1.411.318,1.493,0l1.943,25.016Z" transform="translate(-85.143 -156.624)"/></g><g transform="translate(27.325 54.156)"><path class="z" d="M80.311,145.967l-.011.019,0,.008-1.888,3.17-1.763,2.955-4.773-6.633c.152-.109.3-.227.45-.348l.008.008a13,13,0,0,0,2.517-2.658l5.453,3.471Z" transform="translate(-71.872 -142.472)"/><path class="z" d="M102.512,145.46l-4.773,6.633-1.763-2.955-1.892-3.17-.016-.027,5.488-3.494a13.11,13.11,0,0,0,2.521,2.677C102.224,145.241,102.368,145.355,102.512,145.46Z" transform="translate(-85.63 -142.447)"/></g></g></g><path class="c" d="M63.616,112.775V104H0v8.775a8.775,8.775,0,0,1,8.775,8.775A8.775,8.775,0,0,1,0,130.324V139.1H63.616v-8.775a8.775,8.775,0,1,1,0-17.549Zm-24.13,23.033H37.292v-2.194h2.194Zm0-4.387H37.292v-2.194h2.194Zm0-4.387H37.292V124.84h2.194Zm0-4.387H37.292v-2.194h2.194Zm0-4.387H37.292v-2.194h2.194Zm0-4.387H37.292v-2.194h2.194Zm0-4.387H37.292V107.29h2.194Z" transform="translate(1640.884 4199.054)"/><g transform="translate(1646.368 4307.441)"><path class="ab" d="M40,136H68.517v2.194H40Z" transform="translate(-40 -136)"/><path class="ab" d="M40,312H68.517v2.194H40Z" transform="translate(-40 -287.87)"/><path class="ab" d="M312,136h14.259v2.194H312Z" transform="translate(-274.708 -136)"/><path class="ab" d="M312,312h14.259v2.194H312Z" transform="translate(-274.708 -287.87)"/></g><path class="am" d="M41.58,109.735V104H0v5.735a5.735,5.735,0,0,1,5.735,5.735A5.735,5.735,0,0,1,0,121.206v5.735H41.58v-5.735a5.735,5.735,0,1,1,0-11.47ZM25.808,124.79H24.375v-1.434h1.434Zm0-2.868H24.375v-1.434h1.434Zm0-2.868H24.375v-1.434h1.434Zm0-2.868H24.375v-1.434h1.434Zm0-2.868H24.375v-1.434h1.434Zm0-2.868H24.375v-1.434h1.434Zm0-2.868H24.375v-1.434h1.434Z" transform="translate(636.273 4105.763)"/><path class="an" d="M150.187,114.753h1.255v1.434h-1.434v-1.255L138,126.941h29.214v-5.735a5.735,5.735,0,1,1,0-11.47V104h-6.273Zm1.255,10.037h-1.434v-1.434h1.434Zm0-2.868h-1.434v-1.434h1.434Zm0-2.868h-1.434v-1.434h1.434Z" transform="translate(510.64 4105.763)"/><g transform="translate(639.858 4212.63)"><path class="ao" d="M40,136H58.639v1.434H40Z" transform="translate(-40 -136)"/><path class="ao" d="M40,312H58.639v1.434H40Z" transform="translate(-40 -296.228)"/><path class="ao" d="M312,136h9.32v1.434H312Z" transform="translate(-287.626 -136)"/><path class="ao" d="M312,312h9.32v1.434H312Z" transform="translate(-287.626 -296.228)"/></g><g transform="translate(0 -107)"><path class="ap" d="M62.683,13.7a13.105,13.105,0,0,1,.52,2.816c.27,1.287.391,2.594.639,3.883.176.913-.052,2.966.819,3.572.7.488,1.9-.3,2.551-.577a25.045,25.045,0,0,1,2.782-1.09c2.545-.762,4.878-1.833,7.49-2.361,2.835-.574,5.58-1.366,8.466-1.795,2.156-.321,4.343-.58,6.516-.765,1.995-.17,4-.19,6-.166.689.008,1.383.2,2.073.156.933-.065,1.009-.229,1.134.813a14.242,14.242,0,0,0,.922,2.473c.181.558.3,1.128.483,1.688a5.572,5.572,0,0,0,.347,1.287c.252.326.507.184.875.125,1.635-.263,3.272-.533,4.912-.787,1.144-.177,2.287-.357,3.432-.526a3.956,3.956,0,0,0,1.627-.378c.717-.466.51-1.064.348-1.818-.382-1.788-.751-3.571-1.12-5.359-.19-.918-.229-2.264-1.342-2.516a5.988,5.988,0,0,0-2.538.291c-1.7.417-3.389.943-5.083,1.4a6.92,6.92,0,0,1-2.557.374c-1.088-.123-1.263-.439-1.568-1.4A17.508,17.508,0,0,0,98.225,8.1C96.518,5.7,92.053,6.212,89.519,6.346c-5.129.271-10.132,2.48-15.107,3.569-2.441.534-4.755,1.374-7.144,2.058A24.577,24.577,0,0,0,62.683,13.7Z" transform="translate(233.956 4234.384)"/><path class="aq" d="M77.847,108.6a15.368,15.368,0,0,1,5.6-2.858c2.993-.813,5.957-1.717,8.947-2.541,1.749-.482,3.454-.96,5.234-1.3a18.4,18.4,0,0,1,3.46-.38c1.132,0,2.238-.319,3.373-.321,1.106,0,2.221.07,3.327.121,1.406.064,2.819.288,4.225.389.533.039,1.04.3,1.562.335.365.025.7-.1,1.069-.1a1.519,1.519,0,0,1,1.55,1.171,24.655,24.655,0,0,1,.656,4.814c.049.618.03.764.641.905a4.556,4.556,0,0,0,1.527-.015c2-.25,3.972-.6,5.951-.992.951-.189,2.779-.129,3.307-.977a2.619,2.619,0,0,0,.241-1.625,22.366,22.366,0,0,0-.653-3.657c-.334-1.174-.588-2.288-1.021-3.436a15.827,15.827,0,0,1-.784-2.773c-.1-.57-.288-1.114-.406-1.668-.109-.511.077-.527-.537-.528a10.224,10.224,0,0,0-2.364.63c-1.15.287-2.315.524-3.484.714-.857.139-1.713.282-2.56.436a1.967,1.967,0,0,1-.776.124c-.867-.192-.879-.874-1-1.612a21.864,21.864,0,0,0-.6-2.753,3.01,3.01,0,0,0-1.893-2.2c-1.744-.667-4.024-.437-5.845-.361-1.672.069-3.344.209-5.015.288a10.7,10.7,0,0,0-3.038.257,22.228,22.228,0,0,1-3.053.748c-.685.14-1.338.056-2.029.212-.81.183-1.588.482-2.387.705-.967.271-1.931.552-2.9.8-1.894.492-3.827.968-5.68,1.621-1.722.607-3.4,1.351-5.1,2.006-.638.245-1.441.328-1.738,1.027-.33.775.162,1.762.337,2.52a48.76,48.76,0,0,1,1.282,5.279C77.44,105.132,77.56,106.963,77.847,108.6Z" transform="translate(222.808 4163.396)"/><path class="ar" d="M96.363,205.679c.379.907,1.159.35,1.92.141,4.172-1.142,8.319-2.469,12.6-3.219,3.634-.638,7.238-1.553,10.945-1.516,1.363.014,2.7.241,4.064.366,1.142.1,2.233.6,3.368.686.7.052,1.589-.66,2.087.242.419.758-.442,1.167-1.006,1.433a33.959,33.959,0,0,0-6.836,4.268c-1.03.819-2.195,1.609-2.409,3-.32,2.084,3.573,1.062,4.6.905,3.656-.562,7.2-1.65,10.834-2.3,1.531-.273,3.149-.636,4.648-1.053a17.372,17.372,0,0,0,4.244-1.51c1.706-1.005,1.654-3.421,1.65-5.163a18.9,18.9,0,0,0-1.151-6.4c-.334-.86-.826-.785-1.69-.717-1.621.127-3.23.589-4.829.867a14.6,14.6,0,0,1-4.271.494c-.928-.122-1.055-.515-1.116-1.371a24.857,24.857,0,0,0-.933-3.893c-.293-1.244-1.18-1.55-2.376-1.865a23.082,23.082,0,0,0-6.413-.582c-2.269.074-4.611-.039-6.865.246a37.952,37.952,0,0,0-5.989,1.433c-4.365,1.284-9.033,1.587-13.189,3.522-.667.311-1.323.656-1.984.979a3.69,3.69,0,0,0-1.136.6c-.367.441-.147,1.231-.115,1.757.1,1.592.717,3.1.894,4.683C96.048,203.016,95.846,204.442,96.363,205.679Z" transform="translate(205.998 4076.276)"/><g transform="translate(300.827 4267.034)"><path class="as" d="M285.166,289.335a4.808,4.808,0,0,1,.057,1.458c.027.835.06,1.664.06,2.5,0,.51-.233,2.538.346,2.852.778.422,2.678-1.48,3.152-1.858a35.174,35.174,0,0,1,4.2-2.739c.714-.419,4.413-2.156,3.033-3.161a4.865,4.865,0,0,0-2.789-.382,29.5,29.5,0,0,1-4.861-.058,7.123,7.123,0,0,0-2.611-.129C285.052,288.053,285.454,288.994,285.166,289.335Z" transform="translate(-259.862 -276.85)"/><path class="as" d="M95.622,219.975a2.376,2.376,0,0,1-.058-.935c-.009-.8-.076-1.6-.161-2.394a25.574,25.574,0,0,0-.736-3.553c-.224-.895-.762-2.158.019-2.8a10.979,10.979,0,0,1,3-1.421c1.235-.473,2.512-.829,3.762-1.261,1.626-.562,3.369-1.058,5.044-1.458.787-.188,2.324-.966,2.666-.005.334.937.247,1.571,1.148,2.245a11.584,11.584,0,0,0,3.524,1.581,32.8,32.8,0,0,0,3.815.857c1.809.327,3.656.481,5.49.651a71.939,71.939,0,0,1,7.293.611c1.642.325,3.624,1.819,2.284,3.663A4.71,4.71,0,0,1,131.007,217a8.126,8.126,0,0,1-2.747.06,46.9,46.9,0,0,1-5.04-.605c-4.9-.621-9.794.587-14.553,1.684-3.1.716-6.226,1.313-9.316,2.1C98.843,220.363,95.3,221.436,95.622,219.975Z" transform="translate(-94.278 -205.683)"/><path class="as" d="M300.848,247.865a6.288,6.288,0,0,1,1.889-.526c1.077-.147,1.621.281,1.9,1.41a13.936,13.936,0,0,1,.156,4.361c-.129,1.594.167,3.171.07,4.755-.09,1.468-.839,1.87-2.089,2.472a23.579,23.579,0,0,1-4.419,1.47,78.716,78.716,0,0,1-9.3,1.331c-.571.076-1.492.339-1.97-.144-.629-.636.111-1.576.582-2.1,1.708-1.89,4.225-3,6.4-4.246a20.2,20.2,0,0,0,4.274-3.395A8.881,8.881,0,0,0,300,251.34a7.167,7.167,0,0,0,.766-1.725C300.9,249.04,300.555,248.279,300.848,247.865Z" transform="translate(-261.321 -241.793)"/></g><path class="at" d="M93.7,125.284a33.424,33.424,0,0,1-2.871-4.139,20.023,20.023,0,0,1-2.771-6.007c-.258-.927-.389-1.928-1.611-1.72a7.9,7.9,0,0,0-1.551.833,19.326,19.326,0,0,1-2.647,1.094c-1.287.41-2.634.782-3.877,1.285a9.184,9.184,0,0,0-1.357.558c-.562.348-.506.422-.433.925.155,1.075.7,2.1.9,3.168.231,1.238.515,2.475.715,3.72.163,1.013.32,2.053.391,3.077.036.513-.039,1.412.478,1.7.461.257,1.157-.091,1.568-.251,1.16-.453,2.364-.839,3.556-1.2,1.632-.489,3.193-1.229,4.8-1.794.723-.254,1.481-.414,2.2-.665C91.935,125.616,92.709,125.021,93.7,125.284Z" transform="translate(221.938 4141.41)"/><g transform="translate(296.685 4245.654)"><path class="au" d="M70.559,44.448a2.54,2.54,0,0,0-.99.293c-.759.253-1.519.518-2.287.76a27.236,27.236,0,0,0-3.616,1.147c-.977.463-.575,1.488-.41,2.4.285,1.576.529,3.16.834,4.731.137.7.342,1.394.482,2.1.056.285.037,1.048.286,1.262.577.495,2.221-.3,2.808-.456,1.665-.445,3.306-1.257,4.927-1.862.66-.246,2.471-.618,2.562-1.511a5.227,5.227,0,0,0-.63-1.727c-.467-1-.916-2-1.322-3.03C72.827,47.6,72.363,43.908,70.559,44.448Z" transform="translate(-63.032 -44.394)"/><path class="au" d="M356.386,71.248a19.5,19.5,0,0,1,.638,2.9c.265,1.154.638,2.283.864,3.444.235,1.206-.008,2.679,1.657,2.344,1.129-.227,2.912-.261,3.074-1.722.118-1.068-.809-2.1-1.266-2.985a14.97,14.97,0,0,0-2.331-3.523c-.341-.362-.624-.892-1.144-.983C357.672,70.686,356.3,71.046,356.386,71.248Z" transform="translate(-317.496 -67.23)"/></g><path class="at" d="M373.828,143.211a13.855,13.855,0,0,1,.481,3.511,20.719,20.719,0,0,0,.7,3.24c.121.4.108.886.506,1.106a3.927,3.927,0,0,0,1.806.119,2.474,2.474,0,0,0,2.043-1.2,7.46,7.46,0,0,0,.165-3.785c-.253-1.874-.843-3.706-1.273-5.543a15.607,15.607,0,0,0-1-3.362c-.367-.706-.974-.5-1.673-.253-.94.332-1.919.442-2.853.7a14.284,14.284,0,0,1,.286,1.737C373.146,140.437,373.61,141.482,373.828,143.211Z" transform="translate(-34.989 4121.093)"/><path class="av" d="M24.256,19.9c-.933.9-1.532,2.84-.695,3.935.563.737,1.589.663,1.941,1.431a7.623,7.623,0,0,1,.372,2.224c.233,1.832.689,3.589.96,5.41.35,2.351.753,4.7.978,7.068.184,1.93.328,3.865.562,5.79a10.114,10.114,0,0,0,.5,2.089,12.527,12.527,0,0,1,.281,2.7c.155,1.6.345,3.192.524,4.787.329,2.928.869,5.816,1.08,8.762.191,2.668.792,5.2,1.193,7.834.348,2.284.742,4.556,1.121,6.834.194,1.17.836,6.2,3.018,4.792,1.218-.786,1.327-2.082,1.286-3.41a51.859,51.859,0,0,0-1.461-8.613c-.653-3.174-1.157-6.4-1.661-9.6-.267-1.7-.6-3.376-.9-5.068a43.13,43.13,0,0,1-.643-7.412,18.262,18.262,0,0,0-.3-4.012c-.9-4.062-2.04-8.022-2.637-12.15-.242-1.674-.634-3.347-.981-5-.314-1.5-.734-2.979-.139-4.467.646-1.615,1.137-3.018-.5-4.27C27.01,18.688,25.811,18.826,24.256,19.9Z" transform="translate(268.238 4223.298)"/><path class="aw" d="M24.635,23.69c-.079,1.307.818,2.5,1.357,3.616a3.705,3.705,0,0,1,.353,1.877,15.721,15.721,0,0,0,.409,2.294c.284,1.666.473,3.346.769,5.009a65.447,65.447,0,0,1,1.33,6.916,36.322,36.322,0,0,0,1.274,7.173,45.935,45.935,0,0,1,1.12,7.444A98.846,98.846,0,0,0,32.88,68.693c.637,3.023.676,6.208,1.163,9.269.39,2.454,1.06,4.881,1.4,7.338.089.649.083,2.492-.938,1.862-1.6-.988-1.545-3.986-1.834-5.58-.58-3.189-1.221-6.366-1.749-9.563-.291-1.766-.473-3.539-.744-5.306-.152-.992-.34-1.974-.513-2.964-.163-.93-.473-1.756-.607-2.7-.146-1.021-.215-2.051-.351-3.074q-.271-2.027-.586-4.048c-.4-2.544-.642-5.062-.915-7.622-.313-2.939-1.006-5.774-1.181-8.732-.083-1.4-.29-2.808-.411-4.21a11.56,11.56,0,0,0-.37-3.357c-.309-.768-.506-.511-1.175-.587s-.855-.572-1.086-1.127C22.32,26.711,22.586,25.051,24.635,23.69Z" transform="translate(268.675 4219.22)"/><path d="M79.944,37.038a39.55,39.55,0,0,0-1.213-5.62c-.556-1.871-.744-3.861-1.119-5.785-.789-4.049-1.556-8.1-2.527-12.114-.262-1.08-.581-2.148-.832-3.229-.157-.68-.21-1.38-.358-2.062a3.119,3.119,0,0,0-.822-1.739,2.192,2.192,0,0,0-1.857-.317c-1.413.241-2.715.911-4.129,1.183a44.921,44.921,0,0,0-5.417,1.072c-.359-1.085-.747-2.161-1.2-3.2a9.821,9.821,0,0,0-2.24-3.355C55.694-.463,52.08-.168,48.93.4,46.594.822,44.3,1.442,41.968,1.9c-2.367.465-4.706,1.067-7.023,1.738s-4.622,1.418-6.916,2.18c-1.061.353-2.108.738-3.161,1.112-.439.156-.871.3-1.286.486a2.566,2.566,0,0,0,.149-.259,4.266,4.266,0,0,0,.44-2.294,3.248,3.248,0,0,0-3.119-2.986A4.315,4.315,0,0,0,16.99,4.651a3.01,3.01,0,0,0,.081,2.8,3.824,3.824,0,0,0,2.106,1.827,1.951,1.951,0,0,0,.246.041,15.907,15.907,0,0,1,.407,3.055c.128,1.306.3,2.607.464,3.908.328,2.533.748,5.052,1.071,7.585s.415,5.077.83,7.595.865,5.013,1.183,7.546.578,5.1.953,7.64.852,5.061,1.208,7.6c.34,2.428.785,4.834,1.159,7.256.277,1.792.416,4.352,1.869,5.649a2.241,2.241,0,0,0,3.423-.163,4.28,4.28,0,0,0,.353-2.744c-.114-1.185-.377-2.345-.591-3.514-.451-2.467-.579-5-.972-7.476-.4-2.507-.821-5.007-1.183-7.519q-.159-1.106-.311-2.212a78.1,78.1,0,0,1,11.354-2.909,105.883,105.883,0,0,1,10.75-1.86c.026.447.118.9.171,1.321.1.8.181,1.606.233,2.413.056.86.045,1.708.047,2.568a12.994,12.994,0,0,0,.215,2.682,1.861,1.861,0,0,0,1.112,1.485,7.569,7.569,0,0,0,3.934.031c2.419-.366,4.8-1.023,7.2-1.494A87.571,87.571,0,0,0,76.415,45a7.409,7.409,0,0,0,2.071-.93,3.719,3.719,0,0,0,1.276-1.987A11.629,11.629,0,0,0,79.944,37.038Zm-5.68-19.846c.98,4.491,1.784,9.02,2.721,13.52-.394.074-.791.13-1.189.178-1.017.122-2.038.2-3.047.382a33.648,33.648,0,0,0-5.688,1.1c-.142-1.12-.376-2.232-.583-3.334-.379-2.024-.718-4.054-1.111-6.075q-.389-2-.829-3.991a5.943,5.943,0,0,0,1.938-.146c1.025-.171,2.034-.414,3.05-.628.94-.2,1.889-.35,2.831-.539A7.221,7.221,0,0,0,74.265,17.192ZM66.546,9.078A23.327,23.327,0,0,0,70.229,8.1a6.016,6.016,0,0,1,1.489-.374,1.435,1.435,0,0,1,.281,0l.029.007a1.751,1.751,0,0,1,.225.6,16.575,16.575,0,0,1,.311,1.7c.113.714.317,1.4.5,2.1.351,1.348.674,2.7.98,4.06a11.154,11.154,0,0,0-1.729.409c-.941.2-1.891.349-2.833.542-.971.2-1.93.453-2.9.664a14.468,14.468,0,0,0-2.207.44c-.574-2.528-1.223-5.039-1.981-7.518q-.118-.386-.238-.773C63.6,9.566,65.07,9.33,66.546,9.078Zm-3.2,11.864c.292,1.416.584,2.838.864,4.264a19.609,19.609,0,0,0-5.223-.814,39.973,39.973,0,0,0-8.192.308,90.413,90.413,0,0,0-15.642,3.55c-1.428.455-2.84.957-4.229,1.52a23.739,23.739,0,0,0-3.27,1.515c-.032-.238-.064-.475-.1-.713-.348-2.531-.746-5.057-1.3-7.552-.277-1.254-.559-2.5-.829-3.757a20.75,20.75,0,0,1,2.241-.937c1.053-.4,2.112-.776,3.168-1.164a75.873,75.873,0,0,1,7.375-2.4,80.9,80.9,0,0,1,15.705-2.39,28.3,28.3,0,0,1,7.409.227C62.106,15.351,62.764,18.139,63.343,20.941ZM25.221,8.21c.978-.309,1.943-.661,2.919-.977q2.939-.951,5.9-1.831c1.928-.572,3.869-1.1,5.829-1.557,1.935-.448,3.892-.784,5.828-1.227a38.145,38.145,0,0,1,6.035-1.075,7.982,7.982,0,0,1,4.426.689A7.359,7.359,0,0,1,59.268,6.4c.3.816.55,1.652.85,2.469a19.908,19.908,0,0,0,.867,2.565,23.14,23.14,0,0,0-5.857-.119,79.271,79.271,0,0,0-8.038.751,77.444,77.444,0,0,0-15.747,3.979c-1.3.478-2.617.934-3.905,1.449-.545.218-1.087.451-1.609.72a4.066,4.066,0,0,0-.553.347c-.219-1.03-.429-2.062-.62-3.1-.23-1.244-.451-2.49-.678-3.735-.1-.544-.223-1.088-.282-1.638a9.487,9.487,0,0,0-.167-1.273A11.343,11.343,0,0,1,25.221,8.21Zm-6.087-.546a2.078,2.078,0,0,1-.8-2.649,3.109,3.109,0,0,1,1.868-1.756,2.041,2.041,0,0,1,2.555,2.693,2.163,2.163,0,0,1-.549,1.019,3.683,3.683,0,0,1-.786.5C20.7,7.649,19.784,8.178,19.134,7.664ZM29.9,57.561c.14,1.234.244,2.467.472,3.689a21.87,21.87,0,0,1,.554,3.764c0,.464.039,1.378-.636,1.36S29.22,65.64,29.019,65.1a16.979,16.979,0,0,1-.755-3.277c-.19-1.194-.4-2.382-.607-3.574-.439-2.572-.733-5.166-1.185-7.735-.46-2.614-.878-5.214-1.208-7.848-.319-2.54-.593-5.095-1.017-7.62-.436-2.6-.953-5.153-1.154-7.784-.4-5.178-1.461-10.285-2.2-15.417a10.753,10.753,0,0,0-.58-2.586c.341-.067.681-.173,1.009-.267a.617.617,0,0,0,.23-.064l.142-.037c.169-.042.245-.088.355.017.151.145.152.665.17.853.051.523.119,1.033.214,1.55.475,2.579.916,5.165,1.443,7.735s1.179,5.078,1.625,7.65c.442,2.546.772,5.108,1.1,7.671.666,5.187,1.348,10.363,2.161,15.528C29.161,52.452,29.609,54.991,29.9,57.561ZM40.835,38.919a88.876,88.876,0,0,0-11.779,2.937c-.439-3.248-.856-6.5-1.294-9.748.994-.367,1.958-.829,2.939-1.224,1.189-.478,2.4-.911,3.612-1.316,2.428-.809,4.9-1.477,7.391-2.068A61.043,61.043,0,0,1,57.31,25.381c1.294.034,2.592.142,3.878.291a9.97,9.97,0,0,1,3.266.814c.359,1.891.689,3.788.962,5.683.21,1.459.463,3.411-.391,4.723a2.588,2.588,0,0,1-2.457.938,24.17,24.17,0,0,1-3.367-.552,24.89,24.89,0,0,0-5.172-.321A77.432,77.432,0,0,0,40.835,38.919ZM53.4,45.454c-.009-.349-.011-.7-.012-1.045,0-.9-.056-1.785-.143-2.679a14.473,14.473,0,0,0-.438-3.083c.144-.009.288-.019.433-.026a24.42,24.42,0,0,1,5.526.225,30.164,30.164,0,0,0,3.65.6c.088,0,.176.008.264.01q-.2.123-.406.243c-1.677.986-3.347,1.969-4.976,3.034a31.971,31.971,0,0,0-3.609,2.461C53.6,45.271,53.5,45.359,53.4,45.454Zm23.829-2.441a12.715,12.715,0,0,1-1.922.731q-1.381.48-2.8.827c-1.861.458-3.749.816-5.627,1.194-2.776.558-5.531,1.189-8.294,1.8a22.047,22.047,0,0,1-2.6.443,4.71,4.71,0,0,1-2.163-.1l-.035-.018c-.02-.068-.041-.137-.063-.2l0-.019a3.255,3.255,0,0,1,1.2-1.506,41.294,41.294,0,0,1,4.038-2.682c1.624-1.048,3.34-1.98,4.924-3.085a7.241,7.241,0,0,0,2.768-3.147,7.085,7.085,0,0,0,.53-2.749c.008-.427-.009-.853-.043-1.279,2.009-.194,4.014-.58,6-.923,1.081-.187,2.18-.25,3.266-.4.234-.032.511-.059.8-.1q.252,1.177.518,2.35a25.542,25.542,0,0,1,.792,4.927C78.56,40.362,78.521,42.31,77.233,43.013Z" transform="translate(273.856 4239.77)"/></g></g></svg>