<svg xmlns="http://www.w3.org/2000/svg" xmlns:xlink="http://www.w3.org/1999/xlink" width="66.003" height="75" viewBox="0 0 66.003 75"><defs><style>.a{fill:url(#a);}.b{fill:#4b4b4b;}.c{fill:#fff;}</style><linearGradient id="a" x1="0.5" x2="0.5" y2="1" gradientUnits="objectBoundingBox"><stop offset="0" stop-color="#8455ce"/><stop offset="1" stop-color="#44168d"/></linearGradient></defs><g transform="translate(-79.999 -56)"><path class="a" d="M196.1,179.483a1.506,1.506,0,0,0-.241.211L184.9,191.566v-5.484a1.5,1.5,0,0,0-1.712-1.485c-.454.065-.876.116-1.29.158a30.476,30.476,0,0,1-6,0,29.785,29.785,0,0,1-14.794-5.695l41.949-41.949q.485.656.929,1.333A30.008,30.008,0,0,1,196.1,179.483Z" transform="translate(-65.902 -65.902)"/><path class="b" d="M134.549,64.635a1.5,1.5,0,0,0-.543-1.085,32.793,32.793,0,0,0-17.712-7.386c-1.078-.107-2.175-.161-3.271-.162h-.048c-1.1,0-2.193.055-3.27.162A32.855,32.855,0,0,0,85.42,70.875l-.011.017h0a33.008,33.008,0,0,0,2.141,39.115,1.5,1.5,0,0,0,1.085.544l.071,0a1.5,1.5,0,0,0,1.061-.439l44.346-44.347A1.5,1.5,0,0,0,134.549,64.635ZM108.135,87.5H98.926a44.139,44.139,0,0,1,1.86-11.292,95.225,95.225,0,0,0,10.713.778v7.149Zm-25.094,0a29.827,29.827,0,0,1,4.29-14.035,94.751,94.751,0,0,0,10.455,2.308A47.15,47.15,0,0,0,95.925,87.5Zm27.522-28.4c.311-.025.623-.047.936-.062V73.987a92.282,92.282,0,0,1-9.726-.676A43.725,43.725,0,0,1,110.563,59.1Zm-5.428,31.4-5.653,5.653a44.5,44.5,0,0,1-.555-5.653ZM114.5,76.987q2.156-.034,4.316-.167L114.5,81.136Zm7.589-3.44c-2.51.25-5.054.4-7.589.44V59.038c.313.015.626.037.938.062a43.892,43.892,0,0,1,8.249,12.85ZM106.006,59.819a46.572,46.572,0,0,0-7.277,13.064,91.848,91.848,0,0,1-9.611-2.037A29.833,29.833,0,0,1,106.006,59.819ZM88.843,106.792a30.058,30.058,0,0,1-5.8-16.292H95.925a47.371,47.371,0,0,0,.986,8.223Zm37.124-37.125a46.749,46.749,0,0,0-5.976-9.849,29.774,29.774,0,0,1,10.8,5.025Z"/><path class="b" d="M190.2,120.5a33.079,33.079,0,0,0-2.141-2.9,1.5,1.5,0,0,0-2.112-.2q-.055.045-.105.1L141.5,161.846a1.5,1.5,0,0,0,0,2.121q.05.05.105.1a32.793,32.793,0,0,0,17.712,7.386,33.609,33.609,0,0,0,6.3.028v7.635a1.5,1.5,0,0,0,2.6,1.017l13.453-14.574A33.008,33.008,0,0,0,190.2,120.5Zm-10.393,42.688a1.507,1.507,0,0,0-.241.211l-10.958,11.871v-5.484a1.5,1.5,0,0,0-1.712-1.485c-.454.065-.876.116-1.29.158a30.476,30.476,0,0,1-6,0,29.785,29.785,0,0,1-14.794-5.695l41.949-41.949q.485.656.929,1.333A30.008,30.008,0,0,1,179.808,163.193Z" transform="translate(-49.609 -49.612)"/><ellipse class="c" cx="2.539" cy="3.046" rx="2.539" ry="3.046" transform="translate(110.462 100.679)"/><circle class="c" cx="3.046" cy="3.046" r="3.046" transform="translate(118.586 100.679)"/><circle class="c" cx="3.046" cy="3.046" r="3.046" transform="translate(127.725 100.679)"/></g></svg>