<svg xmlns="http://www.w3.org/2000/svg" xmlns:xlink="http://www.w3.org/1999/xlink" width="51.414" height="82.262" viewBox="0 0 51.414 82.262"><defs><style>.a{fill:#4b4b4b;}.b{fill:url(#a);}</style><linearGradient id="a" x1="0.5" x2="0.5" y2="1" gradientUnits="objectBoundingBox"><stop offset="0" stop-color="#8455ce"/><stop offset="1" stop-color="#44168d"/></linearGradient></defs><g transform="translate(-96)"><g transform="translate(96)"><circle class="a" cx="1.5" cy="1.5" r="1.5" transform="translate(27.707 79.131)"/><path class="a" d="M140.987,12.853a6.384,6.384,0,0,0-3.213.865v-.865a6.422,6.422,0,0,0-9.64-5.562V6.427a6.427,6.427,0,1,0-12.853,0v.865a6.422,6.422,0,0,0-9.64,5.562V33.271a11.212,11.212,0,0,0-8.033-3.386A1.607,1.607,0,0,0,96,31.491V57.2a14.532,14.532,0,0,0,5.784,11.568l2.571,1.928c2.607,1.956,4.5,6.145,4.5,9.962a1.607,1.607,0,0,0,1.607,1.607h7.23a1.607,1.607,0,0,0,0-3.213h-5.71c-.4-3.813-2.207-8.307-5.7-10.925L103.712,66.2a11.3,11.3,0,0,1-4.5-9V33.259a8.048,8.048,0,0,1,6.427,7.872v9.64a1.607,1.607,0,0,0,1.607,1.607,11.252,11.252,0,0,1,5.078,1.209c.972,4.06,4.651,7.2,9.829,11.609,1.058.9,2.153,1.835,3.316,2.851a1.606,1.606,0,0,0,2.116,0c1.162-1.017,2.257-1.95,3.316-2.851,6.074-5.175,10.087-8.594,10.087-13.808,0-4.744-3.366-8.65-8.033-8.65a7.632,7.632,0,0,0-6.427,3.582,7.632,7.632,0,0,0-6.427-3.582,8.082,8.082,0,0,0-7.937,7.286,14.477,14.477,0,0,0-3.31-.77v-36.4a3.213,3.213,0,1,1,6.427,0V34.7a1.607,1.607,0,0,0,3.213,0V6.427a3.213,3.213,0,1,1,6.427,0V34.7a1.607,1.607,0,1,0,3.213,0V12.853a3.213,3.213,0,0,1,6.427,0V34.7a1.607,1.607,0,1,0,3.213,0V19.28a3.213,3.213,0,0,1,6.427,0V57.424a18.9,18.9,0,0,1-2.962,10.165,25.318,25.318,0,0,0-3.423,11.459H132.15a1.607,1.607,0,1,0,0,3.213h7.23a1.607,1.607,0,0,0,1.607-1.607v-.21a22.188,22.188,0,0,1,2.962-11.129,22.1,22.1,0,0,0,3.465-11.891V19.28A6.434,6.434,0,0,0,140.987,12.853ZM120.1,45.951c3.579,0,4.827,4.265,4.879,4.448a1.607,1.607,0,0,0,3.1-.006c.012-.045,1.26-4.442,4.877-4.442,2.748,0,4.82,2.337,4.82,5.437,0,3.73-3.371,6.6-8.957,11.362-.741.632-1.5,1.278-2.289,1.96-.789-.682-1.548-1.328-2.289-1.96-5.586-4.759-8.957-7.632-8.957-11.362C115.28,48.289,117.352,45.951,120.1,45.951Z" transform="translate(-96)"/></g><g transform="translate(115.28 45.951)"><path class="b" d="M220.82,286c3.579,0,4.827,4.265,4.879,4.448a1.607,1.607,0,0,0,3.1-.006c.012-.045,1.26-4.442,4.877-4.442,2.748,0,4.82,2.337,4.82,5.437,0,3.73-3.371,6.6-8.957,11.362-.741.632-1.5,1.278-2.289,1.96-.789-.682-1.548-1.328-2.289-1.96-5.586-4.759-8.957-7.632-8.957-11.362C216,288.337,218.072,286,220.82,286Z" transform="translate(-216 -286)"/></g></g></svg>