<svg xmlns="http://www.w3.org/2000/svg" xmlns:xlink="http://www.w3.org/1999/xlink" width="64" height="64" viewBox="0 0 64 64"><defs><style>.a{fill:url(#a);}.b{fill:#626265;}.c{fill:#fff;}</style><linearGradient id="a" x1="0.5" x2="0.5" y2="1" gradientUnits="objectBoundingBox"><stop offset="0" stop-color="#8455ce"/><stop offset="1" stop-color="#44168d"/></linearGradient></defs><g transform="translate(-16 -16)"><path class="a" d="M320,32h19.2V42.667h-7.467a1.067,1.067,0,0,0-1.067,1.067h-2.133a1.067,1.067,0,0,0-1.067-1.067H320Z" transform="translate(-263.467 -13.867)"/><path class="a" d="M51.2,360.533H32v-7.467A1.067,1.067,0,0,1,33.067,352H50.133a1.067,1.067,0,0,1,1.067,1.067Z" transform="translate(-13.867 -291.2)"/><path class="a" d="M410.667,354.133A1.067,1.067,0,0,1,409.6,355.2h-8.533A1.067,1.067,0,0,1,400,354.133V337.067A1.067,1.067,0,0,1,401.067,336a3.21,3.21,0,0,0,3.2,3.2H406.4a3.21,3.21,0,0,0,3.2-3.2,1.067,1.067,0,0,1,1.067,1.067Z" transform="translate(-332.8 -277.333)"/><path class="a" d="M46.933,50.133A1.067,1.067,0,0,1,45.867,51.2h-12.8A1.067,1.067,0,0,1,32,50.133V33.067A1.067,1.067,0,0,1,33.067,32h12.8a1.067,1.067,0,0,1,1.067,1.067Z" transform="translate(-13.867 -13.867)"/><path class="b" d="M316.238,29.195a1.067,1.067,0,0,0-.821-.395h-.939V17.067A1.067,1.067,0,0,0,313.411,16H292.078a1.067,1.067,0,0,0-1.067,1.067V28.8h-.939a1.067,1.067,0,0,0-.821.395,1.055,1.055,0,0,0-.213.9l.928,4.267a1.067,1.067,0,0,0,1.045.843h23.467a1.067,1.067,0,0,0,1.045-.843l.928-4.267A1.055,1.055,0,0,0,316.238,29.195ZM293.144,18.133h19.2V28.8h-7.467a1.067,1.067,0,0,0-1.067,1.067h-2.133a1.067,1.067,0,0,0-1.067-1.067h-7.467Zm20.48,14.933h-21.76l-.459-2.133h8.139A1.067,1.067,0,0,0,300.611,32h4.267a1.067,1.067,0,0,0,1.067-1.067h8.139Z" transform="translate(-236.611 0)"/><path class="b" d="M36.267,336H19.2a3.21,3.21,0,0,0-3.2,3.2v10.667a3.21,3.21,0,0,0,3.2,3.2h4.043l-.715,2.944a1.048,1.048,0,0,0,.192.917,1.067,1.067,0,0,0,.843.405H31.9a1.067,1.067,0,0,0,.843-.405,1.048,1.048,0,0,0,.192-.917l-.715-2.944h4.043a3.21,3.21,0,0,0,3.2-3.2V339.2A3.21,3.21,0,0,0,36.267,336ZM24.917,355.2l.523-2.133h4.587l.523,2.133Zm12.416-5.333a1.067,1.067,0,0,1-1.067,1.067H19.2a1.067,1.067,0,0,1-1.067-1.067V348.8h19.2Zm0-3.2h-19.2V339.2a1.067,1.067,0,0,1,1.067-1.067H36.267a1.067,1.067,0,0,1,1.067,1.067Z" transform="translate(0 -277.333)"/><path class="b" d="M395.733,320H387.2a3.21,3.21,0,0,0-3.2,3.2v17.067a3.21,3.21,0,0,0,3.2,3.2h8.533a3.21,3.21,0,0,0,3.2-3.2V323.2A3.21,3.21,0,0,0,395.733,320Zm-2.133,2.133a1.067,1.067,0,0,1-1.067,1.067H390.4a1.067,1.067,0,0,1-1.067-1.067Zm3.2,18.133a1.067,1.067,0,0,1-1.067,1.067H387.2a1.067,1.067,0,0,1-1.067-1.067V323.2a1.067,1.067,0,0,1,1.067-1.067,3.21,3.21,0,0,0,3.2,3.2h2.133a3.21,3.21,0,0,0,3.2-3.2A1.067,1.067,0,0,1,396.8,323.2Z" transform="translate(-318.933 -263.467)"/><path class="b" d="M32,16H19.2A3.21,3.21,0,0,0,16,19.2V36.267a3.21,3.21,0,0,0,3.2,3.2H32a3.21,3.21,0,0,0,3.2-3.2V19.2A3.21,3.21,0,0,0,32,16Zm1.067,20.267A1.067,1.067,0,0,1,32,37.333H19.2a1.067,1.067,0,0,1-1.067-1.067V19.2A1.067,1.067,0,0,1,19.2,18.133H32A1.067,1.067,0,0,1,33.067,19.2Z" transform="translate(0 0)"/><rect class="c" width="2" height="2" transform="translate(25 33)"/><path class="b" d="M190.528,176.64l-2.56-.32,1.589-2.037a1.06,1.06,0,0,0-.1-1.408l-2.869-2.869a1.067,1.067,0,0,0-1.408-.1l-2.037,1.589-.32-2.56A1.08,1.08,0,0,0,181.76,168h-4.053a1.08,1.08,0,0,0-1.067.939l-.32,2.56-2.037-1.589a1.067,1.067,0,0,0-1.408.1l-2.869,2.869a1.06,1.06,0,0,0-.1,1.408l1.589,2.037-2.56.32a1.08,1.08,0,0,0-.939,1.067v4.053a1.08,1.08,0,0,0,.939,1.067l2.56.32-1.589,2.037a1.06,1.06,0,0,0,.1,1.408l2.869,2.869a1.067,1.067,0,0,0,1.408.1l2.037-1.589.32,2.56a1.08,1.08,0,0,0,1.067.939h4.053a1.08,1.08,0,0,0,1.067-.939l.32-2.56,2.037,1.589a1.067,1.067,0,0,0,1.408-.1l2.869-2.869a1.06,1.06,0,0,0,.1-1.408l-1.589-2.037,2.56-.32a1.08,1.08,0,0,0,.939-1.067v-4.053A1.08,1.08,0,0,0,190.528,176.64Zm-1.195,4.181-2.528.32a1.05,1.05,0,0,0-.875.715c-.1.256-.2.512-.32.757a1.044,1.044,0,0,0,.117,1.12l1.568,2.016-1.547,1.547-2.016-1.568a1.044,1.044,0,0,0-1.12-.117,8.276,8.276,0,0,1-.768.32,1.055,1.055,0,0,0-.7.875l-.32,2.528h-2.176l-.32-2.528a1.055,1.055,0,0,0-.7-.875,8.278,8.278,0,0,1-.768-.32,1.044,1.044,0,0,0-1.12.117l-2.016,1.568-1.547-1.547,1.568-2.016a1.044,1.044,0,0,0,.117-1.12c-.117-.245-.224-.5-.32-.757a1.05,1.05,0,0,0-.875-.715l-2.528-.32v-2.176l2.528-.32a1.049,1.049,0,0,0,.875-.715c.1-.256.2-.512.32-.757a1.044,1.044,0,0,0-.117-1.12l-1.568-2.016,1.547-1.547,2.016,1.568a1.044,1.044,0,0,0,1.12.117c.245-.117.5-.224.757-.32a1.05,1.05,0,0,0,.715-.875l.32-2.528h2.176l.32,2.528a1.05,1.05,0,0,0,.715.875c.256.1.512.2.757.32a1.044,1.044,0,0,0,1.12-.117l2.016-1.568,1.547,1.547-1.568,2.016a1.044,1.044,0,0,0-.117,1.12c.117.245.224.5.32.757a1.049,1.049,0,0,0,.875.715l2.528.32Z" transform="translate(-131.733 -131.733)"/><path class="b" d="M226.667,221.333a5.333,5.333,0,1,0-5.333,5.333A5.333,5.333,0,0,0,226.667,221.333Zm-5.333,3.2a3.2,3.2,0,1,1,3.2-3.2A3.2,3.2,0,0,1,221.333,224.533Z" transform="translate(-173.333 -173.333)"/><path class="b" d="M360,184.533v2.133h4.267a1.067,1.067,0,0,0,1.067-1.067V176H363.2v8.533Z" transform="translate(-298.133 -138.667)"/><path class="b" d="M88,249.067V257.6h2.133v-7.467h6.4V248H89.067A1.067,1.067,0,0,0,88,249.067Z" transform="translate(-62.4 -201.067)"/><path class="b" d="M185.6,103.467h2.133v-6.4A1.067,1.067,0,0,0,186.667,96H176v2.133h9.6Z" transform="translate(-138.667 -69.333)"/><path class="b" d="M250.133,360H248v8.533a1.067,1.067,0,0,0,1.067,1.067H264v-2.133H250.133Z" transform="translate(-201.067 -298.133)"/></g></svg>