<svg xmlns="http://www.w3.org/2000/svg" xmlns:xlink="http://www.w3.org/1999/xlink" width="74" height="76.269" viewBox="0 0 74 76.269"><defs><style>.a{fill:url(#a);}.b{fill:#4b4b4b;}</style><linearGradient id="a" x1="0.5" x2="0.5" y2="1" gradientUnits="objectBoundingBox"><stop offset="0" stop-color="#8455ce"/><stop offset="1" stop-color="#44168d"/></linearGradient></defs><g transform="translate(-56 -42.266)"><circle class="a" cx="23.871" cy="23.871" r="23.871" transform="translate(79.871 46.922)"/><g transform="translate(56 42.266)"><g transform="translate(21.484 2.268)"><path class="b" d="M198.387,107.044a26.258,26.258,0,1,1,26.258-26.258A26.288,26.288,0,0,1,198.387,107.044Zm0-49A22.743,22.743,0,1,0,221.13,80.786,22.769,22.769,0,0,0,198.387,58.043Z" transform="translate(-172.129 -54.528)"/></g><g transform="translate(0)"><path class="b" d="M328.95,313.3a26.087,26.087,0,0,1-11.693,4.441A13.124,13.124,0,1,0,328.95,313.3Zm-1.756,23.74A10.742,10.742,0,1,1,337.936,326.3,10.753,10.753,0,0,1,327.194,337.043Z" transform="translate(-266.323 -263.161)"/><circle class="b" cx="1.194" cy="1.194" r="1.194" transform="translate(4.774 69.107)"/><path class="b" d="M86.795,282.76,82.258,287.3l-3.086-3.087,4.537-4.537q-.777-.918-1.469-1.906l-4.755,4.755-1.194-1.193L57.832,299.787a6.257,6.257,0,0,0,8.849,8.849l18.458-18.458-1.194-1.194L88.7,284.23q-.987-.693-1.9-1.471Zm-21.8,24.189a3.87,3.87,0,0,1-5.474-5.474l13.19-13.19,5.474,5.474ZM79.871,292.07,74.4,286.6,76.29,284.7l5.474,5.474Z" transform="translate(-56 -234.199)"/><path class="b" d="M81.419,65.821a26.086,26.086,0,0,1,5.128-11.409,13.124,13.124,0,1,0-5.128,11.409ZM65.874,47.793a10.742,10.742,0,1,1,0,15.191A10.754,10.754,0,0,1,65.874,47.793Z" transform="translate(-59.543 -42.266)"/></g></g></g></svg>