<svg xmlns="http://www.w3.org/2000/svg" xmlns:xlink="http://www.w3.org/1999/xlink" width="103" height="108.758" viewBox="0 0 103 108.758"><defs><style>.a{fill:url(#a);}.b{fill:#4b4b4b;}</style><linearGradient id="a" x1="0.5" x2="0.5" y2="1" gradientUnits="objectBoundingBox"><stop offset="0" stop-color="#8455ce"/><stop offset="1" stop-color="#44168d"/></linearGradient></defs><g transform="translate(-13.553)"><g transform="translate(24.081 11.001)"><path class="a" d="M70.361,117.362H80.844v-2.848H72.6a2.241,2.241,0,0,0-2.234,2.234Zm56.967-61.948a3.779,3.779,0,0,0,2.661-.933,1.59,1.59,0,0,1,2.24.163,5.938,5.938,0,0,0,5.582,1.794v-2.42a2.241,2.241,0,0,0-2.234-2.228h-6.015a2.241,2.241,0,0,0-2.234,2.228v1.4ZM69.94,130.3H68.272a5.181,5.181,0,0,0-5.154,5.154v6.491a19.828,19.828,0,0,0,4.558,2.77V138.4a1.593,1.593,0,1,1,3.185,0v7.388a19.94,19.94,0,0,0,9.484,0V138.4a1.592,1.592,0,1,1,3.185,0v6.311a19.679,19.679,0,0,0,4.564-2.776v-6.485a5.192,5.192,0,0,0-5.16-5.154H81.266a8.378,8.378,0,0,1-11.326,0Zm68.294-62.725a8.394,8.394,0,0,1-11.326,0h-1.668a5.171,5.171,0,0,0-5.154,5.154v6.485a19.851,19.851,0,0,0,4.558,2.776V75.67a1.593,1.593,0,1,1,3.185,0v7.394a19.939,19.939,0,0,0,9.484,0V75.67a1.593,1.593,0,1,1,3.185,0v6.316a19.778,19.778,0,0,0,4.564-2.782V72.726a5.181,5.181,0,0,0-5.16-5.154h-1.667Z" transform="translate(-63.118 -51.79)"/></g><g transform="translate(13.553)"><path class="b" d="M44.418,86.34a8.356,8.356,0,0,1,7.816,8.321V97.9A19.83,19.83,0,1,0,20.9,97.9V94.662A8.356,8.356,0,0,1,28.72,86.34a8.35,8.35,0,0,1-.578-3.059V75.959a5.427,5.427,0,0,1,5.419-5.419H43.4a1.591,1.591,0,0,1,1.6,1.6V83.282a8.341,8.341,0,0,1-.578,3.059Zm-13.09-9.767H41.811V73.725H33.562a2.241,2.241,0,0,0-2.234,2.234Zm10.483,3.185H31.328v3.523a5.241,5.241,0,0,0,10.483,0V79.759ZM98.778,18.841a9.125,9.125,0,0,1-6.967-1.909,6.968,6.968,0,0,1-3.517.873v2.751a5.242,5.242,0,0,0,10.483,0ZM88.3,14.626a3.779,3.779,0,0,0,2.661-.933,1.59,1.59,0,0,1,2.24.163,5.938,5.938,0,0,0,5.582,1.794v-2.42A2.241,2.241,0,0,0,96.544,11H90.529a2.241,2.241,0,0,0-2.234,2.228v1.4ZM30.906,89.507H29.238a5.181,5.181,0,0,0-5.154,5.154v6.491a19.829,19.829,0,0,0,4.558,2.77V97.612a1.593,1.593,0,1,1,3.185,0V105a19.94,19.94,0,0,0,9.484,0V97.612a1.592,1.592,0,1,1,3.185,0v6.311a19.679,19.679,0,0,0,4.564-2.776V94.662a5.192,5.192,0,0,0-5.16-5.154H42.232a8.378,8.378,0,0,1-11.326,0Zm71.057-68.951a8.313,8.313,0,0,1-.578,3.053,8.344,8.344,0,0,1,7.816,8.328v3.24a19.833,19.833,0,1,0-31.335-.012V31.937a8.367,8.367,0,0,1,7.822-8.328,8.313,8.313,0,0,1-.578-3.053V13.229a5.427,5.427,0,0,1,5.419-5.413h6.015a5.427,5.427,0,0,1,5.419,5.413v7.328ZM99.2,26.783a8.394,8.394,0,0,1-11.326,0H86.206a5.171,5.171,0,0,0-5.154,5.154v6.485A19.85,19.85,0,0,0,85.609,41.2V34.882a1.593,1.593,0,1,1,3.185,0v7.394a19.939,19.939,0,0,0,9.484,0V34.882a1.593,1.593,0,1,1,3.185,0V41.2a19.778,19.778,0,0,0,4.564-2.782V31.937a5.181,5.181,0,0,0-5.16-5.154H99.2ZM55.323,72.395c1.373-.265,2.836-.482,4.341-.65,1.259-.133,2.535-.229,3.793-.271v-15.5H47.531c.036,1.6.12,3.167.253,4.7.163,1.867.391,3.655.674,5.359a22.874,22.874,0,0,1,4.384,3.432,23.431,23.431,0,0,1,2.481,2.926Zm11.326-.927a47.339,47.339,0,0,1,13.187,2.24,64.869,64.869,0,0,0,2.74-17.733H66.649Zm16.167,3.348a30.942,30.942,0,0,1,8.117,4.871,36.4,36.4,0,0,0,5.738-7.671,1.588,1.588,0,0,1,2.776,1.541,39.373,39.373,0,0,1-34.394,20.2,40.6,40.6,0,0,1-4.088-.211c-.879-.1-1.752-.211-2.613-.361A23.014,23.014,0,1,1,27.065,64.778a38.474,38.474,0,0,1-.939-4.426,39.906,39.906,0,0,1-.452-5.973,39.5,39.5,0,0,1,2.24-13.108,1.59,1.59,0,1,1,3,1.06A36.185,36.185,0,0,0,28.895,52.79H44.345A67.617,67.617,0,0,1,47.29,33.943a31.1,31.1,0,0,1-8.117-4.865,36.033,36.033,0,0,0-5.347,6.991,1.588,1.588,0,0,1-2.74-1.608A39.338,39.338,0,0,1,65.053,15a38.878,38.878,0,0,1,4.088.217c.879.09,1.752.211,2.613.355a23.01,23.01,0,1,1,31.287,28.415,38.652,38.652,0,0,1,.939,4.42,39.906,39.906,0,0,1,.452,5.973,39.8,39.8,0,0,1-1.963,12.3,1.589,1.589,0,1,1-3.022-.982,35.44,35.44,0,0,0,1.764-9.719H85.76a67.614,67.614,0,0,1-2.945,18.841ZM88.6,81.872a27.919,27.919,0,0,0-6.828-4.047q-.822,2.113-1.77,3.992a29,29,0,0,1-5.208,7.437A36.115,36.115,0,0,0,88.6,81.872Zm-9.809-5.16a44.229,44.229,0,0,0-12.139-2.059V90.417c4.016-.777,7.7-4.468,10.513-10.032a39.617,39.617,0,0,0,1.626-3.673Zm-15.33-2.053c-1.162.042-2.324.127-3.462.247-.981.109-1.957.247-2.908.4a22.919,22.919,0,0,1,2.5,10.435,23.434,23.434,0,0,1-.175,2.848,11.486,11.486,0,0,0,2.463,1.367,8.951,8.951,0,0,0,1.584.464ZM41.51,26.885a27.974,27.974,0,0,0,6.834,4.052,42.767,42.767,0,0,1,1.764-3.992,28.857,28.857,0,0,1,5.208-7.436A36.233,36.233,0,0,0,41.51,26.885Zm9.809,5.16A44.006,44.006,0,0,0,63.457,34.1V18.341c-4.016.777-7.7,4.468-10.513,10.038A38.863,38.863,0,0,0,51.318,32.046Zm15.33,2.059c1.216-.036,2.4-.12,3.553-.247.963-.1,1.9-.235,2.824-.391a22.923,22.923,0,0,1-2.5-10.453,23.339,23.339,0,0,1,.175-2.842A11.082,11.082,0,0,0,68.232,18.8a8.951,8.951,0,0,0-1.584-.464Zm8.141,2.264q-2.077.415-4.251.65c-1.282.139-2.583.235-3.89.271v15.5H82.575q-.054-2.4-.253-4.709c-.163-1.867-.391-3.655-.674-5.353a23.227,23.227,0,0,1-6.858-6.359Zm-11.332.921a47.342,47.342,0,0,1-13.187-2.24,64.9,64.9,0,0,0-2.74,17.739H63.458V37.29Zm21.664,7.153q.226,1.671.373,3.366.207,2.438.265,4.979h15.451a34.653,34.653,0,0,0-.379-3.908,35.3,35.3,0,0,0-.783-3.781,23.114,23.114,0,0,1-14.927-.656ZM44.984,64.314c-.151-1.114-.277-2.234-.373-3.36q-.208-2.448-.265-4.979H28.9a36.288,36.288,0,0,0,.379,3.908,35.654,35.654,0,0,0,.783,3.782,23.162,23.162,0,0,1,14.927.65Z" transform="translate(-13.553)"/></g></g></svg>