<svg xmlns="http://www.w3.org/2000/svg" width="92" height="92" viewBox="0 0 92 92"><defs><style>.a{fill:#4b4b4b;}</style></defs><path class="a" d="M74.542,47.348h4.007a6.793,6.793,0,1,0,0-2.7H74.542A28.465,28.465,0,0,0,67.126,26.78l7.217-7.217a8.622,8.622,0,1,0-1.906-1.906L65.22,24.874a28.464,28.464,0,0,0-17.873-7.416V13.451a6.793,6.793,0,1,0-2.7,0v4.006A28.465,28.465,0,0,0,26.78,24.873l-7.216-7.216a8.6,8.6,0,0,0-2.15-12.2A1.348,1.348,0,0,0,15.9,7.7a5.912,5.912,0,1,1-4.919-.785,1.348,1.348,0,0,0-.736-2.593,8.609,8.609,0,1,0,7.407,15.246l7.216,7.216a28.465,28.465,0,0,0-7.416,17.873H13.451a6.793,6.793,0,1,0,0,2.7h4.007A28.465,28.465,0,0,0,24.874,65.22l-7.217,7.217a8.622,8.622,0,1,0,1.906,1.906l7.217-7.217a28.464,28.464,0,0,0,17.873,7.416v4.007a6.794,6.794,0,1,0,2.7,0V74.542A28.465,28.465,0,0,0,65.22,67.127l7.216,7.216A8.6,8.6,0,1,0,87.566,76.67a1.348,1.348,0,1,0-2.557.852,5.91,5.91,0,1,1-3.448-3.63,1.348,1.348,0,0,0,.986-2.509,8.6,8.6,0,0,0-8.2,1.052L67.127,65.22a28.467,28.467,0,0,0,7.415-17.873ZM85.207,41.9a4.1,4.1,0,1,1-4.1,4.1A4.1,4.1,0,0,1,85.207,41.9ZM79.4,6.689A5.913,5.913,0,1,1,73.486,12.6,5.919,5.919,0,0,1,79.4,6.689Zm-37.5.1a4.1,4.1,0,1,1,4.1,4.1,4.1,4.1,0,0,1-4.1-4.1ZM6.793,50.1a4.1,4.1,0,1,1,4.1-4.1A4.1,4.1,0,0,1,6.793,50.1ZM46,20.121A25.879,25.879,0,1,1,20.121,46,25.909,25.909,0,0,1,46,20.121ZM12.6,85.311A5.913,5.913,0,1,1,18.514,79.4,5.919,5.919,0,0,1,12.6,85.311Zm37.5-.1a4.1,4.1,0,1,1-4.1-4.1A4.1,4.1,0,0,1,50.1,85.207Z"/><path class="a" d="M165,183.577h12.1a1.348,1.348,0,0,0,0-2.7H173.97V178.6a1.348,1.348,0,1,0-2.7,0v2.282h-4.928v-6.638a5.919,5.919,0,0,1,5.912-5.914h15.974a5.919,5.919,0,0,1,5.912,5.914v6.638h-4.928V178.6a1.348,1.348,0,1,0-2.7,0v2.282H183.39a1.348,1.348,0,1,0,0,2.7h12.1a1.348,1.348,0,0,0,1.348-1.348v-7.985a8.618,8.618,0,0,0-8.607-8.609h-1a10.423,10.423,0,1,0-13.973,0h-1a8.618,8.618,0,0,0-8.607,8.609v7.985A1.347,1.347,0,0,0,165,183.577Zm7.518-25.67a7.728,7.728,0,1,1,7.728,7.728,7.737,7.737,0,0,1-7.728-7.728Z" transform="translate(-134.246 -120.983)"/></svg>