<svg xmlns="http://www.w3.org/2000/svg" xmlns:xlink="http://www.w3.org/1999/xlink" width="93.999" height="93.999" viewBox="0 0 93.999 93.999"><defs><style>.a{fill:url(#a);}.b{fill:#4b4b4b;}</style><linearGradient id="a" x1="0.5" x2="0.5" y2="1" gradientUnits="objectBoundingBox"><stop offset="0" stop-color="#8455ce"/><stop offset="1" stop-color="#44168d"/></linearGradient></defs><g transform="translate(-0.001)"><g transform="translate(27.203 13.586)"><path class="a" d="M183.251,78.711a4.551,4.551,0,0,1,4.535,4.245h-2.552a13.382,13.382,0,0,1-6.156-1.5A4.551,4.551,0,0,1,183.251,78.711Zm-22.314,2.34h0a7.052,7.052,0,0,1,14.015-1.121l-3.091-1.816a1.836,1.836,0,0,0-2.337.4,7.91,7.91,0,0,1-6.077,2.836h-2.51v-.3Zm-8.233-2.34a4.552,4.552,0,0,1,4.173,2.745,13.382,13.382,0,0,1-6.156,1.5h-2.552A4.551,4.551,0,0,1,152.7,78.711Z" transform="translate(-148.169 -74)"/></g><g transform="translate(14.068 86.433)"><path class="b" d="M82.721,475.458l-2.764-3.893a1.836,1.836,0,1,0-2.994,2.125l2.764,3.893a1.836,1.836,0,1,0,2.994-2.126Z" transform="translate(-76.624 -470.791)"/></g><g transform="translate(0.001 28.723)"><path class="b" d="M41.347,219.514l-3.008-14.336A27.037,27.037,0,0,0,26.9,188.2l-6.422-4.318a6.46,6.46,0,0,0-8.189.836V162.6A6.146,6.146,0,0,0,2.3,157.805,6.117,6.117,0,0,0,0,162.6v28.466a17.783,17.783,0,0,0,3.3,10.349l3.274,4.612A1.836,1.836,0,1,0,9.569,203.9L6.3,199.289a14.131,14.131,0,0,1-2.622-8.224V162.6a2.474,2.474,0,1,1,4.948,0v22.585a12.828,12.828,0,0,0,3.308,8.613c.091.11.185.218.285.323,1.219,1.292,2.653,2.814,4,4.249l1.89,2.012.019.018,2.834,3.016a1.836,1.836,0,1,0,2.676-2.514c-.033-.036-2.183-2.324-4.637-4.933l-4.21-4.48-.031-.035a3.1,3.1,0,0,1,.06-4.06,2.776,2.776,0,0,1,3.614-.461l6.422,4.318a23.384,23.384,0,0,1,9.89,14.681l3.008,14.336a1.836,1.836,0,1,0,3.593-.754Z" transform="translate(-0.001 -156.451)"/></g><g transform="translate(10.261 81.069)"><path class="b" d="M59.226,442.362l-.012-.017a1.836,1.836,0,0,0-2.989,2.133l.012.017a1.836,1.836,0,0,0,2.989-2.133Z" transform="translate(-55.884 -441.575)"/></g><g transform="translate(52.614 28.724)"><path class="b" d="M325.666,157.808a6.146,6.146,0,0,0-9.992,4.794v22.122a6.46,6.46,0,0,0-8.189-.836l-6.422,4.318a27.036,27.036,0,0,0-11.435,16.974l-3.008,14.336a1.836,1.836,0,1,0,3.593.754l3.008-14.336a23.384,23.384,0,0,1,9.89-14.681l6.422-4.318a2.776,2.776,0,0,1,3.614.461,3.1,3.1,0,0,1,.064,4.056l-.035.039L304.33,200.9a1.836,1.836,0,1,0,2.676,2.514c.025-.026,7.527-8,8.746-9.295.1-.105.193-.214.285-.323a12.828,12.828,0,0,0,3.309-8.613V162.6a2.474,2.474,0,1,1,4.948,0v28.466a14.131,14.131,0,0,1-2.622,8.224L307.8,218.83a1.836,1.836,0,1,0,2.994,2.126l13.871-19.539a17.784,17.784,0,0,0,3.3-10.349V162.6A6.119,6.119,0,0,0,325.666,157.808Z" transform="translate(-286.58 -156.454)"/></g><g transform="translate(17.146 9.914)"><path class="b" d="M146.5,79.273l-3.266-.78v-.586a8.211,8.211,0,0,0,3.515-6.732V66.928A8.21,8.21,0,0,0,133.2,60.683a10.72,10.72,0,0,0-19.868.015,8.21,8.21,0,0,0-13.565,6.23v4.246a8.211,8.211,0,0,0,3.515,6.732v.586l-3.266.78a8.6,8.6,0,0,0-6.624,8.392v3.429a1.836,1.836,0,0,0,1.836,1.836h8.436c-.013.223-.022.446-.022.672v6.6a1.836,1.836,0,0,0,1.836,1.836h11.036a1.836,1.836,0,0,0,0-3.672h-1.9V94.574a1.836,1.836,0,0,0-3.672,0v3.794h-3.631V93.6a7.6,7.6,0,0,1,5.848-7.415L118.2,84.98l3.372,7.671a1.836,1.836,0,0,0,1.68,1.1h0a1.836,1.836,0,0,0,1.681-1.1l3.368-7.659,5.022,1.2a7.6,7.6,0,0,1,5.853,7.417v4.76h-3.631V94.574a1.836,1.836,0,1,0-3.672,0v3.794h-2.081a1.836,1.836,0,1,0,0,3.672h11.219a1.836,1.836,0,0,0,1.836-1.836v-6.6c0-.227-.009-.453-.022-.677h8.46a1.836,1.836,0,0,0,1.836-1.836V87.665A8.6,8.6,0,0,0,146.5,79.273Zm-7.968-16.89a4.551,4.551,0,0,1,4.535,4.245h-2.552a13.382,13.382,0,0,1-6.156-1.5A4.551,4.551,0,0,1,138.529,62.383Zm-4.545,8.523c0-.089.007-.178.007-.268V69a17.054,17.054,0,0,0,6.521,1.3h2.562v.874a4.545,4.545,0,1,1-9.09,0Zm-17.769-6.183h0A7.052,7.052,0,0,1,130.23,63.6l-3.091-1.816a1.836,1.836,0,0,0-2.337.4,7.91,7.91,0,0,1-6.077,2.836h-2.51v-.3Zm-8.233-2.34a4.552,4.552,0,0,1,4.173,2.745,13.382,13.382,0,0,1-6.156,1.5h-2.552A4.551,4.551,0,0,1,107.982,62.383ZM103.437,70.3H106a17.055,17.055,0,0,0,6.528-1.3v2.174a4.545,4.545,0,0,1-9.09,0V70.3ZM112.3,82.616a11.259,11.259,0,0,0-7.8,6.642H97.062V87.665a4.941,4.941,0,0,1,3.8-4.821l4.676-1.117a1.836,1.836,0,0,0,1.409-1.786v-.617a7.97,7.97,0,0,0,2.053,0v.524c0,.027,0,.055,0,.082a1.839,1.839,0,0,0,1.492,1.806l2.739.656Zm5.121-2.85a8.614,8.614,0,0,0-1.47-.5l-3.28-.786v-.572a8.284,8.284,0,0,0,1.591-1.454,10.808,10.808,0,0,0,3.159,3.166v.142Zm7.974,2.7-2.148,4.886-2.153-4.9v-1.31a10.759,10.759,0,0,0,4.3.007Zm-2.133-4.774a7.059,7.059,0,0,1-7.052-7.052V68.7h2.51a11.568,11.568,0,0,0,7.8-3.014l3.786,2.224v3A7.059,7.059,0,0,1,123.267,77.69Zm5.8,2.082v-.124a10.8,10.8,0,0,0,3.185-3.174,8.282,8.282,0,0,0,1.578,1.438v.572l-3.28.786A8.645,8.645,0,0,0,129.072,79.772Zm20.377,9.486h-7.467a11.257,11.257,0,0,0-7.807-6.638l-.922-.22,2.753-.66a1.838,1.838,0,0,0,1.5-1.808c0-.014,0-.029,0-.043v-.563a7.97,7.97,0,0,0,2.053,0v.617a1.836,1.836,0,0,0,1.409,1.786l4.676,1.117a4.941,4.941,0,0,1,3.805,4.821v1.593Z" transform="translate(-93.39 -54)"/></g><g transform="translate(45.164 54.282)"><path class="b" d="M249.134,296.206a1.837,1.837,0,1,0,.538,1.3A1.85,1.85,0,0,0,249.134,296.206Z" transform="translate(-246 -295.67)"/></g><g transform="translate(45.163)"><path class="b" d="M247.829,0a1.836,1.836,0,0,0-1.836,1.836V4.583a1.836,1.836,0,0,0,3.672,0V1.836A1.836,1.836,0,0,0,247.829,0Z" transform="translate(-245.993)"/></g><g transform="translate(35.177 3.527)"><path class="b" d="M196.659,21.674l-1.926-1.924a1.836,1.836,0,1,0-2.6,2.6l1.926,1.924a1.836,1.836,0,1,0,2.595-2.6Z" transform="translate(-191.599 -19.213)"/></g><g transform="translate(53.196 3.574)"><path class="b" d="M294.79,20.006a1.836,1.836,0,0,0-2.6,0l-1.911,1.913a1.836,1.836,0,1,0,2.6,2.6l1.911-1.913A1.836,1.836,0,0,0,294.79,20.006Z" transform="translate(-289.746 -19.469)"/></g></g></svg>