<svg xmlns="http://www.w3.org/2000/svg" xmlns:xlink="http://www.w3.org/1999/xlink" width="100" height="97" viewBox="0 0 100 97"><defs><style>.a{fill:#4b4b4b;}.b{fill:url(#a);}.c{fill:#fff;font-size:18px;font-family:NunitoSans-Black, Nunito Sans;font-weight:800;}.d{fill:none;}</style><linearGradient id="a" x1="0.5" x2="0.5" y2="1" gradientUnits="objectBoundingBox"><stop offset="0" stop-color="#31c426"/><stop offset="1" stop-color="#1ea114"/></linearGradient></defs><g transform="translate(0 -0.325)"><g transform="translate(2.143 11.519)"><g transform="translate(15.38)"><path class="a" d="M309.174,65.247a13.431,13.431,0,0,0-1.768-5.942,1.18,1.18,0,0,0-1.583-.434,1.114,1.114,0,0,0-.447,1.539,11.2,11.2,0,0,1,1.451,4.621h-6.6a1.131,1.131,0,1,0,0,2.262h7.7a9.661,9.661,0,0,1-1.837,19.193H284a1.131,1.131,0,1,0,0,2.262h22.087A12.128,12.128,0,0,0,318.366,76.8,11.981,11.981,0,0,0,309.174,65.247Z" transform="translate(-238.984 -52.284)"/><path class="a" d="M36.1,30.84h7.084a1.147,1.147,0,0,0,1.163-1.131A11.626,11.626,0,0,1,56.113,18.262a11.98,11.98,0,0,1,7.6,2.707,1.185,1.185,0,0,0,1.639-.132,1.109,1.109,0,0,0-.136-1.594A14.345,14.345,0,0,0,56.113,16,13.965,13.965,0,0,0,42.064,28.579H36.1a12.433,12.433,0,0,0-8.355,3.189,11.807,11.807,0,0,0-3.755,6.762H3.393A3.35,3.35,0,0,0,0,41.828V47.51a1.147,1.147,0,0,0,1.163,1.131A1.147,1.147,0,0,0,2.326,47.51V41.828a1.054,1.054,0,0,1,1.067-1.037H30.276a1.01,1.01,0,0,1,.717.3L38.461,48.7a.945.945,0,0,1,.274.666v4.475h-.062a3.3,3.3,0,0,0-3.356,3.137,3.126,3.126,0,0,0,.94,2.3,3.308,3.308,0,0,0,2.345.957h.132v24.7a1.054,1.054,0,0,1-1.067,1.038H29.692l-.284-.763a2.9,2.9,0,0,0-2.722-1.856H14.375A2.9,2.9,0,0,0,11.652,85.2l-.284.763H3.393a1.054,1.054,0,0,1-1.067-1.038v-32.9A1.147,1.147,0,0,0,1.163,50.9,1.147,1.147,0,0,0,0,52.033v32.9a3.351,3.351,0,0,0,3.393,3.3h8.791a1.161,1.161,0,0,0,1.093-.746l.563-1.508a.57.57,0,0,1,.535-.365H26.686a.57.57,0,0,1,.535.365l.562,1.508a1.162,1.162,0,0,0,1.094.746h8.791a3.351,3.351,0,0,0,3.393-3.3V59.8a1.864,1.864,0,0,0-1.888-1.835H38.6a.946.946,0,0,1-.96-.952.992.992,0,0,1,1.03-.916H39.9a1.147,1.147,0,0,0,1.163-1.131V49.362a3.165,3.165,0,0,0-.918-2.227l-7.467-7.607a3.38,3.38,0,0,0-2.4-1H26.352A9.945,9.945,0,0,1,36.1,30.84Z" transform="translate(0 -16)"/><path class="a" d="M88.308,215.488a1.147,1.147,0,0,0,1.163-1.131v-1.613a1.163,1.163,0,0,0-2.326,0v1.613A1.147,1.147,0,0,0,88.308,215.488Z" transform="translate(-73.634 -182.12)"/><path class="a" d="M113.491,215.488a1.147,1.147,0,0,0,1.163-1.131v-1.613a1.163,1.163,0,0,0-2.326,0v1.613A1.147,1.147,0,0,0,113.491,215.488Z" transform="translate(-94.912 -182.12)"/><path class="a" d="M138.671,215.488a1.147,1.147,0,0,0,1.163-1.131v-1.613a1.163,1.163,0,0,0-2.326,0v1.613A1.147,1.147,0,0,0,138.671,215.488Z" transform="translate(-116.188 -182.12)"/><path class="a" d="M163.85,215.488a1.147,1.147,0,0,0,1.163-1.131v-1.613a1.163,1.163,0,0,0-2.326,0v1.613A1.147,1.147,0,0,0,163.85,215.488Z" transform="translate(-137.464 -182.12)"/><path class="b" d="M406.2,383.461a3.622,3.622,0,1,0,3.723,3.62A3.677,3.677,0,0,0,406.2,383.461Zm0,4.979a1.36,1.36,0,1,1,1.4-1.359A1.38,1.38,0,0,1,406.2,388.44Z" transform="translate(-340.073 -328.059)"/><path class="a" d="M418.988,348.035a1.163,1.163,0,0,0,2.326,0v-.345a1.163,1.163,0,0,0-2.326,0Z" transform="translate(-354.027 -296.72)"/><path class="a" d="M418.988,312.535a1.163,1.163,0,0,0,2.326,0v-.345a1.163,1.163,0,0,0-2.326,0Z" transform="translate(-354.027 -266.573)"/><path class="a" d="M420.151,278.166a1.147,1.147,0,0,0,1.163-1.131v-.345a1.163,1.163,0,0,0-2.326,0v.345A1.147,1.147,0,0,0,420.151,278.166Z" transform="translate(-354.027 -236.425)"/><path class="a" d="M296.092,399.973h-.355a1.131,1.131,0,1,0,0,2.262h.355a1.131,1.131,0,1,0,0-2.262Z" transform="translate(-248.903 -342.081)"/><path class="a" d="M331.592,399.973h-.355a1.131,1.131,0,1,0,0,2.262h.355a1.131,1.131,0,1,0,0-2.262Z" transform="translate(-278.899 -342.081)"/><path class="a" d="M367.092,399.973h-.355a1.131,1.131,0,1,0,0,2.262h.355a1.131,1.131,0,1,0,0-2.262Z" transform="translate(-308.895 -342.081)"/><path class="b" d="M51.727,351.494a1.147,1.147,0,0,0,1.163,1.131h22.7a1.131,1.131,0,1,0,0-2.262H52.89A1.147,1.147,0,0,0,51.727,351.494Z" transform="translate(-43.707 -299.951)"/><path class="b" d="M51.727,398.3a1.147,1.147,0,0,0,1.163,1.131h22.7a1.131,1.131,0,1,0,0-2.262H52.89A1.147,1.147,0,0,0,51.727,398.3Z" transform="translate(-43.707 -339.699)"/><path class="b" d="M51.727,304.69a1.147,1.147,0,0,0,1.163,1.131h22.7a1.131,1.131,0,1,0,0-2.262H52.89A1.147,1.147,0,0,0,51.727,304.69Z" transform="translate(-43.707 -260.203)"/></g><ellipse class="b" cx="12.143" cy="11.808" rx="12.143" ry="11.808" transform="translate(0 50.301)"/><text class="c" transform="translate(7.143 67.301)"><tspan x="0" y="0">2</tspan></text></g><rect class="d" width="100" height="97" transform="translate(0 0.325)"/></g></svg>