<svg xmlns="http://www.w3.org/2000/svg" xmlns:xlink="http://www.w3.org/1999/xlink" width="100" height="98" viewBox="0 0 100 98"><defs><style>.a{fill:#4b4b4b;}.b{fill:url(#a);}.c{fill:#fff;font-size:18px;font-family:NunitoSans-Black, Nunito Sans;font-weight:800;}.d{fill:none;}</style><linearGradient id="a" x1="0.5" x2="0.5" y2="1" gradientUnits="objectBoundingBox"><stop offset="0" stop-color="#31c426"/><stop offset="1" stop-color="#1ea114"/></linearGradient></defs><g transform="translate(0 0.377)"><g transform="translate(6.429 11.924)"><g transform="translate(17.038)"><path class="a" d="M201.738,23.467h-1.013a7.246,7.246,0,0,0-1.282.114.761.761,0,0,0-.105.02,7.181,7.181,0,0,0-3.07,1.4.7.7,0,0,0-.107,1,.746.746,0,0,0,1.029.1,5.649,5.649,0,0,1,1.607-.884v1.746a.732.732,0,0,0,1.464,0V24.909q.231-.018.464-.019h2.141q.234,0,.464.019v2.059a.732.732,0,0,0,1.464,0V25.222a5.506,5.506,0,0,1,3.676,4.7h-2.8a.712.712,0,1,0,0,1.424h2.816v3.6h-2.816a.712.712,0,1,0,0,1.424h2.816v3.6h-2.816a.712.712,0,1,0,0,1.424h2.8a5.569,5.569,0,0,1-5.6,5.026h-2.141a5.569,5.569,0,0,1-5.6-5.026h2.8a.712.712,0,1,0,0-1.424H195.1v-3.6h2.816a.712.712,0,1,0,0-1.424H195.1v-3.6h2.816a.712.712,0,1,0,0-1.424h-2.8a5.3,5.3,0,0,1,.49-1.834.7.7,0,0,0-.362-.943.741.741,0,0,0-.97.351,6.693,6.693,0,0,0-.64,2.867v.259a.1.1,0,0,0,0,.011s0,.007,0,.011v3.142h-2.557a1.867,1.867,0,1,0-.048,3.734v3.424a9.572,9.572,0,0,0,9.691,9.425h.339v4.3a7.136,7.136,0,0,0-4.875,2.616,1.421,1.421,0,0,0-.167,1.544,1.525,1.525,0,0,0,1.376.84h8.8a1.524,1.524,0,0,0,1.376-.84,1.421,1.421,0,0,0-.167-1.544,7.136,7.136,0,0,0-4.874-2.616v-4.3h.339a9.572,9.572,0,0,0,9.692-9.425V37.515a1.9,1.9,0,0,0,1.872-1.867,1.823,1.823,0,0,0-.562-1.318,1.932,1.932,0,0,0-1.359-.548h-2.557V30.358a6.7,6.7,0,0,0-.362-2.175l-.684-1.424a7.107,7.107,0,0,0-4.677-3.164c-.02,0-.04-.009-.06-.012a7.361,7.361,0,0,0-.969-.109m3.049,34.69c.008.01.014.018,0,.043a.061.061,0,0,1-.06.038H197.4a.06.06,0,0,1-.059-.038c-.013-.025-.006-.033,0-.043a5.762,5.762,0,0,1,8.911,0ZM190.626,35.648a.45.45,0,0,1,.456-.443h2.557v.887h-2.557A.45.45,0,0,1,190.626,35.648Zm12.24,13.293h-2.141a8.126,8.126,0,0,1-8.227-8V37.516h1.141v3.423a7,7,0,0,0,7.086,6.891h2.141a7,7,0,0,0,7.087-6.891v-.245c0-.008,0-.016,0-.025s0-.016,0-.024V37.516h1.142v3.423A8.126,8.126,0,0,1,202.866,48.941Zm9.644-13.736a.458.458,0,0,1,.324.131.43.43,0,0,1,.133.312.451.451,0,0,1-.457.444h-2.557v-.887Z" transform="translate(-169.11 -23.467)"/><path class="b" d="M70.979,216.1h-5.8A8.081,8.081,0,0,0,57,224.061a7.735,7.735,0,0,0,.245,1.93l.734,2.86h.21a3.007,3.007,0,0,1,2.841-1.971h1.007v-.143a2.932,2.932,0,0,1,1.67-2.628l.733-.357-.011-.052a4.433,4.433,0,0,0,3.632,2.59l6.064.589h1.007a3.008,3.008,0,0,1,2.841,1.971h.21l.734-2.859a7.735,7.735,0,0,0,.245-1.93,8.081,8.081,0,0,0-8.183-7.957Z" transform="translate(-54.985 -178.094)"/><path class="b" d="M271.557,234.663a10.7,10.7,0,0,1,4.348-2.2l.837-2.443h.037a4.878,4.878,0,0,1-2.889-4.414v-5.647a3.535,3.535,0,0,1,2.015-3.17l5.037,2.939h5.037v5.878a4.878,4.878,0,0,1-2.889,4.414h.037l.837,2.443a10.7,10.7,0,0,1,4.348,2.2,7.459,7.459,0,0,0,2.7-5.728v-8.224a11.085,11.085,0,0,0-22.162,0v8.224A7.459,7.459,0,0,0,271.557,234.663Z" transform="translate(-228.09 -172.681)"/><path class="a" d="M58.911,279.951l-.29-.844a.008.008,0,0,1,0-.01,4.906,4.906,0,0,0,2.419-3.232.009.009,0,0,1,.009-.007h0a3.922,3.922,0,1,0,.093-7.837h-.955l-6.016-.585a3.376,3.376,0,0,1-3.1-3.324.009.009,0,0,0-.009-.009h-2a.009.009,0,0,0-.009.009,5.244,5.244,0,0,0,.156,1.262.008.008,0,0,1,0,.01,3.9,3.9,0,0,0-2.063,2.631.009.009,0,0,1-.009.007h0a3.922,3.922,0,1,0-.094,7.837h.1a4.909,4.909,0,0,0,2.419,3.239.009.009,0,0,1,0,.01l-.287.838a.009.009,0,0,1-.006.006A11.355,11.355,0,0,0,41,290.795v2.688a.009.009,0,0,0,.009.009l21.4.006h2.74c1.32,0,2.045,0,2.045-.984v-1.718a11.355,11.355,0,0,0-8.281-10.843Zm4.251-8.01a1.989,1.989,0,0,1-2.005,1.959.009.009,0,0,1-.01-.009v-3.9a.01.01,0,0,1,.01-.009A1.989,1.989,0,0,1,63.162,271.941Zm-18.133,0a1.989,1.989,0,0,1,2.005-1.959.009.009,0,0,1,.009.009v3.9a.009.009,0,0,1-.009.009A1.99,1.99,0,0,1,45.029,271.941Zm14.489,10.323-.856,1.962a.009.009,0,0,1-.013,0L56.2,282.8a.009.009,0,0,1,0-.016l2.017-.98h.007a9.993,9.993,0,0,1,1.292.458Zm-5.7,5.351h.55a.009.009,0,0,1,.009.006l1.339,3.906a.009.009,0,0,1-.009.012H52.482a.009.009,0,0,1-.009-.012l1.339-3.9A.009.009,0,0,1,53.82,287.615Zm.626-1.959h-.7a.009.009,0,0,1-.008-.005l-.573-1.238a.009.009,0,0,1,0-.011l.923-.54a.009.009,0,0,1,.009,0l.924.539a.009.009,0,0,1,0,.011l-.573,1.239A.009.009,0,0,1,54.446,285.656Zm-5.388-16.8a1.94,1.94,0,0,1,.987-1.687.01.01,0,0,1,.012,0,5.481,5.481,0,0,0,3.918,2.212l5.148.5a.009.009,0,0,1,.008.009v4.974a2.99,2.99,0,0,1-3.031,2.948H52.09a2.99,2.99,0,0,1-3.031-2.948Zm3.022,10.919h4.029a4.848,4.848,0,0,0,.589-.058.009.009,0,0,1,.01.006l.18.527a.009.009,0,0,1,0,.011L54.1,281.62a.01.01,0,0,1-.008,0l-2.786-1.355a.009.009,0,0,1,0-.011l.18-.527a.009.009,0,0,1,.01-.006A5.094,5.094,0,0,0,52.081,279.778Zm-2.112,2.028,2.02.982a.009.009,0,0,1,0,.016l-2.447,1.427a.009.009,0,0,1-.013,0l-.852-1.953a.009.009,0,0,1,0-.012,9.728,9.728,0,0,1,1.287-.456Zm-6.954,8.989a9.267,9.267,0,0,1,3.9-7.521.01.01,0,0,1,.014,0l1.654,3.788a.009.009,0,0,0,.013,0l2.818-1.644a.009.009,0,0,1,.013,0l.583,1.256a.009.009,0,0,1,0,.006L50.35,291.53a.009.009,0,0,1-.009.006l-7.317,0a.009.009,0,0,1-.009-.009Zm22.153.743H57.852a.009.009,0,0,1-.009-.006l-1.659-4.839a.01.01,0,0,1,0-.007l.583-1.256a.009.009,0,0,1,.013,0l2.818,1.644a.009.009,0,0,0,.013,0l1.654-3.788a.009.009,0,0,1,.014,0,9.264,9.264,0,0,1,3.9,7.52v.734A.009.009,0,0,1,65.168,291.537Z" transform="translate(-41 -220.216)"/><path class="a" d="M266.956,291.033h11.378a.7.7,0,0,0,.711-.691v-2.007a11.34,11.34,0,0,0-7.953-10.741.694.694,0,0,1-.442-.434l-.133-.388a.677.677,0,0,1,.226-.754A5.808,5.808,0,0,0,273,271.441v-5.186a.7.7,0,0,0-.711-.691H271.7a.7.7,0,0,0-.711.691v4.5a4.676,4.676,0,0,1-4.74,4.61h-.593a4.676,4.676,0,0,1-4.74-4.61v-4.955a2.508,2.508,0,0,1,.555-1.578.728.728,0,0,1,.93-.171l3.431,2a.722.722,0,0,0,.975-.237l.305-.494a.681.681,0,0,0-.244-.949L262.3,261.7a.729.729,0,0,0-.683-.026l-.146.071a4.493,4.493,0,0,0-2.572,4.047v5.647a5.809,5.809,0,0,0,2.257,4.577.677.677,0,0,1,.226.754l-.133.388a.694.694,0,0,1-.442.434,11.341,11.341,0,0,0-7.952,10.741v2.007a.7.7,0,0,0,.711.691h11.378m0-13.715h2.015a5.973,5.973,0,0,0,.958-.078.715.715,0,0,1,.8.462l.211.616a.677.677,0,0,1,.037.24,8.539,8.539,0,0,1-.359,2.188.706.706,0,0,1-.681.491h-3.944a.705.705,0,0,1-.681-.491,8.532,8.532,0,0,1-.359-2.188.675.675,0,0,1,.037-.24l.211-.616a.715.715,0,0,1,.8-.462A5.966,5.966,0,0,0,264.941,277.319Zm1.549,7.032-.028.029a.721.721,0,0,1-1.028,0l-.028-.029a.689.689,0,0,1,.528-1.154h.028A.689.689,0,0,1,266.491,284.351Zm-11.623,3.985A9.32,9.32,0,0,1,260.123,280a.718.718,0,0,1,1.024.48,10.8,10.8,0,0,0,4.2,6.44l.179.131a.727.727,0,0,0,.852,0l.18-.131a10.8,10.8,0,0,0,4.2-6.441.718.718,0,0,1,1.024-.48,9.319,9.319,0,0,1,5.256,8.337v.047a.7.7,0,0,1-.711.691h-20.74a.7.7,0,0,1-.711-.691Z" transform="translate(-214.105 -218.023)"/><path class="a" d="M352.968,244.563l1.038-1.681,5.04,2.942-1.038,1.681Z" transform="translate(-301.613 -201.593)"/><path class="a" d="M330.5,115.492l-4.885.683a1.093,1.093,0,0,0-.5.2l0,0-.014.011,0,0-.013.01-.017.014,0,0-.015.013,0,0-.017.015,0,0-.038.037,0,0-.015.016,0,0-.014.014,0,0-.014.017-.01.012,0,0-.011.014v0a1.028,1.028,0,0,0-.207.484l-.7,4.751a1.052,1.052,0,0,0,.912,1.184,1.071,1.071,0,0,0,1.218-.887l.4-2.685,7.9,7.678a1.027,1.027,0,0,1,0,1.479l-2.4,2.335a1.026,1.026,0,0,0,0,1.479,1.1,1.1,0,0,0,1.521,0l2.4-2.335a3.081,3.081,0,0,0,0-4.438l-7.9-7.678,2.761-.386a1.085,1.085,0,0,0,.607-.3,1.026,1.026,0,0,0,.3-.889A1.071,1.071,0,0,0,330.5,115.492Z" transform="translate(-276.83 -97.49)"/><path class="a" d="M124.618,116.379a1.025,1.025,0,0,0,.3.889,1.085,1.085,0,0,0,.607.3l2.761.386-7.9,7.678a3.081,3.081,0,0,0,0,4.438l2.4,2.335a1.1,1.1,0,0,0,1.521,0,1.025,1.025,0,0,0,0-1.479l-2.4-2.335a1.027,1.027,0,0,1,0-1.479l7.895-7.678.4,2.685a1.071,1.071,0,0,0,1.218.887,1.051,1.051,0,0,0,.912-1.184l-.7-4.751a1.026,1.026,0,0,0-.206-.484v0l-.011-.014,0,0-.01-.012-.014-.017,0,0-.013-.014,0,0-.015-.016,0,0-.038-.037,0,0-.016-.015,0,0-.015-.013,0,0-.017-.014-.013-.01,0,0-.014-.011,0,0a1.092,1.092,0,0,0-.5-.2l-4.885-.683A1.07,1.07,0,0,0,124.618,116.379Z" transform="translate(-113.416 -97.49)"/><ellipse class="a" cx="1.706" cy="1.659" rx="1.706" ry="1.659" transform="translate(30.827 11.878)"/></g><ellipse class="b" cx="12.143" cy="11.808" rx="12.143" ry="11.808" transform="translate(0 49.202)"/><text class="c" transform="translate(7.143 65.202)"><tspan x="0" y="0">3</tspan></text></g><rect class="d" width="100" height="98" transform="translate(0 -0.377)"/></g></svg>