<svg xmlns="http://www.w3.org/2000/svg" xmlns:xlink="http://www.w3.org/1999/xlink" width="100" height="97" viewBox="0 0 100 97"><defs><style>.a{fill:#4b4b4b;}.b{fill:url(#a);}.c{fill:#fff;font-size:18px;font-family:NunitoSans-Black, Nunito Sans;font-weight:800;}.d{fill:none;}</style><linearGradient id="a" x1="0.5" x2="0.5" y2="1" gradientUnits="objectBoundingBox"><stop offset="0" stop-color="#31c426"/><stop offset="1" stop-color="#1ea114"/></linearGradient></defs><g transform="translate(0 0.025)"><g transform="translate(5 21.359)"><g transform="translate(17.857)"><path class="a" d="M47.21,129.507a4,4,0,1,0,4.11,4V122.728a1.706,1.706,0,0,0-.619-1.309,1.8,1.8,0,0,0-1.424-.4l-11.5,1.714a1.731,1.731,0,0,0-1.505,1.7v7.487a4.18,4.18,0,0,0-1.982-.5,4,4,0,1,0,4.11,4V124.738l10.792-1.609V130A4.175,4.175,0,0,0,47.21,129.507Zm0,5.925a1.928,1.928,0,1,1,1.982-1.928A1.957,1.957,0,0,1,47.21,135.432Zm-12.921,1.926a1.929,1.929,0,1,1,1.982-1.928A1.958,1.958,0,0,1,34.289,137.358Z" transform="translate(-25.889 -111.864)"/><path class="a" d="M55.677,175.846a1.05,1.05,0,0,0-1.064,1.035v.772H2.128V158.181a1.05,1.05,0,0,0-1.064-1.035A1.05,1.05,0,0,0,0,158.181v24.294a3.9,3.9,0,0,0,3.944,3.835H27.307v4.724H22.171a3.384,3.384,0,1,0,0,6.765h12.4a3.384,3.384,0,1,0,0-6.765H29.435V186.31H52.8a3.9,3.9,0,0,0,3.944-3.835V176.88A1.05,1.05,0,0,0,55.677,175.846ZM34.571,193.1a1.313,1.313,0,1,1,0,2.626h-12.4a1.313,1.313,0,1,1,0-2.626Zm20.042-10.628a1.793,1.793,0,0,1-1.816,1.766H3.944a1.793,1.793,0,0,1-1.816-1.766v-2.753H54.613Z" transform="translate(0 -143.011)"/><path class="a" d="M1.064,65.992a1.05,1.05,0,0,0,1.064-1.035V58.727a1.793,1.793,0,0,1,1.816-1.765H52.8a1.792,1.792,0,0,1,1.815,1.765v7.728a1.064,1.064,0,0,0,2.128,0V58.727A3.9,3.9,0,0,0,52.8,54.892H3.944A3.9,3.9,0,0,0,0,58.727v6.231A1.05,1.05,0,0,0,1.064,65.992Z" transform="translate(0 -54.892)"/><path class="a" d="M393.392,229.37,381.36,209.1a3.75,3.75,0,0,0-5.039-1.313,3.537,3.537,0,0,0-1.35,4.9l3.237,5.452h0L387,232.956a3.652,3.652,0,0,0,2.24,1.671,3.8,3.8,0,0,0,.961.124,3.748,3.748,0,0,0,1.838-.482A3.537,3.537,0,0,0,393.392,229.37Zm-16.577-17.713a1.5,1.5,0,0,1,.571-2.072,1.591,1.591,0,0,1,1.184-.152,1.547,1.547,0,0,1,.947.707l2.7,4.556-2.7,1.517Zm14.163,20.82a1.591,1.591,0,0,1-1.184.152,1.545,1.545,0,0,1-.947-.707L380.584,218l2.7-1.518,8.263,13.917A1.5,1.5,0,0,1,390.978,232.476Z" transform="translate(-321.246 -186.242)"/><path class="a" d="M203.687,166.68v1.656a1.064,1.064,0,0,0,2.128,0V166.68a1.064,1.064,0,0,0-2.128,0Z" transform="translate(-174.733 -150.335)"/><path class="b" d="M233.773,151.377v5.887a1.064,1.064,0,0,0,2.128,0v-5.887a1.064,1.064,0,0,0-2.128,0Z" transform="translate(-200.542 -137.147)"/><path class="a" d="M263.851,112.59V129.2a1.064,1.064,0,0,0,2.128,0V112.59a1.064,1.064,0,0,0-2.128,0Z" transform="translate(-226.344 -103.722)"/><path class="b" d="M293.941,151.377v5.887a1.064,1.064,0,0,0,2.128,0v-5.887a1.064,1.064,0,0,0-2.128,0Z" transform="translate(-252.157 -137.147)"/><path class="b" d="M324.022,166.68v1.656a1.064,1.064,0,0,0,2.128,0V166.68a1.064,1.064,0,0,0-2.128,0Z" transform="translate(-277.962 -150.335)"/><path class="a" d="M354.108,139.721v9.109a1.065,1.065,0,0,0,2.128,0v-9.109a1.065,1.065,0,0,0-2.128,0Z" transform="translate(-303.771 -127.103)"/><path class="a" d="M385.254,165.645a1.05,1.05,0,0,0-1.064,1.035v1.656a1.064,1.064,0,0,0,2.128,0V166.68A1.05,1.05,0,0,0,385.254,165.645Z" transform="translate(-329.577 -150.335)"/><path class="b" d="M388.764,373.6a5.693,5.693,0,0,0-3.386-3.293,5.689,5.689,0,0,0,3.386-3.293,5.691,5.691,0,0,0,3.386,3.293A5.694,5.694,0,0,0,388.764,373.6Z" transform="translate(-330.596 -323.865)"/><path class="b" d="M422.305,163.769a5.693,5.693,0,0,0,3.386,3.293,5.688,5.688,0,0,0-3.386,3.292,5.692,5.692,0,0,0-3.386-3.292A5.691,5.691,0,0,0,422.305,163.769Z" transform="translate(-359.369 -148.718)"/></g><ellipse class="b" cx="12.143" cy="11.808" rx="12.143" ry="11.808" transform="translate(0 31.431)"/><text class="c" transform="translate(6.143 47.431)"><tspan x="0" y="0">4</tspan></text></g><rect class="d" width="100" height="97" transform="translate(0 -0.025)"/></g></svg>