<svg xmlns="http://www.w3.org/2000/svg" xmlns:xlink="http://www.w3.org/1999/xlink" width="100" height="97" viewBox="0 0 100 97"><defs><style>.a{fill:#4b4b4b;}.b{fill:url(#a);}.c{fill:#fff;font-size:18px;font-family:NunitoSans-Black, Nunito Sans;font-weight:800;}.d{fill:none;}</style><linearGradient id="a" x1="0.5" x2="0.5" y2="1" gradientUnits="objectBoundingBox"><stop offset="0" stop-color="#31c426"/><stop offset="1" stop-color="#1ea114"/></linearGradient></defs><g transform="translate(0 -0.245)"><g transform="translate(3.571 9.956)"><g transform="translate(15.714)"><path class="a" d="M138.062,330.856a3.8,3.8,0,1,0,3.911,3.8v-9.641a1.784,1.784,0,0,0-.647-1.37,1.89,1.89,0,0,0-1.491-.414l-10.251,1.528a1.812,1.812,0,0,0-1.575,1.785v6.362a3.982,3.982,0,0,0-1.571-.321,3.8,3.8,0,1,0,3.911,3.8v-9.442l9.284-1.384v5.61A3.992,3.992,0,0,0,138.062,330.856Zm-11.624,7.063a1.528,1.528,0,1,1,1.57-1.528A1.551,1.551,0,0,1,126.438,337.918Zm11.624-1.732a1.528,1.528,0,1,1,1.571-1.528A1.552,1.552,0,0,1,138.062,336.186Z" transform="translate(-104.817 -274.181)"/><path class="a" d="M60.318,286.476V275.107a1.17,1.17,0,0,0-2.34,0v11.272H42.734a2.619,2.619,0,0,0-2.652,2.579.308.308,0,0,1-.312.3H33.1a.308.308,0,0,1-.312-.3,2.619,2.619,0,0,0-2.652-2.579H14.888V263.034h43.09v7.522a1.17,1.17,0,0,0,2.34,0V259.338a3.044,3.044,0,0,0-3.082-3H28.661a1.138,1.138,0,1,0,0,2.275H57.236a.733.733,0,0,1,.742.722v1.421H14.888v-1.421a.734.734,0,0,1,.743-.722h8.35a1.138,1.138,0,1,0,0-2.276h-8.35a3.044,3.044,0,0,0-3.083,3v27.138a4.363,4.363,0,0,0,.949,8.647H59.369a4.363,4.363,0,0,0,.949-8.647Zm-.948,6.372H13.5a2.1,2.1,0,1,1,0-4.194H30.132a.308.308,0,0,1,.312.3,2.619,2.619,0,0,0,2.652,2.579H39.77a2.619,2.619,0,0,0,2.652-2.579.308.308,0,0,1,.312-.3H59.369a2.1,2.1,0,1,1,0,4.194Z" transform="translate(-9 -217.453)"/><path class="a" d="M230.8,15.033a10.335,10.335,0,0,0-5.638-3.046,13.35,13.35,0,0,0-26.54-.178h-4.734a10.159,10.159,0,0,0-10.286,10,10.159,10.159,0,0,0,10.286,10h22.627a1.138,1.138,0,1,0,0-2.276H193.888a7.848,7.848,0,0,1-7.946-7.728,7.848,7.848,0,0,1,7.946-7.727h5.854a1.155,1.155,0,0,0,1.17-1.138,10.978,10.978,0,0,1,21.948-.011v.032a1.15,1.15,0,0,0,1.07,1.148,8,8,0,0,1,5.153,2.46,7.582,7.582,0,0,1,2.1,5.237,7.848,7.848,0,0,1-7.946,7.727H221.2a1.138,1.138,0,1,0,0,2.276h2.044a10.159,10.159,0,0,0,10.286-10A9.816,9.816,0,0,0,230.8,15.033Z" transform="translate(-156.364)"/><path class="b" d="M85.438,121.928l4.3,3.129.04.027,0,0,.02.012a1.182,1.182,0,0,0,.564.184h.157a1.182,1.182,0,0,0,.564-.184l.019-.012h0l.039-.028,4.3-3.129a1.118,1.118,0,0,0,.235-1.593,1.192,1.192,0,0,0-1.638-.229l-2.428,1.768v-11.81a1.155,1.155,0,0,1,1.17-1.138h3.693a1.138,1.138,0,1,0,0-2.276H92.779a3.467,3.467,0,0,0-3.51,3.413v11.81l-2.428-1.768a1.192,1.192,0,0,0-1.638.229A1.118,1.118,0,0,0,85.438,121.928Z" transform="translate(-73.118 -90.473)"/><path class="b" d="M375.614,253.081l-4.3-3.129a1.19,1.19,0,0,0-.541-.217h0l-.02,0h-.007l-.018,0-.024,0h-.183l-.024,0-.018,0h-.007l-.02,0h0a1.184,1.184,0,0,0-.541.217l-4.3,3.129a1.118,1.118,0,0,0-.235,1.593,1.191,1.191,0,0,0,1.638.229l2.428-1.768v11.81a1.155,1.155,0,0,1-1.17,1.138H364.58a1.138,1.138,0,1,0,0,2.275h3.693a3.467,3.467,0,0,0,3.51-3.413v-11.81l2.428,1.768a1.19,1.19,0,0,0,.7.227,1.178,1.178,0,0,0,.937-.456A1.116,1.116,0,0,0,375.614,253.081Z" transform="translate(-308.123 -211.841)"/></g><ellipse class="b" cx="12.143" cy="11.808" rx="12.143" ry="11.808" transform="translate(0 53.948)"/><text class="c" transform="translate(7.143 70.948)"><tspan x="0" y="0">5</tspan></text></g><rect class="d" width="100" height="97" transform="translate(0 0.245)"/></g></svg>