<svg xmlns="http://www.w3.org/2000/svg" xmlns:xlink="http://www.w3.org/1999/xlink" width="88" height="88" viewBox="0 0 88 88"><defs><style>.a{fill:url(#a);}.b{fill:#4b4b4b;}.c{fill:#fff;}</style><linearGradient id="a" x1="0.5" x2="0.5" y2="1" gradientUnits="objectBoundingBox"><stop offset="0" stop-color="#3ba1e1"/><stop offset="1" stop-color="#166b9f"/></linearGradient></defs><g transform="translate(-115 -115)"><path class="a" d="M282.623,238.624H244.046a5.428,5.428,0,0,0-5.423,5.423v38.577a5.428,5.428,0,0,0,5.423,5.423h38.577a5.428,5.428,0,0,0,5.423-5.423V244.047A5.428,5.428,0,0,0,282.623,238.624Z" transform="translate(-85.046 -85.046)"/><path class="b" d="M150.644,163.133a1.289,1.289,0,0,0-1.289-1.289H120.422A2.847,2.847,0,0,1,117.578,159V120.422a2.847,2.847,0,0,1,2.844-2.844H159a2.847,2.847,0,0,1,2.844,2.844v28.933a1.289,1.289,0,1,0,2.578,0V120.422A5.429,5.429,0,0,0,159,115H120.422A5.429,5.429,0,0,0,115,120.422V159a5.428,5.428,0,0,0,5.422,5.422h28.933A1.289,1.289,0,0,0,150.644,163.133Z" transform="translate(0 0)"/><path class="b" d="M176.41,153.076H165.3V151.61a1.289,1.289,0,0,0-2.578,0v1.466H151.61a1.289,1.289,0,1,0,0,2.578h18.983A35.972,35.972,0,0,1,164,167.648a36.292,36.292,0,0,1-5.176-8.305,1.289,1.289,0,0,0-2.352,1.056,38.851,38.851,0,0,0,5.791,9.192,34.861,34.861,0,0,1-7.187,5.715,1.289,1.289,0,1,0,1.327,2.211A37.509,37.509,0,0,0,164,171.5a37.566,37.566,0,0,0,7.61,6.017,1.289,1.289,0,0,0,1.327-2.211,34.989,34.989,0,0,1-7.2-5.717,38.765,38.765,0,0,0,4.57-6.688,35.8,35.8,0,0,0,2.972-7.244h3.126a1.289,1.289,0,0,0,0-2.578Z" transform="translate(-24.299 -24.299)"/><path class="c" d="M295.141,275.092a1.844,1.844,0,0,0-1.712-1.147h0a1.845,1.845,0,0,0-1.712,1.15l-.012.029-9.312,24.451a1.289,1.289,0,1,0,2.409.917l2-5.259h13.183l1.983,5.256a1.289,1.289,0,0,0,2.412-.91l-9.228-24.452c0-.011-.009-.023-.014-.035Zm-7.355,17.563,5.64-14.808,5.588,14.808Z" transform="translate(-115.098 -109.345)"/><path class="b" d="M183.54,300.946l-5.511-4.133a1.289,1.289,0,0,0-1.547,2.063l2.417,1.813h-4.4a8.365,8.365,0,0,1-8.355-8.355v-8.266a1.289,1.289,0,0,0-2.578,0v8.266A10.946,10.946,0,0,0,174.5,303.266h4.4l-2.417,1.813a1.289,1.289,0,0,0,1.547,2.062l5.511-4.133a1.289,1.289,0,0,0,0-2.063Z" transform="translate(-33.411 -115.422)"/><path class="a" d="M283.291,156.775l5.511,4.133a1.289,1.289,0,1,0,1.547-2.062l-2.417-1.813h4.4a8.365,8.365,0,0,1,8.355,8.355v8.266a1.289,1.289,0,0,0,2.578,0v-8.266a10.946,10.946,0,0,0-10.934-10.933h-4.4l2.417-1.813a1.289,1.289,0,0,0-1.547-2.063l-5.511,4.134a1.289,1.289,0,0,0,0,2.062Z" transform="translate(-115.42 -24.299)"/></g></svg>