<svg xmlns="http://www.w3.org/2000/svg" xmlns:xlink="http://www.w3.org/1999/xlink" width="139.467" height="96.837" viewBox="0 0 139.467 96.837"><defs><style>.a{fill:url(#a);}.b{fill:#fff;}.c{fill:#4b4b4b;}</style><linearGradient id="a" x1="0.5" x2="0.5" y2="1" gradientUnits="objectBoundingBox"><stop offset="0" stop-color="#3ba1e1"/><stop offset="1" stop-color="#166b9f"/></linearGradient></defs><g transform="translate(-0.001 -68.713)"><g transform="translate(3.295 77.1)"><path class="a" d="M69.73,188.3A33.667,33.667,0,0,1,28.8,163.977c-.007-.026-.013-.056-.02-.085L17.68,120.1l65.464-16.544,11.1,43.818A33.745,33.745,0,0,1,69.73,188.3Z" transform="translate(-17.68 -103.556)"/></g><g transform="translate(15.584 109.664)"><path class="b" d="M70.908,201.507c-10.82-3.226-19.158,4.566-19.506,4.963a2.482,2.482,0,1,0,3.35,3.524,16.329,16.329,0,0,1,14.667-3.747,2.482,2.482,0,0,0,3.129-1.589c.008-.024.016-.049.023-.073A2.481,2.481,0,0,0,70.908,201.507Z" transform="translate(-50.234 -200.727)"/></g><g transform="translate(46.604 101.906)"><path class="b" d="M170.509,176.536v-.05c-10.82-3.2-19.158,4.566-19.506,4.963a2.484,2.484,0,1,0,3.425,3.6,16.155,16.155,0,0,1,14.667-3.747,2.485,2.485,0,0,0,1.415-4.765Z" transform="translate(-150.232 -175.715)"/></g><g transform="translate(30.585 128.657)"><path class="b" d="M134.119,263.743a2.534,2.534,0,0,0-3.028-1.712l-30.574,7.743a2.482,2.482,0,0,0-1.862,2.975v0c1.712,6.75,8.289,11.292,16.329,11.292a21.269,21.269,0,0,0,5.236-.67C130,280.891,136.228,272.106,134.119,263.743Zm-15.113,14.89h0a16.352,16.352,0,0,1-4,.5,12.185,12.185,0,0,1-10.547-5.236l25.089-6.353C129.329,272.4,125.085,277.094,119.005,278.633Z" transform="translate(-98.591 -261.953)"/></g><g transform="translate(0.001 68.713)"><g transform="translate(0 0)"><path class="c" d="M137.673,87.049l-.016-.006L71.547,68.8a2.484,2.484,0,0,0-3.052,1.734v0l-1.092,3.9-65.54,16.6a2.483,2.483,0,0,0-1.787,3l11.068,43.751a36.7,36.7,0,0,0,61.346,17.2A36.755,36.755,0,0,0,127.359,133.6L139.37,90.12A2.478,2.478,0,0,0,137.673,87.049ZM54.6,159.581a31.766,31.766,0,0,1-38.621-22.949c-.006-.025-.012-.053-.019-.081L5.485,95.232l61.768-15.61,10.473,41.344A31.84,31.84,0,0,1,54.6,159.581Zm28.291-23.452a36.562,36.562,0,0,0,.744-6.775c1.442-.236-1.442-.168,0,0l-.323-4.988c-1.551-.143,1.551-.211,0,0a36.786,36.786,0,0,0-.819-4.641l-4.169-16.255-1.712-6.8L71.721,77.414l.893-3.251,61.322,16.95-11.341,41.171a31.816,31.816,0,0,1-46.754,18.96,36.973,36.973,0,0,0,5.633-10.324" transform="translate(-0.001 -68.713)"/></g></g><g transform="translate(75.992 96.1)"><g transform="translate(0 0)"><path class="c" d="M245.051,160.319a2.213,2.213,0,0,0,2.72,1.548,14.4,14.4,0,0,1,13,3.627,2.213,2.213,0,1,0,3.118-3.14A19.9,19.9,0,0,0,251.022,157a16.559,16.559,0,0,0-4.423.6A2.213,2.213,0,0,0,245.051,160.319Z" transform="translate(-244.971 -157.001)"/></g></g><g transform="translate(101.755 103.37)"><path class="c" d="M328.1,183.755a2.213,2.213,0,0,0,2.72,1.548,14.4,14.4,0,0,1,13,3.627,2.213,2.213,0,1,0,3.118-3.14,19.9,19.9,0,0,0-12.871-5.352,16.56,16.56,0,0,0-4.423.6A2.213,2.213,0,0,0,328.1,183.755Z" transform="translate(-328.021 -180.437)"/></g><g transform="translate(80.877 120.487)"><path class="c" d="M292.807,263.926a2.258,2.258,0,0,0-1.7-2.59l-27.389-6.311a2.211,2.211,0,0,0-2.687,1.6v0c-1.391,6.048,1.973,12.326,8.347,15.6a18.95,18.95,0,0,0,4.424,1.6C282.56,275.843,291.074,271.415,292.807,263.926Zm-18.043,5.65h0a14.568,14.568,0,0,1-3.369-1.234,10.859,10.859,0,0,1-6.229-8.445l22.476,5.18C285.484,268.842,280.21,270.832,274.764,269.576Z" transform="translate(-260.717 -254.957)"/></g></g></svg>