<svg xmlns="http://www.w3.org/2000/svg" xmlns:xlink="http://www.w3.org/1999/xlink" width="100.328" height="102" viewBox="0 0 100.328 102"><defs><style>.a{fill:url(#a);}.b{fill:#4b4b4b;}.c{fill:#fff;}</style><linearGradient id="a" x1="0.5" x2="0.5" y2="1" gradientUnits="objectBoundingBox"><stop offset="0" stop-color="#3ba1e1"/><stop offset="1" stop-color="#166b9f"/></linearGradient></defs><g transform="translate(-16 -8)"><path class="a" d="M391.41,301.739a1.672,1.672,0,0,1-1.672,1.672H369.672A1.672,1.672,0,0,1,368,301.739V281.673A1.672,1.672,0,0,1,369.672,280h20.066a1.672,1.672,0,0,1,1.672,1.672Z" transform="translate(-278.426 -215.148)"/><path class="a" d="M171.7,24A11.7,11.7,0,1,1,160,35.7,11.7,11.7,0,0,1,171.7,24Z" transform="translate(-113.902 -12.656)"/><path class="b" d="M74.525,292.787H71.18V276.4a1.672,1.672,0,1,0-3.344,0v16.387H24.361V259.344H38.273a1.672,1.672,0,0,0,0-3.344H22.689a1.672,1.672,0,0,0-1.672,1.672v35.115H17.672A1.672,1.672,0,0,0,16,294.459V297.8a8.361,8.361,0,0,0,8.361,8.361H67.836A8.361,8.361,0,0,0,76.2,297.8v-3.344A1.672,1.672,0,0,0,74.525,292.787ZM72.852,297.8a5.016,5.016,0,0,1-5.016,5.016H64.492v-1.672a1.672,1.672,0,0,0-3.344,0v1.672h-30.1v-1.672a1.672,1.672,0,0,0-3.344,0v1.672H24.361a5.016,5.016,0,0,1-5.016-5.016v-1.672H72.852Z" transform="translate(0 -196.164)"/><path class="b" d="M400.361,51.344H403.7a1.672,1.672,0,0,0,0-3.344h-3.344a5.016,5.016,0,0,0-5.016,5.016v1.672h-1.672a1.672,1.672,0,0,0,0,3.344h1.672v5.016a1.672,1.672,0,1,0,3.344,0V58.033h1.672a1.672,1.672,0,1,0,0-3.344h-1.672V53.016A1.672,1.672,0,0,1,400.361,51.344Z" transform="translate(-297.41 -31.639)"/><path class="b" d="M377.082,16H357.016A5.016,5.016,0,0,0,352,21.016v3.344a1.672,1.672,0,0,0,3.344,0V21.016a1.672,1.672,0,0,1,1.672-1.672h20.066a1.672,1.672,0,0,1,1.672,1.672V41.082a1.672,1.672,0,0,1-1.672,1.672H357.016a1.672,1.672,0,0,1-1.672-1.672V31.049a1.672,1.672,0,0,0-3.344,0V41.082a5.016,5.016,0,0,0,5.016,5.016h20.066a5.016,5.016,0,0,0,5.016-5.016V21.016A5.016,5.016,0,0,0,377.082,16Z" transform="translate(-265.771 -6.328)"/><path class="c" d="M392,310.689A6.689,6.689,0,1,0,398.689,304,6.689,6.689,0,0,0,392,310.689Zm10.033,0a3.344,3.344,0,1,1-3.344-3.344A3.344,3.344,0,0,1,402.033,310.689Z" transform="translate(-297.41 -234.131)"/><path class="b" d="M377.082,264H357.016A5.016,5.016,0,0,0,352,269.017v20.066a5.018,5.018,0,0,0,5.016,5.016h20.066a5.018,5.018,0,0,0,5.016-5.016V269.017A5.016,5.016,0,0,0,377.082,264Zm1.672,25.082a1.672,1.672,0,0,1-1.672,1.672H357.016a1.672,1.672,0,0,1-1.672-1.672V269.017a1.672,1.672,0,0,1,1.672-1.672h20.066a1.672,1.672,0,0,1,1.672,1.672Z" transform="translate(-265.771 -202.493)"/><path class="c" d="M192.786,61.144a1.663,1.663,0,0,0,1.639.067l10.033-5.016a1.672,1.672,0,0,0,0-2.976L194.425,48.2A1.672,1.672,0,0,0,192,49.69V59.723A1.672,1.672,0,0,0,192.786,61.144Zm2.558-8.745,4.615,2.308-4.615,2.308Z" transform="translate(-139.213 -31.657)"/><path class="b" d="M159.049,38.1A15.049,15.049,0,1,0,144,23.049,15.049,15.049,0,0,0,159.049,38.1Zm0-26.754a11.7,11.7,0,1,1-11.7,11.7A11.7,11.7,0,0,1,159.049,11.344Z" transform="translate(-101.246)"/><path class="b" d="M289.672,146.037a1.673,1.673,0,0,0,1.338-.669l5.016-6.689a1.672,1.672,0,0,0-2.675-2.007l-5.016,6.689a1.672,1.672,0,0,0,1.338,2.675Z" transform="translate(-215.147 -101.25)"/><path class="b" d="M312.334,183.691a1.672,1.672,0,0,0,2.341.334l6.689-5.016a1.672,1.672,0,1,0-2.007-2.675l-6.689,5.016a1.672,1.672,0,0,0-.334,2.341Z" transform="translate(-234.131 -132.885)"/><path class="b" d="M347.04,225.188a1.672,1.672,0,0,0-1.941-1.351l-.066.013-8.361,1.672a1.68,1.68,0,0,0,.334,3.344h.334l8.361-1.672a1.672,1.672,0,0,0,1.351-1.941C347.049,225.231,347.045,225.209,347.04,225.188Z" transform="translate(-252.45 -170.702)"/><path class="b" d="M17.672,118.1H37.738a1.672,1.672,0,0,0,1.672-1.672V89.672A1.672,1.672,0,0,0,37.738,88H17.672A1.672,1.672,0,0,0,16,89.672v26.754A1.672,1.672,0,0,0,17.672,118.1Zm1.672-26.754H36.066v23.41H19.344Z" transform="translate(0 -63.279)"/><path class="b" d="M69.016,120H65.672a1.672,1.672,0,0,0,0,3.344h3.344a1.672,1.672,0,0,0,0-3.344Z" transform="translate(-37.967 -88.59)"/><path class="b" d="M56.361,152H49.672a1.672,1.672,0,1,0,0,3.344h6.689a1.672,1.672,0,1,0,0-3.344Z" transform="translate(-25.311 -113.902)"/><path class="b" d="M56.361,184H49.672a1.672,1.672,0,0,0,0,3.344h6.689a1.672,1.672,0,0,0,0-3.344Z" transform="translate(-25.311 -139.213)"/><path class="b" d="M117.56,193.548a1.678,1.678,0,0,0-2.91,1.672l7.374,12.758L95.271,218.011H95.02l-4.348,2.508-2.893,1.672a3.339,3.339,0,0,1-4.565-1.221l-3.344-5.786a3.344,3.344,0,0,1,1.254-4.414l5.786-3.344,4.18,7.24A1.678,1.678,0,1,0,94,212.995l-4.314-7.458,20.985-17.307.686,1.187a1.678,1.678,0,0,0,2.91-1.672l-1.672-2.893a1.694,1.694,0,0,0-2.525-.451l-23.41,19.3-7.123,4.113a6.688,6.688,0,0,0-3.077,7.575l-1.672.953A5.012,5.012,0,0,0,77.3,225.7a5.116,5.116,0,0,0,2.508-.669l1.672-.953A6.488,6.488,0,0,0,84.4,225.82a6.332,6.332,0,0,0,1.756.234,6.589,6.589,0,0,0,3.344-.9l1.455-.836,3.344,5.8a5.012,5.012,0,1,0,8.681-5.012l0,0-3.043-5.3,25.082-9.414a1.677,1.677,0,0,0,.87-2.391Zm-39.5,28.577a1.671,1.671,0,1,1-1.672-2.893l1.455-.836,1.672,2.893Zm22.005,4.682a1.671,1.671,0,0,1-2.893,1.672l-3.344-5.8,2.776-1.589h.134Z" transform="translate(-44.507 -139.23)"/></g></svg>