<svg xmlns="http://www.w3.org/2000/svg" xmlns:xlink="http://www.w3.org/1999/xlink" width="108" height="108" viewBox="0 0 108 108"><defs><style>.a{fill:url(#a);}.b{fill:#fff;}.c{fill:#4b4b4b;}</style><linearGradient id="a" x1="0.5" x2="0.5" y2="1" gradientUnits="objectBoundingBox"><stop offset="0" stop-color="#3ba1e1"/><stop offset="1" stop-color="#166b9f"/></linearGradient></defs><g transform="translate(-16 -16)"><path class="a" d="M265.6,70.8H224.2a5.4,5.4,0,0,1-5.4-5.4H208l10.8-10.8V29.4a5.4,5.4,0,0,1,5.4-5.4h41.4a5.4,5.4,0,0,1,5.4,5.4v36A5.4,5.4,0,0,1,265.6,70.8Z" transform="translate(-148.8 -6.2)"/><path class="b" d="M298,59.6V84.8a3.6,3.6,0,0,1-3.6,3.6H289a5.4,5.4,0,0,1-4.7-8.051,5.4,5.4,0,0,1-.787-8.491A5.4,5.4,0,0,1,285.4,61.4c.031,0,.063,0,.092,0a4.421,4.421,0,0,1-.092-.9,4.5,4.5,0,0,1,4.5-4.5h4.5a3.6,3.6,0,0,1,3.6,3.6Z" transform="translate(-204.6 -31)"/><path class="b" d="M384,59.6V84.8a3.6,3.6,0,0,0,3.6,3.6H393a5.4,5.4,0,0,0,4.7-8.051,5.4,5.4,0,0,0,.787-8.491A5.4,5.4,0,0,0,396.6,61.4c-.031,0-.063,0-.092,0a4.423,4.423,0,0,0,.092-.9,4.5,4.5,0,0,0-4.5-4.5h-4.5a3.6,3.6,0,0,0-3.6,3.6Z" transform="translate(-285.2 -31)"/><g transform="translate(16 16)"><circle class="c" cx="2" cy="2" r="2" transform="translate(5 88)"/><ellipse class="c" cx="1.5" cy="2" rx="1.5" ry="2" transform="translate(11 88)"/><circle class="c" cx="2" cy="2" r="2" transform="translate(16 88)"/><path class="c" d="M192,392h10.8v3.6H192Z" transform="translate(-152.4 -307.4)"/><path class="c" d="M192,424h10.8v3.6H192Z" transform="translate(-152.4 -332.2)"/><path class="c" d="M68.2,169.428V163.8a1.8,1.8,0,0,0-1.8-1.8H23.2a3.6,3.6,0,0,1-3.6-3.6v-7.2a3.6,3.6,0,0,1,3.6-3.6H64.6V144H23.2a7.208,7.208,0,0,0-7.2,7.2v7.2a7.213,7.213,0,0,0,5.4,6.972v4.056A7.213,7.213,0,0,0,16,176.4v7.2a7.213,7.213,0,0,0,5.4,6.972v4.056A7.213,7.213,0,0,0,16,201.6v7.2a7.213,7.213,0,0,0,5.4,6.972V221.4a1.8,1.8,0,0,0,1.8,1.8h7.2a1.8,1.8,0,0,0,1.8-1.8V216H57.4v5.4a1.8,1.8,0,0,0,1.8,1.8h7.2a1.8,1.8,0,0,0,1.8-1.8v-5.628a7.213,7.213,0,0,0,5.4-6.972v-7.2a7.213,7.213,0,0,0-5.4-6.972v-4.056a7.213,7.213,0,0,0,5.4-6.972v-7.2A7.213,7.213,0,0,0,68.2,169.428Zm-3.6-.228H61v-3.6h3.6Zm-39.6,0v-3.6h3.6v3.6Zm7.2-3.6H57.4v3.6H32.2Zm32.4,28.8H61v-3.6h3.6m-7.2,3.6H32.2v-3.6H57.4Zm-28.8,0H25v-3.6h3.6Zm0,25.2H25V216h3.6Zm32.4,0V216h3.6v3.6Zm9-18v7.2a3.6,3.6,0,0,1-3.6,3.6H23.2a3.6,3.6,0,0,1-3.6-3.6v-7.2a3.6,3.6,0,0,1,3.6-3.6H66.4A3.6,3.6,0,0,1,70,201.6Zm0-18a3.6,3.6,0,0,1-3.6,3.6H23.2a3.6,3.6,0,0,1-3.6-3.6v-7.2a3.6,3.6,0,0,1,3.6-3.6H66.4a3.6,3.6,0,0,1,3.6,3.6Z" transform="translate(-16 -115.2)"/><circle class="c" cx="2" cy="2" r="2" transform="translate(5 63)"/><ellipse class="c" cx="1.5" cy="2" rx="1.5" ry="2" transform="translate(11 63)"/><circle class="c" cx="2" cy="2" r="2" transform="translate(16 63)"/><path class="c" d="M192,280h10.8v3.6H192Z" transform="translate(-152.4 -220.6)"/><path class="c" d="M192,312h10.8v3.6H192Z" transform="translate(-152.4 -245.4)"/><ellipse class="c" cx="2" cy="1.5" rx="2" ry="1.5" transform="translate(5 38)"/><circle class="c" cx="1.5" cy="1.5" r="1.5" transform="translate(11 38)"/><ellipse class="c" cx="2" cy="1.5" rx="2" ry="1.5" transform="translate(16 38)"/><path class="c" d="M397.6,60.6a7.212,7.212,0,0,0-5.437-6.981A6.309,6.309,0,0,0,385.9,48h-4.5a5.406,5.406,0,0,0-5.4,5.4V78.6a5.406,5.406,0,0,0,5.4,5.4h5.4a7.2,7.2,0,0,0,6.885-9.305,7.176,7.176,0,0,0,1.246-8.508A7.233,7.233,0,0,0,397.6,60.6ZM386.8,80.4h-5.4a1.8,1.8,0,0,1-1.8-1.8V53.4a1.8,1.8,0,0,1,1.8-1.8h4.5a2.7,2.7,0,0,1,2.7,2.7,2.666,2.666,0,0,1-.041.443A5.377,5.377,0,0,0,385,53.4V57a1.8,1.8,0,0,1,0,3.6v3.6a5.406,5.406,0,0,0,5.4-5.4c0-.03,0-.06,0-.09a6.322,6.322,0,0,0,1.106-1.535,3.6,3.6,0,0,1,.976,6.361A7.15,7.15,0,0,0,391,62.81L389.8,66.2a3.6,3.6,0,0,1,1.861,5.29,7.188,7.188,0,0,0-3.314-1.726A5.409,5.409,0,0,0,383.2,66v3.6a1.8,1.8,0,1,1,0,3.6v3.6a5.408,5.408,0,0,0,4.984-3.323A3.6,3.6,0,0,1,386.8,80.4Z" transform="translate(-295 -40.8)"/><path class="c" d="M288.194,48h-4.5a6.308,6.308,0,0,0-6.263,5.619,7.193,7.193,0,0,0-2.769,12.567,7.176,7.176,0,0,0,1.246,8.508A7.2,7.2,0,0,0,282.794,84h5.4a5.406,5.406,0,0,0,5.4-5.4V53.4A5.406,5.406,0,0,0,288.194,48Zm1.8,30.6a1.8,1.8,0,0,1-1.8,1.8h-5.4a3.6,3.6,0,0,1-1.384-6.923,5.408,5.408,0,0,0,4.984,3.323V73.2a1.8,1.8,0,0,1,0-3.6V66a5.409,5.409,0,0,0-5.148,3.769,7.188,7.188,0,0,0-3.314,1.726,3.6,3.6,0,0,1,1.861-5.29l-1.2-3.394a7.148,7.148,0,0,0-1.48.725,3.6,3.6,0,0,1,.976-6.361A6.322,6.322,0,0,0,279.2,58.71c0,.03,0,.06,0,.09a5.406,5.406,0,0,0,5.4,5.4V60.6a1.8,1.8,0,0,1,0-3.6V53.4a5.377,5.377,0,0,0-3.559,1.343,2.674,2.674,0,0,1,2.659-3.143h4.5a1.8,1.8,0,0,1,1.8,1.8Z" transform="translate(-214.394 -40.8)"/><path class="c" d="M259.4,16H218a7.208,7.208,0,0,0-7.2,7.2V47.655L200.528,57.927A1.8,1.8,0,0,0,201.8,61h9.228A7.213,7.213,0,0,0,218,66.4h41.4a7.208,7.208,0,0,0,7.2-7.2v-36A7.208,7.208,0,0,0,259.4,16ZM263,59.2a3.6,3.6,0,0,1-3.6,3.6H218a3.6,3.6,0,0,1-3.6-3.6,1.8,1.8,0,0,0-1.8-1.8h-6.455l7.727-7.727A1.8,1.8,0,0,0,214.4,48.4V23.2a3.6,3.6,0,0,1,3.6-3.6h41.4a3.6,3.6,0,0,1,3.6,3.6Z" transform="translate(-158.6 -16)"/></g></g></svg>