<svg xmlns="http://www.w3.org/2000/svg" width="105.166" height="89.585" viewBox="0 0 105.166 89.585"><defs><style>.a{opacity:0.3;}.b{fill:none;}.c{fill:#565656;}</style></defs><g class="a"><path class="b" d="M0,0H105.166V89.585H0Z"/><path class="c" d="M76.39,87.853H29.281C15.5,87.861,3.722,78.335,1.4,65.3S6.9,39.533,19.9,35.152a31.332,31.332,0,0,1,16-28.654,34.179,34.179,0,0,1,33.882,0,31.332,31.332,0,0,1,16,28.654c13,4.381,20.816,17.119,18.5,30.15S90.171,87.861,76.39,87.853Zm0-54.233A22.465,22.465,0,0,0,64.283,13.863,24.416,24.416,0,0,0,40.4,14.42a22.359,22.359,0,0,0-11.092,20.3l.33,6.725-6.614,2.233a18.014,18.014,0,0,0-12.3,20.1A18.645,18.645,0,0,0,29.281,78.814H76.39c9.625,0,17.7-6.965,18.729-16.146s-5.321-17.63-14.726-19.6S61.551,46.259,58.507,55.02l-8.941-2.861C53.419,41.087,64.223,33.62,76.39,33.62Z" transform="translate(-0.252 -0.508)"/></g></svg>