<svg xmlns="http://www.w3.org/2000/svg" width="74.045" height="90.274" viewBox="0 0 74.045 90.274"><g transform="translate(-46.022)"><path d="M70.571,187.434c-13.435-.077-24.549-27.5-24.549-41.471,0-22.816,17.116-27.811,23.712-27.811,2.973,0,6.147,1.167,8.947,2.2a20,20,0,0,0,5.109,1.464,15.9,15.9,0,0,0,3.665-1.188c2.991-1.191,6.713-2.67,11.046-2.67h.026c3.236,0,13.048.71,18.947,9.569l1.382,2.076-1.989,1.5c-2.841,2.144-8.025,6.054-8.025,13.8,0,9.174,5.871,12.7,8.691,14.4,1.245.749,2.534,1.521,2.534,3.21,0,1.1-8.8,24.784-21.584,24.784a17.358,17.358,0,0,1-7.289-1.769,14.78,14.78,0,0,0-6.488-1.563,16.687,16.687,0,0,0-5.137,1.39,25.162,25.162,0,0,1-8.91,2.079Z" transform="translate(0 -97.16)"/><path d="M272.114,0c.333,12-8.251,20.33-16.825,19.808C253.876,10.229,263.862,0,272.114,0Z" transform="translate(-172.259)"/></g></svg>