<svg xmlns="http://www.w3.org/2000/svg" width="101.716" height="101.716" viewBox="0 0 101.716 101.716"><defs><style>.a{opacity:0.3;}.b{fill:none;}.c{fill:#565656;}</style></defs><g class="a"><path class="b" d="M0,0H101.716V101.716H0Z"/><path class="c" d="M11.07,63.171H83.627V12.257H11.07Zm40.814,9.257v9.257H70.023v9.257H24.674V81.685H42.814V72.428H6.5a4.481,4.481,0,0,1-3.2-1.377A4.67,4.67,0,0,1,2,67.767V7.661A4.615,4.615,0,0,1,6.5,3H88.2a4.576,4.576,0,0,1,4.5,4.661V67.767a4.615,4.615,0,0,1-4.5,4.661Z" transform="translate(3.509 5.264)"/></g></svg>