<svg xmlns="http://www.w3.org/2000/svg" xmlns:xlink="http://www.w3.org/1999/xlink" width="84.551" height="104.843" viewBox="0 0 84.551 104.843"><defs><style>.a{fill:#4b4b4b;}.b{fill:url(#a);}</style><linearGradient id="a" x1="0.5" x2="0.5" y2="1" gradientUnits="objectBoundingBox"><stop offset="0" stop-color="#5b7cdb"/><stop offset="1" stop-color="#274cb9"/></linearGradient></defs><g transform="translate(-48)"><path class="a" d="M115.641,27.056V25.365a1.692,1.692,0,0,0-1.691-1.691H91.966V16.91h16.91a1.69,1.69,0,0,0,1.352-2.706l-4.312-5.749,4.312-5.749A1.69,1.69,0,0,0,108.877,0h-18.6a1.692,1.692,0,0,0-1.691,1.691V23.674H66.6a1.692,1.692,0,0,0-1.691,1.691v1.691a16.91,16.91,0,0,0,0,33.82h1.48A25.454,25.454,0,0,0,81.525,76.2L78.679,94.7H73.365a1.692,1.692,0,0,0-1.691,1.691v6.764a1.692,1.692,0,0,0,1.691,1.691h33.82a1.692,1.692,0,0,0,1.691-1.691V96.388a1.692,1.692,0,0,0-1.691-1.691h-7L97.42,76.745a25.444,25.444,0,0,0,16.741-15.868h1.48a16.91,16.91,0,1,0,0-33.82ZM91.966,3.382h13.528L102.451,7.44a1.689,1.689,0,0,0,0,2.03l3.043,4.058H91.966ZM115.641,37.2a6.764,6.764,0,1,1,0,13.528ZM58.146,43.967A6.771,6.771,0,0,1,64.91,37.2V50.731A6.771,6.771,0,0,1,58.146,43.967ZM64.91,57.495a13.528,13.528,0,0,1,0-27.056V33.82a10.146,10.146,0,0,0,0,20.292H65a25.306,25.306,0,0,0,.427,3.382Zm40.584,43.966H75.056V98.079h30.438ZM96.761,94.7H82.1l2.7-17.522a24.064,24.064,0,0,0,9.313.291ZM90.275,74.4A22.009,22.009,0,0,1,68.292,52.422V27.056h43.967V52.422A22.009,22.009,0,0,1,90.275,74.4Zm25.365-16.91h-.51a25.48,25.48,0,0,0,.426-3.382h.084a10.146,10.146,0,1,0,0-20.292V30.438a13.528,13.528,0,0,1,0,27.056Z"/><path class="a" d="M195.98,157.882,184.859,154.7l-4.74-9.48a1.76,1.76,0,0,0-3.025,0l-4.74,9.48-11.122,3.177a1.691,1.691,0,0,0-.292,3.138l8.891,4.445-3,10.488a1.691,1.691,0,0,0,2.383,1.977l9.388-4.7L188,177.929a1.683,1.683,0,0,0,.755.179,1.689,1.689,0,0,0,1.627-2.154l-3-10.488,8.892-4.445a1.691,1.691,0,0,0-.293-3.138Zm-11.366,5.184a1.692,1.692,0,0,0-.87,1.977l2.325,8.141-6.709-3.353a1.7,1.7,0,0,0-1.511,0l-6.709,3.353,2.325-8.141a1.691,1.691,0,0,0-.869-1.977l-6.258-3.129,7.657-2.188a1.7,1.7,0,0,0,1.049-.87l3.561-7.121,3.56,7.121a1.693,1.693,0,0,0,1.049.87l7.656,2.188Z" transform="translate(-88.329 -113.849)"/><path class="b" d="M208.244,183.194a1.692,1.692,0,0,0-.87,1.977l2.325,8.141-6.709-3.353a1.7,1.7,0,0,0-1.511,0l-6.709,3.353,2.325-8.141a1.691,1.691,0,0,0-.869-1.977l-6.258-3.129,7.657-2.188a1.7,1.7,0,0,0,1.049-.87l3.561-7.121,3.56,7.121a1.694,1.694,0,0,0,1.049.87l7.657,2.188Z" transform="translate(-111.96 -133.977)"/></g></svg>