<svg xmlns="http://www.w3.org/2000/svg" width="235.983" height="38.091" viewBox="0 0 235.983 38.091"><defs><style>.a{fill:#fff;}.b{fill:#fc514a;}</style></defs><g transform="translate(564.922 1312.994)"><path class="a" d="M979.394-1201.2c1.576,3.016.554,6.239.646,9.353.07,2.384.889,3.172,3.23,3.078,2.115-.085,3.914.026,3.789-2.963-.173-4.161-.153-8.339,0-12.5.093-2.572-.931-3.4-3.452-3.348-6.32.119-12.644.021-18.966.043-2.187.007-3.809-.294-3.783-3.136.026-2.819,1.586-3.1,3.812-3.088,8.289.05,16.579.077,24.867-.013,2.511-.027,3.506.834,3.472,3.388-.107,8.2-.083,16.4-.013,24.592.018,2.1-.662,3-2.9,2.984q-13.065-.117-26.131.006c-2.472.027-3.139-1.029-3.081-3.264.108-4.166.077-8.337.01-12.5-.031-1.9.333-3.415,2.633-3.356,5.028.127,10.078-.567,15.083.388a36.791,36.791,0,0,1,.147,10.391C979.575-1194.462,978.355-1197.934,979.394-1201.2Z" transform="translate(-1417.962 -92.209)"/><path class="a" d="M-533.1-1187.849c-4.051,2.2-8.4.692-12.6.9-6.034.3-6.045.075-6.045-5.978,0-.971-.08-1.949.015-2.91.261-2.635-.341-4.1-3.576-4.057-3.032.038-3.439,1.411-3.357,3.853.127,3.739.188,7.494-.017,11.227-.157,2.859.765,3.912,3.767,3.806,5.881-.207,11.775-.1,17.662-.031,1.323.015,2.833-.584,3.938.726-7.922.878-15.828.13-22.253.41,1.946.27,5.457-.075,8.938,0a70.781,70.781,0,0,0,8.813-.053c3.123-.328,4.587.819,4.762,3.817-.416,1.257-1.5,1.04-2.444,1.041-8.692.013-17.384,0-26.076.011-1.639,0-3.258-.056-3.224-2.236.143-9.121-.584-18.255.392-27.365,3.969-1.256,8.054-.536,12.085-.643,4.473-.119,8.952-.037,13.428-.025,5.376.014,5.288.024,5.409,5.149C-533.383-1196.093-533.992-1191.946-533.1-1187.849Z" transform="translate(0 -99.947)"/><path class="a" d="M1810.523-1190.061l23.3-15.54c-1.533-.962-3.059-.566-4.457-.579-5.622-.053-11.246-.079-16.867,0-2.325.035-3.711-.42-3.655-3.188.052-2.532,1.308-2.986,3.455-2.973q12.65.079,25.3,0c2.237-.015,3.179.681,3.367,3.087.331,4.245-.61,7.25-4.755,9.548-6.159,3.416-11.9,7.567-18.491,11.839,8.072,1.111,15.344-.593,22.452,1.011l-.606.474c-6.892.118-13.788.01-20.159.053,6.274.168,13.07-.273,19.865.288a2.156,2.156,0,0,1-.084,2.926c-4.936,1.2-9.951.455-14.922.485-4.555.028-9.156.636-13.684-.447C1809.13-1185.388,1809.424-1187.721,1810.523-1190.061Z" transform="translate(-2206.024 -93.545)"/><path class="a" d="M2358.977-1186.771c-5.684,1.926-11.524.589-17.289.732-1.47.037-1.357-1.493-1.363-2.6-.012-2.219-.16-4.451.033-6.653.242-2.764-.864-3.613-3.6-3.586-2.569.025-3.461.863-3.356,3.391.165,4.015.207,8.05-.01,12.06-.157,2.9,1.125,3.467,3.719,3.4,5.885-.148,11.777-.085,17.666-.017,1.321.015,2.832-.588,3.935.727-7.743.908-15.5.082-23.251.446,6.721-.054,13.445-.009,20.168-.033,2.2-.008,3.705.465,2.543,3.111-4.252,1.354-8.62.442-12.93.594-4.628.163-9.266.024-13.9.036-2.25.006-3.3-.82-3.272-3.2.085-7.637.07-15.276.007-22.913-.018-2.147.927-3.047,2.992-3.059q12.216-.07,24.433,0c2.245.012,3.344,1.108,3.363,3.33.031,3.611.017,7.221.006,10.831-.007,2.087-.937,2.989-3.1,2.929a85.116,85.116,0,0,0-10.1.043c-3.509.322-4.543-1.136-4.063-4.26.122-.794-.284-1.63.17-2.4-.163-.054-.254.069-.251.379.059,6.243.06,6.164,6.634,6.275C2351.765-1187.15,2355.409-1187.765,2358.977-1186.771Z" transform="translate(-2688.563 -100.95)"/><path class="a" d="M471.922-1205.044c.258,5.91,4.437,5.433,8.586,5.291,4.34-.148,8.69.015,13.034-.048,2.221-.032,3.386.731,3.414,3.107.028,2.412-1.177,3.126-3.38,3.1-5.746-.055-11.5.137-17.237-.1-2.882-.12-3.563.891-3.594,3.546-.111,9.45-.2,9.32,9.365,9.5,4.674.09,9.43-.925,14.03.7-7.1.859-14.172.143-20.053.416,4.365,0,9.966.208,15.542-.08,3.113-.16,4.595.825,4.767,3.833-.7,1.576-2.143,1.013-3.29,1.021-7.547.051-15.1-.1-22.641.089-3.111.08-3.813-1.156-3.672-3.914.19-3.723.045-7.462.048-11.194,0-1.511.194-3.064-1.051-4.273a24.331,24.331,0,0,1-.082-5.245c2.138-1.395.108-4.2,1.974-5.69.744.823.338,1.782.346,2.588-.108.656.412.319.379.179C467.645-1205.437,470.135-1204.823,471.922-1205.044Z" transform="translate(-957.707 -100.322)"/><path class="a" d="M-18.188-1177.8c-.054-6.246-.251-12.494-.1-18.735.072-2.976-.645-4.335-3.946-4.142a124.679,124.679,0,0,1-12.632.014c-2.852-.123-3.627,1.041-3.558,3.681.148,5.69.092,11.387.008,17.079-.019,1.258.724,2.837-.975,3.71-3.433.015-4.383-1.709-4.266-4.984.242-6.779.054-13.573.088-20.36.007-1.357-.274-2.8.719-3.994,2.8-1.235,5.771-.678,8.638-.591,6.768.2,13.577-.836,20.309.576,1.312,2.47.612,5.13.661,7.7q.162,8.457,0,16.92C-13.317-1177.076-14.136-1176.622-18.188-1177.8Z" transform="translate(-484.424 -99.13)"/><path class="a" d="M1631.9-1205.828c.992.381.97,1.252.966,2.065q-.07,13.209-.17,26.418c-3.592,2.116-4.582,1.755-4.618-1.843-.064-6.331-.018-12.662-.018-17.306-.536,5.715.626,13.194-.427,20.583-1.706-3.679-.287-7.563-.759-11.323-.6-4.78,1.41-9.8-1.642-14.416a3.135,3.135,0,0,1,.679-4.121A48.676,48.676,0,0,0,1631.9-1205.828Z" transform="translate(-2034.947 -99.594)"/><path class="a" d="M2349.714-1193.065c-4.629-.023-9.268-.237-13.884,0-3.247.166-4.258-1.037-3.964-4.075.211-2.181.041-4.4.887-6.627,0,2.3.083,4.6-.024,6.9-.1,2.144.79,2.818,2.945,2.952,13.276.823,13.842.259,13.164-12.868-.123-2.389-.981-3.094-3.271-3.067q-11.573.135-23.147,0c-2.335-.028-3.243.749-3.208,3.116.1,7.074.129,14.153-.011,21.226-.052,2.637,1.027,3.3,3.486,3.273,8.7-.1,17.4-.04,26.094-.041a1.08,1.08,0,0,1,.935.869c-.737,1.536-2.175.98-3.33.987-8.127.05-16.256-.067-24.38.077-2.81.05-3.982-.623-3.9-3.68.208-7.755.047-15.519.092-23.279.007-1.171-.487-2.538.839-3.424a286.323,286.323,0,0,1,30.083-.025l.606.614a88.651,88.651,0,0,1-.045,17.083Z" transform="translate(-2679.3 -94.656)"/><path class="a" d="M1484.9-1203.627c1.677,2.223.643,4.758.75,7.134.252,5.621.257,11.252.362,16.88.71,2.456,1.239,4.839-2.539,5.085-1.966.128-3.211-.488-3.2-2.775.046-7.909.02-15.818.013-23.727,0-1.509.581-2.415,2.19-2.374,1.68.043,2,1.156,2.006,2.56.009,5.55-.023,11.1.008,15.711C1484.837-1190.669,1483.981-1197.165,1484.9-1203.627Z" transform="translate(-1900.673 -101.639)"/><path class="a" d="M-526.267-1195.383c-1.752-3.969-.8-8.155-.7-12.2.1-3.786-1.2-4.654-4.8-4.57-8.6.2-17.205-.025-25.809-.079.758-1.715,2.333-1.24,3.649-1.247,7.979-.038,15.961.1,23.936-.076,3.152-.069,4.225,1,4.042,4.082C-526.225-1204.784-526.177-1200.079-526.267-1195.383Z" transform="translate(-6.829 -92.413)"/><path class="a" d="M1477.468-1210.357v22.4l-.826.005c0-6.027.04-12.055-.031-18.081-.016-1.354.689-3.5-1.836-3.353-2.1.126-1.467,2.047-1.479,3.3-.06,6.39-.132,12.782.04,19.168.047,1.733-1.42,4.375,2.112,4.892,4.079.6,2.026-2.934,3.131-4.321a.681.681,0,0,1,.587.349,7.943,7.943,0,0,1,.005,5.534c-1.532.1-3.062.216-4.6.294-1.576.08-2.3-.686-2.3-2.247.039-9.032.051-18.064.114-27.1,0-.326.433-.65.664-.975a5.726,5.726,0,0,1,4.382.1Z" transform="translate(-1893.246 -94.909)"/><path class="a" d="M316.872-1175.282c3.375.533,4.311-.927,4.215-4.19-.228-7.779-.074-15.568-.075-23.354a1.431,1.431,0,0,1,.828-.788c.774.34.824,1.033.825,1.722q.013,12.814.006,25.628c0,1.234.1,2.81-1.666,2.738C319.519-1173.585,317.111-1172.158,316.872-1175.282Z" transform="translate(-819.484 -101.652)"/><path class="a" d="M-52.967-1201.922c0,7.9.142,15.809-.079,23.7-.079,2.836.594,4.667,3.429,5.447-3.981,1.148-5.169-.409-5.022-4.347.268-7.208.041-14.432.108-21.649.012-1.3-.629-2.8.744-3.873A1.223,1.223,0,0,1-52.967-1201.922Z" transform="translate(-474.197 -102.557)"/><path class="a" d="M-41.354-1213.473l-.819-.718c2.35-1.4,4.946-.725,7.39-.646,7.649.246,15.336-.891,22.949.578l-.828.788Z" transform="translate(-485.81 -91.005)"/><path class="a" d="M1809.252-897.1q0,3.333,0,6.666a191.209,191.209,0,0,0,28.692,0q0-1.25,0-2.5a.722.722,0,0,1,1.129.144c.075,1.3.467,2.616-.285,3.853-9.586.867-19.193.153-28.787.362-1.018.022-2.244-.173-2.189-1.369C1807.921-892.373,1806.316-895.211,1809.252-897.1Z" transform="translate(-2204.752 -386.51)"/><path class="a" d="M1657.774-1307.747c-1.995.188-3.232-.369-3.235-2.676,0-2.078,1.029-2.563,2.883-2.571,1.943-.009,3.245.292,3.175,2.679C1660.538-1308.321,1659.709-1307.521,1657.774-1307.747Z" transform="translate(-2062.627 0)"/><path class="a" d="M2443.531-845.579l-.935-.869c.209-2.894-1.879-2.5-3.674-2.5a161.823,161.823,0,0,1-19.872-.823h24.213A3.834,3.834,0,0,1,2443.531-845.579Z" transform="translate(-2773.116 -430.492)"/><path class="a" d="M2361.418-1214.541l-30.083.025A165.967,165.967,0,0,1,2361.418-1214.541Z" transform="translate(-2691.599 -90.874)"/><path class="a" d="M1665.543-1086.119v-23.091h.837c0,6.333.106,12.668-.042,19-.083,3.57,1.294,4.208,4.268,2.657C1669.73-1084.274,1667.422-1085.938,1665.543-1086.119Z" transform="translate(-2072.854 -189.384)"/><path class="a" d="M-434.753-845.63c-.872-2.685-2.613-3.549-5.533-3.427a109.84,109.84,0,0,1-18.864-.743h24.137C-434.256-848.451-434.543-847.038-434.753-845.63Z" transform="translate(-98.298 -430.464)"/><path class="a" d="M613.732-845.622c-.872-2.685-2.61-3.574-5.533-3.426a81.527,81.527,0,0,1-16.335-.744h21.613A5.687,5.687,0,0,1,613.732-845.622Z" transform="translate(-1075.044 -430.471)"/><path class="a" d="M2764.988-1179.923q.022-8.539.045-17.081A55.7,55.7,0,0,1,2764.988-1179.923Z" transform="translate(-3094.608 -107.794)"/><path class="a" d="M1647.17-1213.275a4.709,4.709,0,0,1-5.989.058A7.829,7.829,0,0,1,1647.17-1213.275Z" transform="translate(-2050.213 -92.147)"/><path class="a" d="M499.1-1213.381c-.942,1.546-4.455.107-4.24,3.333v-3.266A3.7,3.7,0,0,1,499.1-1213.381Z" transform="translate(-984.888 -91.985)"/><path class="a" d="M1212.855-1040.282v10.586l-.786,0v-10.924Z" transform="translate(-1651.423 -253.123)"/><path class="a" d="M455.443-1123.577a7.377,7.377,0,0,1,.082,5.245A4.184,4.184,0,0,1,455.443-1123.577Z" transform="translate(-947.442 -176.033)"/><path class="a" d="M1569.761-853.316q0-2.767-.005-5.534A3.911,3.911,0,0,1,1569.761-853.316Z" transform="translate(-1983.835 -422.053)"/><path class="a" d="M2246.224-846.706q-.01-2-.02-4-.4-.215-.292-.468c.076-.174.155-.261.239-.261l.185-.22C2247.38-849.985,2247.622-848.327,2246.224-846.706Z" transform="translate(-2612.189 -428.735)"/><path class="a" d="M1487.681-1213.621l-4.381-.1A3.859,3.859,0,0,1,1487.681-1213.621Z" transform="translate(-1903.488 -91.67)"/><path class="b" d="M1037.5-962.3c2.477.08,5.741-2.054,6.952,1.827,1.118,3.585-.178,4.942-4.045,4.924-.963,0-1.926-.115-2.888-.177A6.3,6.3,0,0,1,1037.5-962.3Z" transform="translate(-1488.338 -325.435)"/><path class="a" d="M1346.27-1090.888v-15.532l.315-.011v15.533Z" transform="translate(-1776.141 -191.967)"/><path class="a" d="M1030.431-955.539a16.518,16.518,0,0,0,.018,6.574C1028.476-951.151,1028.5-953.342,1030.431-955.539Z" transform="translate(-1481.269 -332.197)"/><path class="a" d="M1070.864-979.323c-2.5.009-3.836.414-5.263-.371A6.921,6.921,0,0,1,1070.864-979.323Z" transform="translate(-1515.305 -309.419)"/><path class="a" d="M1059.886-848.848a5.765,5.765,0,0,1,4.661,0Z" transform="translate(-1509.994 -430.894)"/><path class="a" d="M1248.138-849.243c-2.579.4-3.9.571-5.62-.068C1244.28-849.862,1245.642-849.813,1248.138-849.243Z" transform="translate(-1679.721 -430.558)"/><path class="b" d="M-290.874-1139.707c2.118,1.9,1.615,4.384.9,6.487-.581,1.712-2.7.976-4.121.9-3.037-.155-3.575-3.188-1.383-7.366A4.374,4.374,0,0,1-290.874-1139.707Z" transform="translate(-249.166 -160.447)"/><path class="a" d="M-493.277-1092.922v-16.439l.406,0v16.479Z" transform="translate(-66.583 -189.244)"/><path class="a" d="M-462.157-1143.9h-5.317C-465.3-1145-463.645-1144.3-462.157-1143.9Z" transform="translate(-90.562 -156.599)"/><path class="a" d="M-273.315-1146l-4.6.024c1.346-1.95,3.162-.849,4.825-.71a.632.632,0,0,1,.026.361A1.247,1.247,0,0,1-273.315-1146Z" transform="translate(-266.725 -154.152)"/><path class="a" d="M-262.278-1011.219c-2.355.7-3.67.643-5.022,0Z" transform="translate(-276.591 -280.451)"/><path class="a" d="M-183.627-1104.291v-3.908l.412-.019v3.91Z" transform="translate(-354.352 -190.306)"/><path class="a" d="M1861.378-802.753c-.947,1.165-2.281.82-3.492.824q-10.855.037-21.71,0c-1.21,0-2.545.343-3.49-.825Z" transform="translate(-2228.186 -474.184)"/><path class="a" d="M1964.754-848.546a3.527,3.527,0,0,1,.054.729q-.412.005-.824.008h-20.879q0-.368-.009-.737Z" transform="translate(-2330.794 -431.629)"/><path class="b" d="M2589.449-1137.635c-1.4,1.5,1.149,4.887-2.438,5.237-1.56.152-3.859.875-4.594-.788-.9-2.034-1.136-4.529.642-6.562a4.442,4.442,0,0,1,4.626-.04l1.722,1.741Z" transform="translate(-2924.298 -160.382)"/><path class="a" d="M2385.137-1107.8v16.353l-.417,0v-16.475Z" transform="translate(-2741.211 -190.58)"/><path class="a" d="M2689.7-1106.459a.32.32,0,0,1-.042-.411c1.977,1.406.613,3.178.333,4.824Z" transform="translate(-3024.549 -191.559)"/><path class="a" d="M2416-1143.9h-5.338C2412.865-1144.981,2414.522-1144.312,2416-1143.9Z" transform="translate(-2765.322 -156.601)"/><path class="a" d="M2605.177-1146l-4.626.04c1.339-1.957,3.164-.828,4.823-.726a.589.589,0,0,1,.044.357A1.218,1.218,0,0,1,2605.177-1146Z" transform="translate(-2941.791 -154.168)"/><path class="a" d="M2611.635-1014.877a5.535,5.535,0,0,1-4.168.225C2608.955-1015.682,2610.35-1014.862,2611.635-1014.877Z" transform="translate(-2948.218 -276.777)"/><path class="a" d="M42.354-1142.7h18.34v.392H42.355Q42.355-1142.5,42.354-1142.7Z" transform="translate(-564.364 -158.264)"/></g></svg>