<svg xmlns="http://www.w3.org/2000/svg" xmlns:xlink="http://www.w3.org/1999/xlink" width="74.771" height="46.233" viewBox="0 0 74.771 46.233"><defs><style>.a{fill:#fff;}.b{clip-path:url(#a);}</style><clipPath id="a"><path class="a" d="M907.907,35.293c0-7,5.163-11.18,11.4-11.18,6.193,0,11.356,4.185,11.356,11.18,0,6.936-5.163,11.178-11.356,11.178-6.235,0-11.4-4.242-11.4-11.178m11.4-22.932c-.075,0-.151,0-.227,0-12.661.115-21.1,9.936-21.1,22.93,0,13.07,8.538,22.931,21.325,22.931,12.747,0,21.284-9.86,21.284-22.931a26,26,0,0,0-2.317-11,2.136,2.136,0,0,1,1.567-1.433,2.185,2.185,0,0,1,.467-.051c2.261,0,5.106.051,6.627.051,8.776,0,11.528,1.735,11.338,6.011-.111,2.462-2.662,4.814-11.437,4.814h-.116a2.14,2.14,0,0,0-2.146,2.139v6.9a2.136,2.136,0,0,0,2.1,2.138c.251,0,.5,0,.754,0,.874,0,1.73-.027,2.557-.076a2.13,2.13,0,0,1,1.91.954L959.74,57.6a2.136,2.136,0,0,0,1.783.958h7.434a2.137,2.137,0,0,0,1.738-3.383l-8.521-11.9a2.144,2.144,0,0,1,.4-2.914A15.278,15.278,0,0,0,968.2,28.126c0-7.072-4.556-15.156-12.9-15.763a.061.061,0,0,0-.018,0Z" transform="translate(-897.979 -12.361)"/></clipPath></defs><g transform="translate(-897.979 -12.301)"><g transform="translate(899.629 12.301)"><path class="a" d="M994.449,12.337h-2.011a13.989,13.989,0,0,1,2.011,0" transform="translate(-937.149 -12.301)"/><path class="a" d="M935.944,12.361c-.076,0-.152,0-.228,0v0Z" transform="translate(-914.618 -12.325)"/><path class="a" d="M977.252,29.747h-7.094a2.189,2.189,0,0,1,.467-.051c2.261,0,5.107.051,6.627.051" transform="translate(-928.299 -19.211)"/><path class="a" d="M995.8,12.361v0a.06.06,0,0,0-.018,0Z" transform="translate(-938.478 -12.325)"/><path class="a" d="M973.432,55.175l-8.521-11.9a2.145,2.145,0,0,1,.4-2.914,15.278,15.278,0,0,0,5.621-12.237c0-7.073-4.556-15.156-12.9-15.763a.06.06,0,0,0-.018,0h-35.98c-.076,0-.152,0-.228,0-12.661.115-21.1,9.936-21.1,22.93,0,13.07,8.537,22.931,21.325,22.931,12.746,0,21.284-9.86,21.284-22.931a26,26,0,0,0-2.318-11,2.136,2.136,0,0,1,1.567-1.433,2.188,2.188,0,0,1,.467-.051c2.261,0,5.107.051,6.627.051,8.777,0,11.528,1.735,11.338,6.011-.11,2.462-2.662,4.814-11.437,4.814h-.115a2.139,2.139,0,0,0-2.146,2.139v6.9a2.136,2.136,0,0,0,2.1,2.138c.251,0,.5,0,.753,0,.874,0,1.731-.027,2.557-.076a2.129,2.129,0,0,1,1.91.954L962.477,57.6a2.136,2.136,0,0,0,1.783.958h7.434a2.137,2.137,0,0,0,1.738-3.383m-51.391-8.7c-6.235,0-11.4-4.242-11.4-11.178,0-7,5.162-11.18,11.4-11.18,6.194,0,11.356,4.185,11.356,11.18,0,6.936-5.162,11.178-11.356,11.178" transform="translate(-900.716 -12.325)"/></g><g transform="translate(897.979 12.337)"><g class="b"><rect class="a" width="86.981" height="77.339" transform="translate(-20.265 12.014) rotate(-30.662)"/></g></g></g></svg>