<svg xmlns="http://www.w3.org/2000/svg" width="79.478" height="46.466" viewBox="0 0 79.478 46.466"><defs><style>.a{fill:#f1f1f1;}</style></defs><g transform="translate(0.024 -0.025)"><path class="a" d="M84.542,24.166c0-6.589.044-13.222-.044-19.811-.044-1.99.663-2.609,2.565-2.476a65.491,65.491,0,0,0,6.589,0c4.422-.177,7.164,2.078,8.888,5.881a23.276,23.276,0,0,1,1.9,8.092c.486,6.722.663,13.443-.752,20.121a17.3,17.3,0,0,1-2.7,6.677,8.674,8.674,0,0,1-7.606,4.024c-2.211-.044-4.422-.088-6.589,0-1.769.088-2.3-.619-2.255-2.3C84.586,37.653,84.542,30.887,84.542,24.166Zm7.606-.133h0V38.1c0,.663-.044,1.371.8,1.636a1.725,1.725,0,0,0,1.9-.752A7.227,7.227,0,0,0,96,36.15c1.282-6.058.929-12.249.752-18.352a18.788,18.788,0,0,0-1.238-7.3c-.442-.973-1.106-1.857-2.3-1.68-1.371.221-1.017,1.415-1.017,2.3C92.148,15.41,92.148,19.744,92.148,24.033Z" transform="translate(-47.144 -1.024)"/><path class="a" d="M9.892,46.491c-4.864-.044-8-2.786-9.375-8.269-1.017-4.068-.929-4.2,3.184-5,3.361-.619,3.317-.619,4.024,2.786a10.507,10.507,0,0,0,.486,1.68,1.983,1.983,0,0,0,2.123,1.548c1.194-.088,1.636-.929,1.813-1.9a9.96,9.96,0,0,0-1.9-8.092c-1.636-2.167-3.493-4.157-5.262-6.191C1.49,18.9-.367,14.209.429,8.637c.8-5.749,4.6-8.977,10.215-8.579a9.511,9.511,0,0,1,8.579,9.994c-.221,2.919-3.449,1.5-5.174,2.344-1.061.531-1.813-.088-2.034-1.282-.133-.663-.221-1.282-.4-1.946-.31-1.106-.84-2.123-2.255-1.9-1.282.177-1.5,1.238-1.636,2.3a9,9,0,0,0,2.211,6.943c1.5,1.813,3.14,3.493,4.643,5.262C19,26.945,20.9,32.782,19.134,39.5A8.987,8.987,0,0,1,9.892,46.491Z" transform="translate(0 0)"/><path class="a" d="M139.441,24.091c0-6.456.044-12.913-.044-19.369-.044-2.034.486-2.919,2.7-2.83,4.113.133,8.225.088,12.338,0,1.636-.044,2.432.4,2.388,2.211-.088,5.572.575,4.953-4.909,5-5.528.044-4.732-.575-4.776,4.82-.044,5.351,0,5.439,5.262,5.572,1.636.044,2.167.708,2.167,2.255-.044,5.749.354,5.041-4.687,4.953-2.078-.044-2.919.531-2.786,2.7a63.807,63.807,0,0,1,0,7.694c-.088,1.68.486,2.432,2.255,2.344,1.99-.088,3.98,0,5.926,0,1.371,0,1.99.531,1.946,1.99-.088,6.235.575,5.13-4.82,5.218-3.14.044-6.324,0-9.463,0-3.538,0-3.538,0-3.538-3.449C139.441,36.827,139.441,30.459,139.441,24.091Z" transform="translate(-77.766 -1.038)"/><path class="a" d="M61.365,24.276c0,6.589-.044,13.222.044,19.811.044,1.946-.575,2.742-2.653,2.7-5.926-.177-5.041.708-5.085-4.953-.044-12.249,0-24.5,0-36.748,0-3.051,0-3.1,3.007-3.051,5.13-.044,4.687-.752,4.687,4.643C61.409,12.557,61.365,18.394,61.365,24.276Z" transform="translate(-29.937 -1.09)"/></g></svg>