<svg xmlns="http://www.w3.org/2000/svg" width="688.869" height="253.699" viewBox="0 0 688.869 253.699"><defs><style>.a{fill:#2b2c3a;opacity:0.5;}.b{fill:#fff;}.c,.d{stroke:none;}.d{fill:#707070;}</style></defs><g transform="translate(-240.504 -2453.22)"><g class="a" transform="translate(240.504 2454.535)"><path class="c" d="M 679.3915405273438 251.884033203125 L 0.5000202655792236 251.884033203125 L 0.5000202655792236 0.5000318884849548 L 679.3915405273438 0.5000318884849548 L 679.3915405273438 251.884033203125 Z"/><path class="d" d="M 1 1.000030517578125 L 1 251.384033203125 L 678.8915405273438 251.384033203125 L 678.8915405273438 1.000030517578125 L 1 1.000030517578125 M 0 3.0517578125e-05 L 679.8915405273438 3.0517578125e-05 L 679.8915405273438 252.384033203125 L 0 252.384033203125 L 0 3.0517578125e-05 Z"/></g><g transform="translate(929.373 2453.22) rotate(90)"><path class="b" d="M0,9.521H159.7V28.976l5.787-4.845V0H10.054Z" transform="translate(87.602 0)"/><path class="b" d="M0,99.347v63.748H67.244l-9.414-7.881H5.439V4.553L0,0Z" transform="translate(0 523.909)"/></g></g></svg>