<svg xmlns="http://www.w3.org/2000/svg" xmlns:xlink="http://www.w3.org/1999/xlink" width="105" height="114.269" viewBox="0 0 105 114.269"><defs><style>.a{fill:url(#a);}.b{fill:#4b4b4b;}.c{fill:#fff;}</style><linearGradient id="a" x1="0.5" x2="0.5" y2="1" gradientUnits="objectBoundingBox"><stop offset="0" stop-color="#31c426"/><stop offset="1" stop-color="#1ea114"/></linearGradient></defs><g transform="translate(-24 -9.867)"><path class="a" d="M41.944,320H57.5a1.945,1.945,0,0,1,1.944,1.944v25.278H40V321.944A1.945,1.945,0,0,1,41.944,320ZM57.5,355H41.944A1.945,1.945,0,0,1,40,353.056v-1.944H59.444v1.944A1.945,1.945,0,0,1,57.5,355Z" transform="translate(-12.111 -234.753)"/><path class="a" d="M361.944,320H377.5a1.944,1.944,0,0,1,1.944,1.944v25.278H360V321.944A1.945,1.945,0,0,1,361.944,320ZM377.5,355H361.944A1.945,1.945,0,0,1,360,353.056v-1.944h19.444v1.944A1.945,1.945,0,0,1,377.5,355Z" transform="translate(-254.333 -234.753)"/><path class="b" d="M59.886,227.234v6.191h3.889v-6.191a5.834,5.834,0,1,0-3.889,0Zm1.944-7.42a1.944,1.944,0,1,1-1.944,1.944A1.945,1.945,0,0,1,61.83,219.815Z" transform="translate(-24.219 -155.957)"/><path class="b" d="M223.775,198.191V192h-3.889v6.191a5.834,5.834,0,1,0,3.889,0Zm-1.944,7.42a1.944,1.944,0,1,1,1.944-1.944A1.945,1.945,0,0,1,221.83,205.611Z" transform="translate(-145.33 -137.865)"/><path class="b" d="M379.886,227.234v6.191h3.889v-6.191a5.834,5.834,0,1,0-3.889,0Zm1.944-7.42a1.944,1.944,0,1,1-1.944,1.944A1.945,1.945,0,0,1,381.83,219.815Z" transform="translate(-266.441 -155.957)"/><path class="b" d="M312,232h3.889v3.889H312Z" transform="translate(-218 -168.142)"/><path class="b" d="M344,232h3.889v3.889H344Z" transform="translate(-242.222 -168.142)"/><path class="b" d="M280,232h3.889v3.889H280Z" transform="translate(-193.778 -168.142)"/><path class="b" d="M184,232h3.889v3.889H184Z" transform="translate(-121.111 -168.142)"/><path class="b" d="M152,232h3.889v3.889H152Z" transform="translate(-96.889 -168.142)"/><path class="b" d="M120,232h3.889v3.889H120Z" transform="translate(-72.667 -168.142)"/><path class="b" d="M45.389,304H29.833A5.834,5.834,0,0,0,24,309.833v31.111a5.834,5.834,0,0,0,5.833,5.833H45.389a5.834,5.834,0,0,0,5.833-5.833V309.833A5.834,5.834,0,0,0,45.389,304Zm-15.556,3.889H45.389a1.945,1.945,0,0,1,1.944,1.944v25.278H27.889V309.833A1.945,1.945,0,0,1,29.833,307.889Zm15.556,35H29.833a1.945,1.945,0,0,1-1.944-1.944V339H47.333v1.944A1.945,1.945,0,0,1,45.389,342.889Z" transform="translate(0 -222.642)"/><path class="c" d="M64,328h7.778v3.889H64Z" transform="translate(-30.278 -240.809)"/><path class="b" d="M365.389,304H349.833A5.834,5.834,0,0,0,344,309.833v31.111a5.834,5.834,0,0,0,5.833,5.833h15.556a5.834,5.834,0,0,0,5.833-5.833V309.833A5.834,5.834,0,0,0,365.389,304Zm-15.556,3.889h15.556a1.945,1.945,0,0,1,1.944,1.944v25.278H347.889V309.833A1.945,1.945,0,0,1,349.833,307.889Zm15.556,35H349.833a1.945,1.945,0,0,1-1.944-1.944V339h19.444v1.944A1.945,1.945,0,0,1,365.389,342.889Z" transform="translate(-242.222 -222.642)"/><path class="c" d="M384,328h7.778v3.889H384Z" transform="translate(-272.5 -240.809)"/><g transform="translate(69.505 9.867)"><path class="b" d="M218.344,9.867a7.133,7.133,0,0,0-7.125,7.125v14a7.125,7.125,0,0,0,14.249.049V16.992A7.133,7.133,0,0,0,218.344,9.867ZM222.5,31.042a4.156,4.156,0,0,1-8.312-.049v-14a4.156,4.156,0,1,1,8.312,0Z" transform="translate(-211.219 -9.867)"/></g><g transform="translate(75.145 42.373)"><rect class="b" width="2.969" height="6.679"/></g><g transform="translate(71.236 47.568)"><path class="b" d="M227.645,164.98h-7.817a1.484,1.484,0,0,0,0,2.969h7.817a1.484,1.484,0,0,0,0-2.969Z" transform="translate(-218.344 -164.98)"/></g><g transform="translate(63.914 28.52)"><g transform="translate(0)"><path class="b" d="M212.164,86.609a1.484,1.484,0,0,0-1.484,1.484v1.188a9.747,9.747,0,0,1-19.494,0V88.093a1.484,1.484,0,1,0-2.968,0v1.188a12.715,12.715,0,1,0,25.431,0V88.093A1.484,1.484,0,0,0,212.164,86.609Z" transform="translate(-188.217 -86.609)"/></g></g></g></svg>