<svg xmlns="http://www.w3.org/2000/svg" xmlns:xlink="http://www.w3.org/1999/xlink" width="74" height="76.269" viewBox="0 0 74 76.269"><defs><style>.a{fill:url(#a);}.b{fill:#4b4b4b;}.c{fill:#fff;}</style><linearGradient id="a" x1="0.5" x2="0.5" y2="1" gradientUnits="objectBoundingBox"><stop offset="0" stop-color="#31c426"/><stop offset="1" stop-color="#1ea114"/></linearGradient></defs><g transform="translate(-56 -42.266)"><circle class="a" cx="23.871" cy="23.871" r="23.871" transform="translate(79.871 46.922)"/><g transform="translate(56 42.266)"><g transform="translate(21.484 2.268)"><path class="b" d="M198.387,107.044a26.258,26.258,0,1,1,26.258-26.258A26.288,26.288,0,0,1,198.387,107.044Zm0-49A22.743,22.743,0,1,0,221.13,80.786,22.769,22.769,0,0,0,198.387,58.043Z" transform="translate(-172.129 -54.528)"/></g><g transform="translate(0)"><path class="b" d="M328.95,313.3a26.087,26.087,0,0,1-11.693,4.441A13.124,13.124,0,1,0,328.95,313.3Zm-1.756,23.74A10.742,10.742,0,1,1,337.936,326.3,10.753,10.753,0,0,1,327.194,337.043Z" transform="translate(-266.323 -263.161)"/><path class="c" d="M250.206,147.69a3.329,3.329,0,0,0,2.838-1.572L264.7,127.465l-4.211-8.42H239.92l-4.21,8.42,11.659,18.653a3.326,3.326,0,0,0,2.837,1.572Zm-10.975-19.1h5.27l3.514,14.055Zm14.221,0-3.246,12.985-3.247-12.985Zm-5.791-2.387,2.545-3.816,2.544,3.816Zm11.945-3.594,1.8,3.594h-4.193Zm-4.626,2.635-2.545-3.816h5.088Zm-9.548,0-2.545-3.816h5.088Zm-2.23.958h-4.193l1.8-3.594Zm9.2,16.442,3.514-14.055h5.269Z" transform="translate(-202.464 -104.841)"/><circle class="b" cx="1.194" cy="1.194" r="1.194" transform="translate(4.774 69.107)"/><path class="b" d="M86.795,282.76,82.258,287.3l-3.086-3.087,4.537-4.537q-.777-.918-1.469-1.906l-4.755,4.755-1.194-1.193L57.832,299.787a6.257,6.257,0,0,0,8.849,8.849l18.458-18.458-1.194-1.194L88.7,284.23q-.987-.693-1.9-1.471Zm-21.8,24.189a3.87,3.87,0,0,1-5.474-5.474l13.19-13.19,5.474,5.474ZM79.871,292.07,74.4,286.6,76.29,284.7l5.474,5.474Z" transform="translate(-56 -234.199)"/><path class="b" d="M81.419,65.821a26.086,26.086,0,0,1,5.128-11.409,13.124,13.124,0,1,0-5.128,11.409ZM65.874,47.793a10.742,10.742,0,1,1,0,15.191A10.754,10.754,0,0,1,65.874,47.793Z" transform="translate(-59.543 -42.266)"/></g></g><g transform="translate(112.009 97.571)"><g transform="translate(2.138 0)"><path class="b" d="M373.03,341.214a2.727,2.727,0,0,0-2.724,2.724v5.354a2.724,2.724,0,0,0,5.449.019v-5.373A2.728,2.728,0,0,0,373.03,341.214Zm1.589,8.1a1.589,1.589,0,0,1-3.178-.019v-5.354a1.589,1.589,0,1,1,3.178,0Z" transform="translate(-370.306 -341.214)"/></g><g transform="translate(4.295 12.43)"><rect class="b" width="1.135" height="2.554"/></g><g transform="translate(2.8 14.417)"><path class="b" d="M377.442,419.142h-2.989a.568.568,0,0,0,0,1.135h2.989a.568.568,0,0,0,0-1.135Z" transform="translate(-373.885 -419.142)"/></g><g transform="translate(0 7.133)"><path class="b" d="M367.906,379.769a.568.568,0,0,0-.568.568v.454a3.727,3.727,0,1,1-7.454,0v-.454a.568.568,0,0,0-1.135,0v.454a4.862,4.862,0,1,0,9.725,0v-.454A.567.567,0,0,0,367.906,379.769Z" transform="translate(-358.749 -379.769)"/></g></g><g transform="translate(65.042 47.864)"><g transform="translate(2.138)"><path class="b" d="M119.155,72.528a2.728,2.728,0,0,0-2.724,2.724v5.354a2.724,2.724,0,0,0,5.449.019V75.252A2.728,2.728,0,0,0,119.155,72.528Zm1.589,8.1a1.589,1.589,0,0,1-3.178-.019V75.252a1.589,1.589,0,0,1,3.178,0Z" transform="translate(-116.431 -72.528)"/></g><g transform="translate(4.295 12.43)"><rect class="b" width="1.135" height="2.554"/></g><g transform="translate(2.8 14.417)"><path class="b" d="M123.567,150.457h-2.989a.568.568,0,0,0,0,1.135h2.989a.568.568,0,0,0,0-1.135Z" transform="translate(-120.01 -150.457)"/></g><g transform="translate(0 7.133)"><path class="b" d="M114.031,111.084a.568.568,0,0,0-.568.568v.454a3.727,3.727,0,0,1-7.454,0v-.454a.568.568,0,0,0-1.135,0v.454a4.862,4.862,0,0,0,9.725,0v-.454A.567.567,0,0,0,114.031,111.084Z" transform="translate(-104.874 -111.084)"/></g></g></g></svg>