<svg xmlns="http://www.w3.org/2000/svg" xmlns:xlink="http://www.w3.org/1999/xlink" width="89.999" height="45.703" viewBox="0 0 89.999 45.703"><defs><style>.a{fill:url(#a);}.b{fill:#4b4b4b;}</style><linearGradient id="a" x1="1" y1="0.559" x2="0.338" y2="0.5" gradientUnits="objectBoundingBox"><stop offset="0" stop-color="#48d63f"/><stop offset="1" stop-color="#fff"/></linearGradient></defs><g transform="translate(0 -126)"><g transform="translate(1.758 127.758)"><path class="a" d="M46.024,157.218c-4.709-5.866-9.119-10.672-14.4-10.672-5.817,0-11.074,4.73-11.074,10.547S25.8,167.64,31.621,167.64C36.831,167.64,41.565,162.972,46.024,157.218Zm7.557-8.7C58.2,142.676,65.963,136,74.863,136c11.649,0,21.621,9.445,21.621,21.094s-9.972,21.094-21.621,21.094c-9.4,0-16.2-5.838-21.974-12.5-4.619,5.836-12.377,12.5-21.268,12.5C19.972,178.187,10,168.743,10,157.094S19.972,136,31.621,136C41,136,47.8,141.848,53.581,148.517Zm6.868,8.466c4.714,5.859,9.134,10.658,14.414,10.658,5.817,0,11.074-4.73,11.074-10.547s-5.258-10.547-11.074-10.547C69.649,146.547,64.912,151.224,60.449,156.983Z" transform="translate(-10 -136)"/></g><g transform="translate(0 126)"><circle class="b" cx="1.5" cy="1.5" r="1.5" transform="translate(81 36.851)"/><path class="b" d="M66.621,126c-9.734,0-17.48,7.166-21.326,11.58C40.1,131.892,33.05,126,23.379,126,10.847,126,0,136.13,0,148.851S10.856,171.7,23.379,171.7c9.727,0,17.468-7.154,21.312-11.561,5.184,5.679,12.236,11.561,21.93,11.561A23.278,23.278,0,0,0,76,169.734a1.758,1.758,0,0,0-1.409-3.221,19.783,19.783,0,0,1-7.972,1.674c-8.673,0-14.988-5.379-20.646-11.892-3.165-3.651-6.866-8.582-7.091-8.754-4.7-5.834-9.452-10.995-15.505-10.995-6.956,0-12.832,5.635-12.832,12.3s5.876,12.3,12.832,12.3c5.661,0,10.568-4.687,14.4-9.359,1.518,1.916,2.985,3.779,4.575,5.669-3.336,3.921-10.367,10.721-18.978,10.721-10.767,0-19.863-8.855-19.863-19.336s9.1-19.336,19.863-19.336c8.689,0,15.011,5.443,20.632,11.911,2.4,2.763,4.639,5.7,6.826,8.416,4.8,5.962,9.614,11.313,15.783,11.313,6.956,0,12.832-5.635,12.832-12.3s-5.876-12.3-12.832-12.3c-5.663,0-10.575,4.7-14.414,9.374-1.519-1.915-2.986-3.776-4.577-5.666,3.338-3.927,10.374-10.739,18.992-10.739,10.767,0,19.863,8.855,19.863,19.336a18.419,18.419,0,0,1-1.681,7.7,1.758,1.758,0,0,0,3.2,1.46,21.911,21.911,0,0,0,2-9.161C90,136.121,79.143,126,66.621,126ZM23.379,157.64c-4.963,0-9.316-4.107-9.316-8.789s4.353-8.789,9.316-8.789c4.292,0,8.215,4.1,12.154,8.929C32.136,153.23,27.836,157.64,23.379,157.64Zm43.242-17.578c4.963,0,9.316,4.107,9.316,8.789s-4.354,8.789-9.316,8.789c-4.295,0-8.221-4.1-12.164-8.916C57.859,144.48,62.163,140.062,66.621,140.062Z" transform="translate(0 -126)"/></g></g></svg>