<svg xmlns="http://www.w3.org/2000/svg" xmlns:xlink="http://www.w3.org/1999/xlink" width="56.738" height="74.236" viewBox="0 0 56.738 74.236"><defs><style>.a{opacity:0.7;}.b{fill:url(#a);}</style><linearGradient id="a" x1="0.5" x2="0.5" y2="1" gradientUnits="objectBoundingBox"><stop offset="0" stop-color="#48d63f"/><stop offset="1" stop-color="#22ab1a"/></linearGradient></defs><g transform="translate(-509.283 -2847.808)"><g class="a" transform="translate(509.283 2847.808)"><path d="M121.491,9.176a1.1,1.1,0,0,0,1.118-1.087V4.4A5.485,5.485,0,0,0,117.055-1H90.638a5.485,5.485,0,0,0-5.554,5.4V17.931H83.536a11.062,11.062,0,0,0-1.958.174,1.144,1.144,0,0,0-.161.03,10.97,10.97,0,0,0-4.69,2.138,1.067,1.067,0,0,0-.164,1.53,1.139,1.139,0,0,0,1.572.16,8.627,8.627,0,0,1,2.455-1.35V23.28a1.119,1.119,0,0,0,2.236,0V20.134q.353-.028.709-.028h3.271q.358,0,.709.028V23.28a1.119,1.119,0,0,0,2.237,0V20.611a8.412,8.412,0,0,1,5.616,7.173H93.095a1.088,1.088,0,1,0,0,2.175h2.3v5.494h-2.3a1.088,1.088,0,1,0,0,2.175h2.3v5.5h-2.3a1.088,1.088,0,1,0,0,2.175h2.274a8.508,8.508,0,0,1-8.561,7.678H83.536A8.508,8.508,0,0,1,74.975,45.3H77.25a1.088,1.088,0,1,0,0-2.175h-2.3v-5.5h2.3a1.088,1.088,0,1,0,0-2.175h-2.3V29.959h2.3a1.088,1.088,0,1,0,0-2.175H74.974a8.112,8.112,0,0,1,.748-2.8,1.075,1.075,0,0,0-.552-1.441,1.131,1.131,0,0,0-1.482.537,10.224,10.224,0,0,0-.978,4.38v.4a.16.16,0,0,0,0,.017c0,.006,0,.011,0,.016v4.8H68.8a2.853,2.853,0,1,0-.073,5.7v5.231a14.623,14.623,0,0,0,14.806,14.4h.518V65.6a10.9,10.9,0,0,0-7.447,4,2.17,2.17,0,0,0-.255,2.36,2.329,2.329,0,0,0,2.1,1.283H91.891a2.329,2.329,0,0,0,2.1-1.283,2.171,2.171,0,0,0-.255-2.36,10.9,10.9,0,0,0-7.447-4V59.023h.517a14.624,14.624,0,0,0,14.807-14.4v-5.23a2.9,2.9,0,0,0,2.86-2.853,2.786,2.786,0,0,0-.858-2.014,2.951,2.951,0,0,0-2.076-.838H97.634v-5.23a10.235,10.235,0,0,0-.553-3.323h9.644a5.215,5.215,0,0,1-1.445,2.655,1.365,1.365,0,0,0-.373,1.337,1.443,1.443,0,0,0,1,1.006,7.787,7.787,0,0,0,5.2-.319,7.41,7.41,0,0,0,4.231-4.679h1.721a5.485,5.485,0,0,0,5.554-5.4v-7.3a1.119,1.119,0,0,0-2.236,0v7.3a3.276,3.276,0,0,1-3.318,3.226h-1.941a1.937,1.937,0,0,0-1.882,1.411,5.222,5.222,0,0,1-3.026,3.451,5.485,5.485,0,0,1-2.44.431A7.343,7.343,0,0,0,109,25.112a1.866,1.866,0,0,0-.466-1.5,1.971,1.971,0,0,0-1.465-.647H96.037a10.858,10.858,0,0,0-7.144-4.833c-.03-.007-.061-.013-.092-.018a11.247,11.247,0,0,0-1.48-.167V4.4a3.276,3.276,0,0,1,3.318-3.226h26.417A3.276,3.276,0,0,1,120.373,4.4V8.089A1.1,1.1,0,0,0,121.491,9.176ZM91.979,70.939c.012.015.022.027,0,.066a.093.093,0,0,1-.091.058H78.454a.093.093,0,0,1-.09-.058c-.019-.039-.009-.051,0-.066a8.8,8.8,0,0,1,13.613,0ZM68.107,36.54a.687.687,0,0,1,.7-.677H72.71v1.355H68.8A.688.688,0,0,1,68.107,36.54Zm18.7,20.308H83.536A12.414,12.414,0,0,1,70.967,44.623v-5.23H72.71v5.23A10.692,10.692,0,0,0,83.536,55.151h3.271A10.692,10.692,0,0,0,97.634,44.623v-.375c0-.012,0-.025,0-.037s0-.025,0-.037v-4.78h1.744v5.23A12.415,12.415,0,0,1,86.807,56.848ZM101.54,35.863a.7.7,0,0,1,.494.2.658.658,0,0,1,.2.476.689.689,0,0,1-.7.679H97.633V35.863Z" transform="translate(-65.871 0.998)"/></g><g transform="translate(493 2719)"><path class="b" d="M165.44,151.918H159v-.85a.747.747,0,0,0-1.494,0v.85h-6.439a.747.747,0,1,0,0,1.494h11a20.846,20.846,0,0,1-3.819,6.95,21.032,21.032,0,0,1-3-4.813.747.747,0,0,0-1.363.612,22.515,22.515,0,0,0,3.356,5.327,20.2,20.2,0,0,1-4.165,3.312.747.747,0,1,0,.769,1.281,21.737,21.737,0,0,0,4.4-3.487,21.77,21.77,0,0,0,4.41,3.487.747.747,0,0,0,.769-1.281,20.277,20.277,0,0,1-4.171-3.313,22.465,22.465,0,0,0,2.648-3.876,20.747,20.747,0,0,0,1.722-4.2h1.812a.747.747,0,1,0,0-1.494Z" transform="translate(-103.543 -17.543)"/><path class="b" d="M289.618,274.6a1.05,1.05,0,0,0-.975-.654h0a1.051,1.051,0,0,0-.975.655l-.007.017-5.3,13.928a.734.734,0,1,0,1.372.523l1.141-3h7.51l1.13,2.994a.734.734,0,0,0,1.374-.519l-5.257-13.929-.008-.02Zm-4.19,10,3.213-8.435,3.184,8.435Z" transform="translate(-253.33 -117.454)"/><path class="b" d="M173.836,292.119,171,289.994a.663.663,0,0,0-.8,1.061l1.243.932h-2.262a4.3,4.3,0,0,1-4.3-4.3v-4.25a.663.663,0,0,0-1.326,0v4.25a5.628,5.628,0,0,0,5.622,5.622h2.262l-1.243.932a.663.663,0,0,0,.8,1.06l2.834-2.125a.663.663,0,0,0,0-1.061Z" transform="translate(-226.708 335.5) rotate(-90)"/><path class="b" d="M173.836,292.119,171,289.994a.663.663,0,0,0-.8,1.061l1.243.932h-2.262a4.3,4.3,0,0,1-4.3-4.3v-4.25a.663.663,0,0,0-1.326,0v4.25a5.628,5.628,0,0,0,5.622,5.622h2.262l-1.243.932a.663.663,0,0,0,.8,1.06l2.834-2.125a.663.663,0,0,0,0-1.061Z" transform="translate(316.507 -28.166) rotate(90)"/></g></g></svg>