<svg xmlns="http://www.w3.org/2000/svg" xmlns:xlink="http://www.w3.org/1999/xlink" width="84.663" height="57.853" viewBox="0 0 84.663 57.853"><defs><style>.a{fill:url(#a);}.b{fill:#fbb540;}.c{fill:#2ad3b3;}.d{fill:#2cbff4;}.e{fill:#026ca2;}.f{fill:#4b4b4b;}</style><linearGradient id="a" x1="0.5" x2="0.5" y2="1" gradientUnits="objectBoundingBox"><stop offset="0" stop-color="#e23748"/><stop offset="1" stop-color="#950e1c"/></linearGradient></defs><g transform="translate(-16 -96)"><path class="a" d="M156.882,225.865H150.3a8.466,8.466,0,0,1-7.35-4.267l-2.5-4.367a2.468,2.468,0,0,0-2.143-1.243H121.428a2.469,2.469,0,0,0-2.145,1.243l-2.5,4.369a8.468,8.468,0,0,1-7.35,4.265H102.86l3.023-4.233a7.691,7.691,0,0,0,5.108-5.787l.536-2.679,3.064-3.064a3.991,3.991,0,0,0-2.822-6.814h-.252a3.992,3.992,0,0,0-2.494.875l-5.962,4.769V197.644L107.294,192h45.153l4.233,5.644v11.288l-5.962-4.769a3.992,3.992,0,0,0-2.494-.875h-.252a3.991,3.991,0,0,0-2.822,6.814l3.064,3.064.536,2.679a7.691,7.691,0,0,0,5.108,5.787Z" transform="translate(-71.54 -79.068)"/><ellipse class="b" cx="2.5" cy="3" rx="2.5" ry="3" transform="translate(61.33 120.926)"/><ellipse class="c" cx="3" cy="2.5" rx="3" ry="2.5" transform="translate(66.33 115.926)"/><path class="d" d="M338.822,240a2.822,2.822,0,0,1,2.822,2.822c0,1.559-1.263.174-2.822.174S336,244.381,336,242.822A2.822,2.822,0,0,1,338.822,240Z" transform="translate(-263.559 -118.601)"/><path class="e" d="M220.233,290.822h-2.822a1.411,1.411,0,1,1,0-2.822h2.822a1.411,1.411,0,0,1,0,2.822Z" transform="translate(-164.724 -158.135)"/><path class="e" d="M268.233,290.822h-2.822a1.411,1.411,0,0,1,0-2.822h2.822a1.411,1.411,0,1,1,0,2.822Z" transform="translate(-204.258 -158.135)"/><path class="e" d="M240.466,172.233H232L233.411,168h5.644Z" transform="translate(-177.902 -59.301)"/><g transform="translate(20.233 96)"><path class="b" d="M57.409,125.644a1.411,1.411,0,0,1-1.261-2.042,6.481,6.481,0,0,1,5.828-3.6h1.078a1.411,1.411,0,1,1,0,2.822H61.977a3.675,3.675,0,0,0-3.3,2.042A1.411,1.411,0,0,1,57.409,125.644Z" transform="translate(-53.177 -115.767)"/><path class="b" d="M41.409,101.644A1.411,1.411,0,0,1,40.148,99.6,6.481,6.481,0,0,1,45.977,96h1.078a1.411,1.411,0,1,1,0,2.822H45.977a3.675,3.675,0,0,0-3.3,2.042A1.411,1.411,0,0,1,41.409,101.644Z" transform="translate(-39.999 -96)"/><path class="b" d="M415.056,125.644a1.411,1.411,0,0,1-1.263-.78,3.674,3.674,0,0,0-3.3-2.042h-1.078a1.411,1.411,0,1,1,0-2.822h1.078a6.481,6.481,0,0,1,5.828,3.6,1.411,1.411,0,0,1-1.261,2.042Z" transform="translate(-343.092 -115.767)"/><path class="b" d="M431.056,101.644a1.411,1.411,0,0,1-1.263-.78,3.674,3.674,0,0,0-3.3-2.042h-1.078a1.411,1.411,0,1,1,0-2.822h1.078a6.481,6.481,0,0,1,5.828,3.6,1.411,1.411,0,0,1-1.261,2.042Z" transform="translate(-356.27 -96)"/></g><ellipse class="f" cx="2.5" cy="3" rx="2.5" ry="3" transform="translate(61.33 120.926)"/><ellipse class="f" cx="3" cy="2.5" rx="3" ry="2.5" transform="translate(66.33 115.926)"/><path class="f" d="M220.233,288h-2.822a1.411,1.411,0,1,0,0,2.822h2.822a1.411,1.411,0,0,0,0-2.822Z" transform="translate(-164.724 -158.135)"/><path class="f" d="M268.233,288h-2.822a1.411,1.411,0,0,0,0,2.822h2.822a1.411,1.411,0,1,0,0-2.822Z" transform="translate(-204.258 -158.135)"/><path class="f" d="M56.125,123.6a1.411,1.411,0,1,0,2.514,1.282l.01-.02a3.675,3.675,0,0,1,3.3-2.042h1.078a1.411,1.411,0,1,0,0-2.822H61.953A6.481,6.481,0,0,0,56.125,123.6Z" transform="translate(-32.921 -19.767)"/><path class="f" d="M47.031,96H45.953a6.481,6.481,0,0,0-5.828,3.6,1.411,1.411,0,0,0,2.514,1.282l.01-.02a3.675,3.675,0,0,1,3.3-2.042h1.078a1.411,1.411,0,0,0,0-2.822Z" transform="translate(-19.743 0)"/><path class="f" d="M409.411,120a1.411,1.411,0,1,0,0,2.822h1.078a3.674,3.674,0,0,1,3.3,2.042,1.411,1.411,0,0,0,2.534-1.242l-.01-.02a6.481,6.481,0,0,0-5.828-3.6Z" transform="translate(-322.859 -19.767)"/><path class="f" d="M426.489,98.822a3.675,3.675,0,0,1,3.3,2.042,1.411,1.411,0,0,0,2.534-1.242l-.01-.02a6.481,6.481,0,0,0-5.828-3.6h-1.078a1.411,1.411,0,1,0,0,2.822Z" transform="translate(-336.037 0)"/><path class="f" d="M16.413,189.685l9.877,9.877a1.411,1.411,0,0,0,1,.413q.058,0,.116,0a1.411,1.411,0,0,0,1.032-.586l3.609-5.053H37.9a9.9,9.9,0,0,0,8.576-4.977l2.5-4.367a1.061,1.061,0,0,1,.919-.533H66.775a1.061,1.061,0,0,1,.919.533l2.5,4.367a9.9,9.9,0,0,0,8.576,4.977h5.851l3.609,5.053a1.411,1.411,0,0,0,1.032.586q.058,0,.116,0a1.411,1.411,0,0,0,1-.413l9.877-9.877a1.411,1.411,0,0,0,.176-1.781l-5.407-8.111V165.1A7.015,7.015,0,0,0,93.7,161l-4.316-6.042A7.069,7.069,0,0,0,83.647,152h-6.62a4.572,4.572,0,0,0-3.3,1.411h-4.1a2.825,2.825,0,0,0-2.822,2.822v1.411H63.581l-1.089-3.268a1.411,1.411,0,0,0-1.339-.965H55.509a1.411,1.411,0,0,0-1.339.965l-1.089,3.268H49.865v-1.411a2.825,2.825,0,0,0-2.822-2.822h-4.1a4.572,4.572,0,0,0-3.3-1.411h-6.62a7.069,7.069,0,0,0-5.741,2.954L22.958,161a7.015,7.015,0,0,0-1.314,4.1v14.7L16.237,187.9a1.411,1.411,0,0,0,.176,1.781Zm62.352,1.824a7.07,7.07,0,0,1-6.126-3.555l-2.5-4.367a3.889,3.889,0,0,0-3.369-1.955H49.887a3.89,3.89,0,0,0-3.369,1.955l-2.5,4.367a7.071,7.071,0,0,1-6.126,3.555H34.061l1.176-1.646a9.122,9.122,0,0,0,5.6-6.686l.452-2.261,2.762-2.762a5.437,5.437,0,0,0,.63-.756h3.775a1.411,1.411,0,0,0,1.411-1.411v-1.411h1.411a1.411,1.411,0,0,0,1.411-1.411v-5.644a1.411,1.411,0,0,0-1.411-1.411H49.865V164.7a1.411,1.411,0,0,0-1.411-1.411H42.809A1.411,1.411,0,0,0,41.4,164.7v1.411H39.987a1.411,1.411,0,0,0-1.411,1.411v1.6a5.411,5.411,0,0,0-1.975,1l-3.67,2.936V165.17l3.528-4.7H80.2l3.528,4.7v7.882l-3.669-2.936a5.42,5.42,0,0,0-2.291-1.069,2.821,2.821,0,0,0-5.328,1.3,2.9,2.9,0,0,0,.021.332,5.387,5.387,0,0,0-1.378,2.9,2.822,2.822,0,1,0,.941,3.879,5.454,5.454,0,0,0,.588.7l2.762,2.762.452,2.261a9.121,9.121,0,0,0,5.6,6.686l1.176,1.646ZM48.454,168.932h1.411v2.822H48.454a1.411,1.411,0,0,0-1.411,1.411v1.411H45.626c0-.08.006-.161.006-.242a5.411,5.411,0,0,0-4.233-5.274v-.128h1.411a1.411,1.411,0,0,0,1.411-1.411V166.11h2.822v1.411a1.411,1.411,0,0,0,1.411,1.411Zm35.193-14.11a4.242,4.242,0,0,1,3.445,1.773l4.315,6.042a4.209,4.209,0,0,1,.789,2.46v15.124a1.411,1.411,0,0,0,.237.783l5,7.5-7.882,7.882-6.087-8.522a1.411,1.411,0,0,0-.7-.518,6.291,6.291,0,0,1-4.171-4.725l-.536-2.68a1.411,1.411,0,0,0-.386-.721l-3.064-3.064a2.58,2.58,0,0,1,1.824-4.4h.253a2.589,2.589,0,0,1,1.612.565l5.961,4.769a1.411,1.411,0,0,0,2.293-1.1V164.7a1.411,1.411,0,0,0-.282-.847l-4.233-5.644a1.411,1.411,0,0,0-1.129-.564H75.263v-1.058a1.766,1.766,0,0,1,1.764-1.764ZM24.229,181a1.411,1.411,0,0,0,.237-.783V165.1a4.209,4.209,0,0,1,.789-2.461l4.315-6.042a4.242,4.242,0,0,1,3.445-1.773h6.62a1.766,1.766,0,0,1,1.764,1.764v1.058H35.754a1.411,1.411,0,0,0-1.129.564l-4.233,5.644a1.411,1.411,0,0,0-.282.847v11.288a1.411,1.411,0,0,0,2.293,1.1l5.962-4.769a2.588,2.588,0,0,1,1.612-.565h.253a2.58,2.58,0,0,1,1.824,4.4l-3.064,3.064a1.411,1.411,0,0,0-.386.721l-.536,2.68a6.291,6.291,0,0,1-4.171,4.725,1.411,1.411,0,0,0-.7.518l-6.087,8.522-7.882-7.882Z" transform="translate(0 -46.123)"/></g></svg>