<svg xmlns="http://www.w3.org/2000/svg" xmlns:xlink="http://www.w3.org/1999/xlink" width="81.18" height="74.879" viewBox="0 0 81.18 74.879"><defs><style>.a{fill:url(#a);}.b{fill:#4b4b4b;}</style><linearGradient id="a" x1="0.5" x2="0.5" y2="1" gradientUnits="objectBoundingBox"><stop offset="0" stop-color="#e23748"/><stop offset="1" stop-color="#950e1c"/></linearGradient></defs><g transform="translate(0 -19.871)"><path class="a" d="M126.9,36.7a.992.992,0,0,1,.991-.991h2.552l.472,2.082a2.54,2.54,0,0,0,2.491,1.99h9.995a2.541,2.541,0,0,0,2.491-1.99l.471-2.082h2.552a.992.992,0,0,1,.991.991V68.68H126.9Z" transform="translate(-106.784 -13.323)"/><g transform="translate(0 19.871)"><path class="b" d="M78.669,83.385H76.7V47.668A14.249,14.249,0,0,0,57.81,26.345a1.19,1.19,0,0,0,1.524,1.829A11.872,11.872,0,1,1,55.055,37.3a11.76,11.76,0,0,1,1.175-5.156,1.19,1.19,0,1,0-2.144-1.036A14.125,14.125,0,0,0,52.674,37.3c0,.283.009.564.026.843H45.613v-14.9a3.376,3.376,0,0,0-3.372-3.372H21.218a3.376,3.376,0,0,0-3.372,3.372v14.9H7.76a3.272,3.272,0,0,0-3.268,3.268V69.491a1.19,1.19,0,0,0,2.381,0V41.412a.889.889,0,0,1,.888-.888H17.846v3.5H12.892A3.1,3.1,0,0,0,9.8,47.115V76.8a3.1,3.1,0,0,0,3.095,3.095H68.3A3.1,3.1,0,0,0,71.392,76.8V50.837a14.2,14.2,0,0,0,2.925-1.352v33.9H6.872v-8.4a1.19,1.19,0,0,0-2.381,0v8.4h-2A2.491,2.491,0,0,0,0,85.873v3.65A5.233,5.233,0,0,0,5.227,94.75h70.7a5.233,5.233,0,0,0,5.227-5.227v-3.65A2.491,2.491,0,0,0,78.669,83.385ZM45.613,40.525h7.43a14.156,14.156,0,0,0,1.319,3.5H45.613ZM37.248,22.252,36.9,23.808a.172.172,0,0,1-.169.135H26.732a.172.172,0,0,1-.169-.135l-.352-1.556Zm-17.022.991a.992.992,0,0,1,.991-.991h2.552l.472,2.082a2.54,2.54,0,0,0,2.491,1.99h9.995a2.54,2.54,0,0,0,2.491-1.99l.472-2.082h2.552a.992.992,0,0,1,.991.991V55.227H20.226Zm0,34.365H43.232v3.971a.992.992,0,0,1-.991.991H21.218a.992.992,0,0,1-.991-.991ZM69.011,76.8a.715.715,0,0,1-.714.714H12.892a.715.715,0,0,1-.714-.714V47.115a.715.715,0,0,1,.714-.714h4.954V61.579a3.376,3.376,0,0,0,3.372,3.372H42.241a3.376,3.376,0,0,0,3.372-3.372V46.4H55.966a14.242,14.242,0,0,0,13.044,5V76.8ZM36.653,85.771H44.5v1.847H36.653Zm42.123,3.752a2.849,2.849,0,0,1-2.846,2.846H5.227a2.849,2.849,0,0,1-2.846-2.846v-3.65a.107.107,0,0,1,.107-.107l31.785.005V87.8a2.2,2.2,0,0,0,2.2,2.2h8.22a2.2,2.2,0,0,0,2.2-2.2V85.771l31.785-.005a.107.107,0,0,1,.107.107Z" transform="translate(0 -19.871)"/><path class="b" d="M371.746,97.375a2.414,2.414,0,0,0,3.409,0l8.184-8.183a3.423,3.423,0,0,0-4.841-4.841h0L373.451,89.4l-.8-.8a3.423,3.423,0,0,0-4.841,4.841Zm-2.255-7.1a1.042,1.042,0,0,1,1.474,0l1.554,1.554a1.321,1.321,0,0,0,1.865,0l5.8-5.8a1.042,1.042,0,1,1,1.474,1.474l-8.184,8.183a.03.03,0,0,1-.043,0l-3.939-3.939a1.042,1.042,0,0,1,0-1.474Z" transform="translate(-308.646 -73.285)"/><circle class="b" cx="1.832" cy="1.832" r="1.832" transform="translate(23.549 19.466)"/><circle class="b" cx="1.832" cy="1.832" r="1.832" transform="translate(29.91 19.467)"/><circle class="b" cx="1.832" cy="1.832" r="1.832" transform="translate(36.239 19.463)"/><path class="a" d="M382.125,102.906a1.042,1.042,0,0,1,1.474,0l1.554,1.554a1.321,1.321,0,0,0,1.865,0l5.8-5.8a1.042,1.042,0,1,1,1.474,1.474l-8.184,8.183a.03.03,0,0,1-.043,0l-3.939-3.939a1.042,1.042,0,0,1,0-1.474Z" transform="translate(-321.281 -85.913)"/></g></g></svg>